<svg width="40" height="40" viewBox="0 0 40 40" fill="none" xmlns="http://www.w3.org/2000/svg">
<path fill-rule="evenodd" clip-rule="evenodd" d="M40 19.9789C40 21.9219 39.7466 23.7804 39.2397 25.5121C38.226 29.0602 36.2408 32.1858 33.622 34.6357C31.7634 36.3675 29.5248 37.7613 27.1172 38.6906C24.9208 39.5354 22.5131 40 20.0211 40C19.6831 40 19.303 40 18.9651 39.9578C18.4582 39.9155 17.9091 39.8733 17.4023 39.831C13.5163 39.3242 10.0105 37.7191 7.18047 35.3115C6.1245 34.4245 5.15301 33.4108 4.26599 32.3126C3.63241 31.51 3.04106 30.623 2.49196 29.6938C2.36524 29.4826 2.23853 29.2714 2.15405 29.018C2.15405 29.018 2.15405 29.018 2.15405 28.9757C2.02734 28.7223 1.90062 28.5111 1.81614 28.2577C1.47823 27.4974 1.18256 26.6948 0.929125 25.8923C0.76017 25.3009 0.591219 24.7096 0.464502 24.1183C0.380025 23.6959 0.295547 23.2735 0.253308 22.8089C0.126592 21.8796 0.0421143 20.9504 0.0421143 19.9789C0.0421143 19.4298 0.0843518 18.8807 0.126591 18.3316C0.168829 17.9937 0.211069 17.6558 0.253308 17.3178C0.506741 15.3326 1.05584 13.4741 1.85838 11.7423C2.23853 10.8976 2.70316 10.0528 3.21002 9.25026C4.0548 7.94086 5.02629 6.71594 6.16674 5.65998C9.75704 2.15417 14.699 0 20.1055 0C20.3167 0 20.5279 0 20.7391 0C20.9503 0 21.2037 2.57741e-06 21.4149 0.0422412C22.5554 0.126719 23.6958 0.295672 24.7518 0.549104C25.3854 0.718058 26.019 0.887014 26.6103 1.09821C27.0327 1.22492 27.4128 1.39387 27.8352 1.56283C28.1309 1.68954 28.4266 1.81626 28.7223 1.94298C28.7645 1.98522 28.8067 1.98522 28.8912 2.02746C30.8342 2.95671 32.6082 4.22387 34.1288 5.74446C34.34 5.95565 34.5512 6.16684 34.7624 6.37804C34.8891 6.54699 35.0581 6.67371 35.1848 6.84267C35.4382 7.0961 35.6494 7.39177 35.8606 7.6452C36.6631 8.65893 37.339 9.75712 37.9303 10.8976C38.6061 12.2492 39.1552 13.6853 39.5354 15.1637C39.7888 16.6843 40 18.2893 40 19.9789Z" fill="url(#paint0_radial_19_1676)"/>
<path d="M25.132 14.7836C25.132 14.6146 25.6952 14.7132 25.9768 14.7836H27.244C27.7508 14.7836 27.0328 15.2059 26.6104 15.4171C26.3992 15.4875 25.8923 15.6283 25.5544 15.6283C25.132 15.6283 25.132 14.9948 25.132 14.7836Z" fill="url(#paint1_linear_19_1676)"/>
<path fill-rule="evenodd" clip-rule="evenodd" d="M28.7646 1.98521C28.6801 1.98521 28.6379 1.98521 28.5534 2.02745C28.3422 2.06969 28.131 2.02745 27.9198 1.98521C27.7509 1.94297 27.6664 1.85849 27.4552 1.85849C27.2018 1.81625 26.9906 1.73178 26.7372 1.68954C26.4837 1.6473 26.2725 1.56282 26.0191 1.47835C25.8079 1.39387 25.7234 1.43611 25.5545 1.47835C25.3855 1.52058 25.2588 1.43611 25.0898 1.39387C24.9209 1.30939 24.7097 1.30939 24.5407 1.26715C24.0339 1.18268 23.527 1.01372 23.0201 0.887007C22.7245 0.80253 22.4288 0.802525 22.0909 0.802525C21.8375 0.802525 21.6263 0.887007 21.3728 0.887007C21.2039 0.887007 21.0772 0.844766 20.9082 0.844766C20.7392 0.802528 20.5703 0.844766 20.4013 0.844766C20.1479 0.802528 20.0212 0.760289 19.7678 0.844766C19.5566 0.887005 19.4298 0.887004 19.2187 0.929242C19.0075 0.929242 18.754 1.01372 18.5428 1.05596C18.1627 1.14044 17.7403 1.22491 17.3601 1.22491C17.1067 1.22491 16.7688 1.14043 16.5576 1.22491C16.4309 1.26715 16.3464 1.43611 16.2197 1.52059C16.0085 1.73178 15.7973 1.90073 15.6284 2.11193C15.4594 2.32312 15.2904 2.57655 15.2904 2.87222C15.2904 3.12565 15.4172 3.42133 15.5439 3.63252C15.6706 3.88595 15.7128 4.09714 15.4594 4.2661C15.1637 4.47729 14.7836 4.64624 14.4457 4.77295C14.1922 4.85743 13.981 4.89968 13.8121 4.73073C13.7276 4.68849 13.6854 4.56177 13.6009 4.47729C13.5164 4.43505 13.3897 4.47729 13.3052 4.51953C13.0518 4.60401 12.7984 4.68849 12.5449 4.73073C12.376 4.77297 12.2493 4.85744 12.0803 4.85744C11.9113 4.89968 11.7846 4.77296 11.5734 4.8152C11.32 4.85743 11.0243 4.98415 10.7709 4.98415C10.5597 4.98415 10.3063 4.89967 10.1373 4.8152C10.0528 4.77296 10.0106 4.68849 9.88388 4.73073C9.7994 4.73073 9.67269 4.85744 9.63045 4.94192C9.54597 5.0264 9.54597 5.15311 9.46149 5.23758C9.37701 5.3643 9.33477 5.44878 9.25029 5.5755C9.12358 5.78669 8.99686 5.99789 8.87015 6.20908C8.78567 6.33579 8.70119 6.54698 8.57448 6.67369C8.53224 6.75817 8.40552 6.80042 8.32104 6.84266C8.10985 6.96937 7.89865 7.13833 7.68746 7.26505C7.30731 7.56072 6.92716 7.89862 6.54701 8.19429C6.25134 8.40548 5.82895 8.5322 5.49104 8.70116C5.27985 8.78563 5.06866 8.87011 4.85746 8.95459C4.77298 8.99683 4.64627 8.99682 4.60403 9.0813C4.51955 9.16578 4.47731 9.25026 4.43507 9.37698C4.26612 9.58817 4.05493 9.84159 3.92821 10.095C3.84373 10.264 3.80149 10.3907 3.71702 10.5597C3.63254 10.7708 3.50582 10.982 3.46358 11.2355C3.29462 11.7001 3.29463 12.207 3.08343 12.6716C2.99896 12.925 2.83 13.1784 2.70328 13.4319C2.49209 13.8543 2.44985 14.3611 2.40761 14.8258C2.36537 15.0792 2.40761 15.4171 2.44985 15.6705C2.49209 15.9662 2.49209 16.2619 2.49209 16.5575C2.49209 16.8532 2.28089 17.1911 2.11194 17.4023C1.94298 17.6135 1.64731 17.698 1.43612 17.9092C1.26716 18.0781 1.05597 18.2471 0.971494 18.5005C0.929255 18.585 0.971494 18.7117 0.971494 18.8384C0.929255 19.0919 0.844776 19.303 0.844776 19.5565C0.802537 19.8521 0.802535 20.1478 0.802535 20.4857C0.802535 20.6547 0.802535 20.7814 0.802535 20.9504C0.802535 21.1193 0.844778 21.246 0.887017 21.3727C0.887017 21.4572 0.887017 21.5839 0.887017 21.6684C0.887017 21.7951 0.971494 21.9219 0.971494 22.0063C1.05597 22.302 1.09821 22.5554 1.14045 22.8511C1.18269 23.1045 1.3094 23.358 1.35164 23.6114C1.47836 23.9493 1.5206 24.2872 1.60508 24.6674C1.64731 24.9208 1.64731 25.2165 1.68955 25.4699C1.73179 25.6811 1.77403 25.8923 1.77403 26.1035C1.77403 26.4414 1.68955 26.7371 1.68955 27.075C1.68955 27.6241 1.90075 28.1732 2.02746 28.7223C2.0697 28.8912 2.11194 29.0179 2.15418 29.1869C0.760301 26.4836 0 23.4002 0 20.1478C0 16.1774 1.14044 12.5026 3.12567 9.41921C3.97044 8.10981 4.94194 6.88489 6.08238 5.82892C9.67268 2.32311 14.6146 0.168945 20.0212 0.168945C20.4436 0.168945 20.9082 0.168948 21.3306 0.211187C23.9494 0.168948 26.4837 0.844765 28.7646 1.98521Z" fill="url(#paint2_linear_19_1676)"/>
<path d="M23.8649 16.6842C24.8787 16.8532 26.2585 17.3178 26.8216 17.529H28.0887C28.5111 17.529 30.8343 19.2186 31.2566 20.2745C31.679 21.3305 32.9462 20.2745 34.0022 20.2745C35.0581 20.2745 32.5238 23.8648 31.679 24.7096C30.8343 25.5544 32.3126 27.2439 32.5238 27.6663C32.735 28.0887 31.8902 28.7223 31.679 30.4118C31.4678 32.1013 30.8343 34.4245 30.4119 35.9028C30.074 37.0855 28.4407 38.0852 27.6663 38.4371C27.3848 38.5779 26.6527 38.6061 25.9768 37.5924C25.132 36.3252 24.7096 34.2133 24.4984 33.3685C24.2872 32.5237 26.188 28.0887 22.3865 27.6663C18.585 27.2439 20.697 30.8342 15.8396 27.2439C10.9821 23.6536 16.4732 16.6842 16.8955 16.0507C17.3179 15.4171 18.3739 16.0507 20.2746 15.4171C21.7952 14.9102 23.3017 15.2059 23.8649 15.4171C23.4425 15.7691 22.8512 16.5153 23.8649 16.6842Z" fill="url(#paint3_linear_19_1676)"/>
<path d="M2.97671 28.5192C3.11507 28.1099 2.45788 26.7568 2.112 26.1315C2.40024 25.7335 3.11507 25.0399 3.66848 25.4493C4.36025 25.9609 6.43556 24.7671 7.12733 24.9376C7.8191 25.1082 9.37559 25.2787 9.54853 25.7904C9.72147 26.302 9.72147 27.4959 10.0674 28.0076C10.3441 28.4169 10.0674 29.5425 9.89441 30.0542C9.83677 30.2247 9.61771 30.6 9.20264 30.7364C8.68382 30.9069 9.89441 30.9069 10.9321 31.248C11.9697 31.5892 11.278 33.2947 11.6238 34.1474C11.9697 35.0002 13.8721 36.5352 14.218 36.8763C14.5639 37.2174 14.218 37.729 13.8721 37.5585C13.5262 37.3879 9.72147 34.318 7.99205 33.9769C6.60851 33.704 4.07202 31.0206 2.97671 29.7131C2.91906 29.4857 2.83836 28.9285 2.97671 28.5192Z" fill="url(#paint4_linear_19_1676)"/>
<path d="M7.603 11.8268V10.982V9.92608C7.603 9.50372 7.18061 9.5037 6.75822 8.87012C6.33583 8.23654 6.75822 8.44773 7.3918 8.23654C8.02538 8.02534 7.81419 8.65892 7.81419 8.87012C7.81419 9.08131 8.65897 9.5037 8.87016 9.5037C9.08135 9.5037 9.92613 9.5037 9.71494 9.92608C9.50374 10.3485 9.50374 10.5597 8.87016 11.4044C8.36329 12.0803 7.81419 11.9676 7.603 11.8268Z" fill="url(#paint5_linear_19_1676)"/>
<path d="M7.18048 10.3484C7.34944 10.1795 6.5469 9.57407 6.12451 9.29248C6.05412 9.64447 5.82884 10.4329 5.49093 10.7708C5.06854 11.1932 6.12451 11.1932 6.5469 11.4044C6.96929 11.6156 6.96929 10.5596 7.18048 10.3484Z" fill="url(#paint6_linear_19_1676)"/>
<path d="M34.0022 27.8775C34.5091 27.8775 34.9174 27.0327 35.0582 26.6103C35.2337 26.1879 35.6918 26.1879 35.903 26.3991C36.1142 26.6103 35.903 28.9334 35.2694 29.9894C34.6358 31.0454 34.0022 30.8342 33.5799 30.8342C33.1576 30.8342 33.5799 29.9894 34.0022 29.567C34.4246 29.1446 33.3687 27.8775 34.0022 27.8775Z" fill="url(#paint7_linear_19_1676)"/>
<path fill-rule="evenodd" clip-rule="evenodd" d="M28.0888 15.6281C28.0888 16.3039 27.6664 16.6137 27.4552 16.6841L28.7224 17.3178C28.652 17.1066 28.7224 16.6841 29.5672 16.6841C30.0952 16.6841 30.5704 17.5289 31.0456 18.3737C31.5207 19.2184 31.9959 20.0632 32.5239 20.0632C33.5799 20.0632 36.1142 18.585 36.7478 17.9514C37.2547 17.4445 36.5366 16.6139 36.1142 16.2619C35.9734 16.6842 35.3117 17.1488 33.7911 15.6281C31.8903 13.7272 32.5239 13.3051 33.7911 14.1497C34.8048 14.8255 35.4806 14.713 35.6918 14.5722C35.9734 14.4314 36.8323 14.3187 38.015 14.9946C39.1976 15.6705 39.2117 20.3449 39.0709 22.5977C39.4933 20.9081 40.1691 17.0221 39.4933 14.9946C37.3814 8.65872 34.847 6.33569 32.5239 4.22376C30.6654 2.53421 25.9769 0.84473 23.865 0.211182C23.3018 0.492773 22.0909 1.26715 21.753 2.11192C21.3561 3.10438 21.1456 3.16398 19.8944 3.51831C19.8143 3.54099 19.73 3.56487 19.6411 3.59027C18.6205 3.88193 18.6064 3.8715 18.2787 3.62863C18.1317 3.51969 17.9216 3.36398 17.5293 3.16779C16.5886 2.69743 15.2986 3.27464 14.1779 3.77607C13.7891 3.95007 13.4206 4.11495 13.0942 4.22376C11.8271 4.64614 10.771 5.9133 10.771 6.33569C10.771 6.48532 10.665 6.60845 10.5656 6.72385C10.3845 6.93421 10.2255 7.1189 10.771 7.39165C11.326 7.6691 11.7897 7.58207 12.282 7.48967C12.5392 7.44139 12.8042 7.39165 13.0942 7.39165C13.939 7.39165 13.5165 8.02523 13.0942 8.44762C12.6719 8.87001 11.8269 9.0812 10.771 9.29239C10.2066 9.40529 10.1249 9.75957 10.0098 10.2584C9.90962 10.6928 9.78413 11.2369 9.29267 11.8266C8.68532 12.5554 8.47821 12.8185 8.43592 12.8826C8.08305 12.8845 7.52421 12.9709 8.02541 13.3051L8.02655 13.3058C8.65975 13.728 9.29217 14.1497 8.4478 14.1497C8.07854 14.1497 7.83034 14.4322 7.59739 14.6972C7.29735 15.0386 7.02261 15.3512 6.54706 14.9946C5.91347 14.5195 5.51754 15.1134 5.00278 15.8855C4.83119 16.1429 4.6464 16.4201 4.43521 16.6841C3.89381 17.3608 4.04635 17.7774 4.22574 18.2672C4.32626 18.5417 4.43521 18.8393 4.43521 19.2185C4.43521 19.7651 4.66158 19.7458 4.99715 19.7172C5.30982 19.6905 5.71729 19.6558 6.12476 20.0632C6.90592 20.8444 8.40943 19.8197 9.13239 19.327C9.19126 19.2869 9.24496 19.2503 9.29267 19.2185C9.92625 18.7961 10.9822 15.6281 10.771 14.9946C10.592 14.4575 11.9312 13.6165 12.729 13.1156C12.8721 13.0258 12.9978 12.9468 13.0942 12.8826C13.5508 12.5781 14.0074 12.9319 14.7012 13.4695C14.97 13.6779 15.2745 13.9138 15.6285 14.1497C16.4054 14.6676 16.3884 14.7093 16.3077 14.9074C16.2567 15.0323 16.1804 15.2196 16.2621 15.6281C16.3677 16.156 16.4733 15.9449 16.6581 15.5753C16.8429 15.2057 17.1069 14.6778 17.5293 14.5722C18.374 14.361 17.9516 13.5163 16.6845 13.3051C15.4173 13.0939 14.1502 11.8266 14.7837 11.8266H17.5293C18.5852 11.8266 19.2187 12.4603 18.7963 12.8826C18.3739 13.3049 20.4859 14.1497 21.1195 14.1497C21.5821 14.1497 21.2565 13.4741 20.8827 12.6985C20.7445 12.4118 20.5998 12.1115 20.4859 11.8266C20.1914 11.0904 20.9235 11.3808 21.5371 11.6242C21.8035 11.7298 22.0475 11.8266 22.1753 11.8266C22.5977 11.8266 22.8089 12.249 22.1753 12.8826C21.5418 13.5162 23.8649 14.1497 24.4985 14.1497H27.0328C28.0888 14.1497 28.0888 14.7833 28.0888 15.6281ZM23.2313 11.6155C23.7241 11.6859 24.7941 11.7845 25.132 11.6155C25.4699 11.4466 26.54 11.9675 27.0328 12.2491C27.3144 12.3195 27.8353 12.3758 27.6664 12.0379C27.4552 11.6155 26.188 10.1372 25.3432 10.3484C24.4984 10.5596 23.0201 11.4042 23.2313 11.6155Z" fill="url(#paint8_linear_19_1676)"/>
<defs>
<radialGradient id="paint0_radial_19_1676" cx="0" cy="0" r="1" gradientUnits="userSpaceOnUse" gradientTransform="translate(7.604 10.5977) scale(32.1444 32.1442)">
<stop offset="0.00558659" stop-color="#0CB9C4"/>
<stop offset="0.2058" stop-color="#0C96C1"/>
<stop offset="0.3613" stop-color="#0B79B7"/>
<stop offset="0.5018" stop-color="#096EA7"/>
<stop offset="0.6334" stop-color="#075E8F"/>
<stop offset="0.7576" stop-color="#044A72"/>
<stop offset="0.8715" stop-color="#003C74"/>
</radialGradient>
<linearGradient id="paint1_linear_19_1676" x1="26.2752" y1="14.6903" x2="26.2752" y2="15.6283" gradientUnits="userSpaceOnUse">
<stop stop-color="#43991F"/>
<stop offset="1" stop-color="#4BFF00" stop-opacity="0"/>
</linearGradient>
<linearGradient id="paint2_linear_19_1676" x1="-0.0139388" y1="14.4675" x2="28.7717" y2="14.4675" gradientUnits="userSpaceOnUse">
<stop stop-color="#2CB3FF"/>
<stop offset="0.0885417" stop-color="#2CA6FF"/>
<stop offset="0.2325" stop-color="#2DCAFC"/>
<stop offset="0.3947" stop-color="#32AEF3"/>
<stop offset="0.5382" stop-color="#3A7EE3"/>
<stop offset="0.6707" stop-color="#446ACD"/>
<stop offset="0.7958" stop-color="#4268B1"/>
<stop offset="0.9136" stop-color="#1F598E"/>
<stop offset="1" stop-color="#005D72"/>
</linearGradient>
<linearGradient id="paint3_linear_19_1676" x1="24.0505" y1="15.1372" x2="24.0505" y2="38.5086" gradientUnits="userSpaceOnUse">
<stop stop-color="#43991F"/>
<stop offset="1" stop-color="#4BFF00" stop-opacity="0"/>
</linearGradient>
<linearGradient id="paint4_linear_19_1676" x1="8.23662" y1="24.9208" x2="8.23662" y2="37.5924" gradientUnits="userSpaceOnUse">
<stop stop-color="#43991F"/>
<stop offset="1" stop-color="#4BFF00" stop-opacity="0"/>
</linearGradient>
<linearGradient id="paint5_linear_19_1676" x1="8.16837" y1="8.19403" x2="8.16837" y2="11.9336" gradientUnits="userSpaceOnUse">
<stop stop-color="#43991F"/>
<stop offset="1" stop-color="#4BFF00" stop-opacity="0"/>
</linearGradient>
<linearGradient id="paint6_linear_19_1676" x1="6.29828" y1="9.29248" x2="6.29828" y2="11.4322" gradientUnits="userSpaceOnUse">
<stop stop-color="#43991F"/>
<stop offset="1" stop-color="#4BFF00" stop-opacity="0"/>
</linearGradient>
<linearGradient id="paint7_linear_19_1676" x1="34.6936" y1="26.2604" x2="34.6936" y2="30.8514" gradientUnits="userSpaceOnUse">
<stop stop-color="#43991F"/>
<stop offset="1" stop-color="#4BFF00" stop-opacity="0"/>
</linearGradient>
<linearGradient id="paint8_linear_19_1676" x1="21.9199" y1="0.211182" x2="21.9199" y2="22.5977" gradientUnits="userSpaceOnUse">
<stop stop-color="#43991F"/>
<stop offset="1" stop-color="#4BFF00" stop-opacity="0"/>
</linearGradient>
</defs>
</svg>
