<svg width="20" height="21" viewBox="0 0 20 21" fill="none" xmlns="http://www.w3.org/2000/svg">
<path d="M10 0.5C4.47656 0.5 0 4.97656 0 10.5C0 16.0234 4.47656 20.5 10 20.5C15.5234 20.5 20 16.0234 20 10.5C20 4.97656 15.5234 0.5 10 0.5ZM17.2617 11.5625L16.4609 11.168C16.2932 11.0961 16.1501 10.9769 16.0492 10.825L15.3461 9.77035C15.1363 9.45547 15.1363 9.04535 15.3461 8.73051L16.1113 7.58285C16.202 7.44711 16.3264 7.33742 16.4723 7.26449C16.74 7.13082 17.0285 7.05109 17.3227 7.00281C17.832 8.0625 18.125 9.24609 18.125 10.5C18.125 10.9934 18.0737 11.4742 17.989 11.9437L17.2617 11.5625ZM6.85547 3.00977L7.22199 3.35875C7.40738 3.53531 7.61809 3.68324 7.84699 3.79781C7.98438 3.86758 8.14844 3.88281 8.29688 3.83945C8.57031 3.75703 8.75391 3.50508 8.75 3.22109C8.7503 2.97254 8.93859 2.76445 9.18594 2.73945C9.28473 2.72893 9.38324 2.72068 9.48203 2.71405C9.6209 2.7052 9.75676 2.75662 9.85504 2.85502L10.8082 3.80815C10.8081 3.80815 10.8082 3.80823 10.8082 3.80815C11.0521 4.05229 11.0522 4.44799 10.8081 4.69213L10.2214 5.27924C10.0995 5.40123 10.0995 5.59901 10.2214 5.72104L10.4045 5.9042C10.5265 6.0262 10.5265 6.22397 10.4045 6.346L10.092 6.6585C10.0352 6.71875 9.95312 6.75 9.87109 6.75H9.51953C9.4375 6.75 9.35938 6.78516 9.30078 6.83984L8.91406 7.21875C8.81641 7.3125 8.79297 7.46094 8.85156 7.58203L9.46055 8.80039C9.48438 8.84375 9.49609 8.89062 9.49609 8.94141C9.49617 9.11406 9.35633 9.25398 9.18375 9.25414H8.96094C8.88547 9.25361 8.81285 9.22584 8.75625 9.17602L8.39453 8.85938C8.22754 8.71441 7.99648 8.66856 7.78672 8.73867L6.56914 9.14453C6.45563 9.18406 6.36156 9.26562 6.30645 9.3725C6.18781 9.60262 6.27814 9.88539 6.50816 10.0037L6.94098 10.2202C7.30859 10.4023 7.71484 10.5 8.125 10.5C8.53594 10.5 9.00742 11.566 9.375 11.75H11.9828C12.3143 11.7498 12.6324 11.8814 12.8668 12.1156L13.4023 12.6484C13.6261 12.8721 13.7516 13.1758 13.7512 13.4922C13.7516 13.9762 13.5586 14.4402 13.2152 14.7812C13.0629 14.9329 12.9031 15.0918 12.7734 15.2219C12.657 15.3375 12.573 15.4818 12.5301 15.6402C12.4711 15.8613 12.4219 16.0848 12.3438 16.2992L11.7926 17.9254C11.7161 18.2416 11.4586 18.4793 11.1395 18.5355C11.0856 18.5432 11.0327 18.5536 10.9786 18.5602C10.9582 18.5628 10.938 18.5659 10.9175 18.5684C10.8853 18.5722 10.8529 18.5742 10.8204 18.5742C10.3672 18.5742 10 18.207 10 17.789V17.2784C10.066 16.7855 9.70195 15.8624 9.11605 15.2765C8.88281 15.0078 8.71484 14.6875 8.75 14.3594V13.1094C8.75122 12.6547 8.5048 12.2355 8.10703 12.0156C7.5457 11.705 6.74727 11.2711 6.20039 10.9957C5.75391 10.7656 5.33594 10.4805 4.96484 10.1445L4.93359 10.1172C4.66797 9.875 4.42969 9.60156 4.22656 9.30469C3.94141 8.88672 3.29297 7.92188 2.83594 7.24609C2.77344 7.15625 2.74219 7.05469 2.69922 6.96094C3.55859 5.19141 5.03516 3.77656 6.85547 3.00977Z" fill="#66B9FF"/>
</svg>
