<svg width="70" height="70" viewBox="0 0 70 70" fill="none" xmlns="http://www.w3.org/2000/svg">
<path d="M62.2029 56.6785C56.4337 63.9162 48.0421 68.5666 38.8463 69.5806C36.2938 69.8603 33.7414 69.8603 31.1889 69.5806C21.9931 68.5666 13.5665 63.9162 7.83228 56.6785C12.0281 53.7764 17.4826 50.6994 23.6714 48.8813C27.3428 47.7624 31.154 47.168 35.0001 47.168C38.8463 47.2029 42.6924 47.7624 46.3637 48.8813C52.5526 50.7344 58.0071 53.7764 62.2029 56.6785Z" fill="#B9FF66"/>
<path d="M42.2376 51.294L38.846 69.5807C38.5663 69.6157 38.2866 69.6507 38.0069 69.6507C37.0279 69.7206 36.0488 69.7905 35.0349 69.7905C33.916 69.7905 32.7971 69.7556 31.6782 69.6157L31.2237 69.5807L27.4125 51.294C30.9439 50.2451 38.6712 50.2451 42.2376 51.294Z" fill="#191A23"/>
<path d="M35.0001 40.8394C42.4733 40.8394 48.5316 33.8888 48.5316 25.3149C48.5316 16.7409 42.4733 9.79041 35.0001 9.79041C27.5269 9.79041 21.4686 16.7409 21.4686 25.3149C21.4686 33.8888 27.5269 40.8394 35.0001 40.8394Z" fill="#F5F5F5"/>
<path d="M35.0001 41.0842C27.3777 41.0842 21.2239 34.0212 21.2239 25.3149C21.2239 16.0842 22.2029 9.54572 35.0001 9.54572C47.7973 9.54572 48.7763 16.0842 48.7763 25.3149C48.7763 34.0212 42.6225 41.0842 35.0001 41.0842ZM35.0001 10.0352C22.6574 10.0352 21.7134 16.0842 21.7134 25.3149C21.7134 33.7415 27.6574 40.5947 35.0001 40.5947C42.3428 40.5947 48.2868 33.7415 48.2868 25.3149C48.2868 16.0842 47.3777 10.0702 35.0001 10.0352Z" fill="#191A23"/>
<path d="M43.5316 30.6643C44.196 26.5384 51.0491 25.5244 50.6994 30.3846C50.5946 32.0629 50.0351 33.7762 48.8813 34.965C47.7274 36.1538 45.8043 36.7132 44.2659 36.0489" fill="#F5F5F5"/>
<path d="M45.7344 36.5737C45.2099 36.5737 44.6855 36.4688 44.196 36.259C44.0561 36.1891 44.0211 36.0493 44.0561 35.9094C44.0911 35.7695 44.2659 35.7346 44.4057 35.7695C45.7694 36.3639 47.5176 35.9444 48.7414 34.7555C50.0351 33.4269 50.4197 31.6437 50.4897 30.35C50.5946 28.6716 49.7904 27.5528 48.2869 27.3779C46.4687 27.1681 44.161 28.4618 43.8113 30.6646C43.7764 30.8045 43.6365 30.8744 43.4967 30.8395C43.3568 30.8045 43.2869 30.6996 43.2869 30.5597C43.6715 28.0772 46.2589 26.6087 48.3218 26.8534C49.7204 26.9933 51.119 28.0073 50.9792 30.35C50.8743 31.7136 50.4897 33.6716 49.0911 35.0702C48.182 36.0143 46.9932 36.5388 45.7344 36.5737Z" fill="#191A23"/>
<path d="M26.4687 30.6643C25.8044 26.5384 18.9512 25.5244 19.3009 30.3846C19.4058 32.0629 19.9652 33.7762 21.1191 34.965C22.2729 36.1538 24.196 36.7132 25.7345 36.0489" fill="#F5F5F5"/>
<path d="M24.2656 36.5735C23.0069 36.5385 21.7831 36.049 20.909 35.1399C19.5104 33.7064 19.0908 31.7833 19.0209 30.4197C18.846 28.077 20.2796 27.063 21.6782 26.9232C23.7412 26.6784 26.3286 28.1469 26.7132 30.6294C26.7481 30.7693 26.6433 30.9092 26.5034 30.9092C26.3635 30.9441 26.2237 30.8392 26.2237 30.6994C25.874 28.4966 23.5663 27.2029 21.7481 27.4127C20.2446 27.5875 19.4405 28.7064 19.5454 30.3847C19.6153 31.6784 19.9999 33.4966 21.2936 34.7903C22.4824 36.0141 24.2656 36.4336 25.5943 35.8043C25.7342 35.7343 25.874 35.8043 25.909 35.9092C25.9789 36.049 25.909 36.1889 25.7691 36.2238C25.3146 36.4686 24.7901 36.5735 24.2656 36.5735Z" fill="#191A23"/>
<path d="M27.3776 51.2939C27.3776 51.2939 29.2307 55.3498 34.6503 55.3498C40.0699 55.3498 42.2727 51.2939 42.2727 51.2939L41.5384 35.4197H28.1118L27.3776 51.2939Z" fill="#F5F5F5"/>
<path d="M34.6505 55.5946C29.126 55.5946 27.168 51.4337 27.133 51.3988C27.133 51.3638 27.098 51.3288 27.098 51.2939L27.8323 35.4197C27.8323 35.2799 27.9372 35.175 28.077 35.175H41.5036C41.6435 35.175 41.7484 35.2799 41.7484 35.4197L42.4826 51.2939C42.4826 51.3288 42.4826 51.3988 42.4477 51.4337C40.7694 54.0561 37.7973 55.6645 34.6505 55.5946ZM27.6225 51.2589C27.8673 51.7484 29.7204 55.1051 34.6505 55.1051C37.5875 55.175 40.3847 53.7065 41.9931 51.2589L41.2938 35.6995H28.3568L27.6225 51.2589Z" fill="#191A23"/>
<path d="M28.077 42.203C29.021 43.7065 30.5595 44.8953 32.1329 45.7694C34.7902 47.2379 38.7763 48.8813 41.993 48.3918L41.4686 41.6785C39.0909 41.9582 36.7133 41.9932 34.3357 41.7134C32.2378 41.5386 30.1049 41.3288 28.1818 40.5246C27.9021 40.4197 27.6923 41.5736 28.077 42.203Z" fill="#191A23"/>
<path d="M40.8041 48.7415C37.5524 48.7415 34.0209 47.0632 32.0629 45.9793C30.1398 44.9303 28.7762 43.7065 27.902 42.3429C27.5174 41.7485 27.5873 40.8045 27.8671 40.4548C27.972 40.3149 28.1818 40.28 28.3216 40.3499C30.2447 41.1541 32.4475 41.3639 34.4055 41.5038C36.7482 41.7835 39.1258 41.7485 41.4685 41.4688C41.5384 41.4688 41.6083 41.4688 41.6433 41.5038C41.6783 41.5387 41.7132 41.6086 41.7482 41.6786L42.2727 48.3919C42.2727 48.5317 42.2027 48.6366 42.0629 48.6366C41.6433 48.7065 41.2237 48.7415 40.8041 48.7415ZM28.2167 40.8045C28.0769 41.224 28.1118 41.6786 28.3216 42.0982C29.1258 43.3919 30.4545 44.5457 32.3076 45.5597C34.4055 46.7485 38.4265 48.6017 41.7832 48.1821L41.2936 41.9583C38.986 42.2031 36.6783 42.2031 34.3706 41.9583C32.3776 41.8184 30.1748 41.6086 28.2167 40.8045Z" fill="#191A23"/>
<path d="M34.4404 43.2867H35.5593C40.804 43.2867 45.0348 39.0559 45.0348 33.8112V18.8112C45.0348 18.8112 41.7481 19.7552 34.9998 19.7552C28.2516 19.7552 24.9648 18.8112 24.9648 18.8112V33.8112C24.9648 39.0209 29.2306 43.2867 34.4404 43.2867Z" fill="#F5F5F5"/>
<path d="M45.035 18.8112V33.8112C45.035 39.056 40.8042 43.2867 35.5594 43.2867H34.4405C29.1958 43.2867 24.965 39.056 24.965 33.8112V18.8112C24.965 18.8112 28.2517 19.7553 35 19.7553C41.7482 19.7553 45.035 18.8112 45.035 18.8112ZM24.965 18.3217C24.8601 18.3217 24.7552 18.3567 24.6503 18.4266C24.5105 18.5315 24.4406 18.6714 24.4406 18.8462V33.8462C24.4406 39.3357 28.9161 43.8112 34.4056 43.8112H35.5245C41.0489 43.8112 45.4895 39.3357 45.4895 33.8462V18.8462C45.4895 18.5665 45.2797 18.3567 45 18.3567C44.965 18.3567 44.8951 18.3567 44.8601 18.3916C44.8252 18.3916 41.5385 19.3007 34.965 19.3007C28.3916 19.3007 25.1049 18.3916 25.0699 18.3916C25.0699 18.3217 25.035 18.2867 24.965 18.3217Z" fill="#191A23"/>
<path d="M35.1399 33.9163C34.6854 33.9163 34.2308 33.8814 33.7763 33.8464C33.6014 33.8115 33.4266 33.7066 33.3217 33.5317C32.6224 32.3779 34.4756 27.4129 34.8602 26.3989C34.8951 26.259 35.07 26.1891 35.1749 26.259C35.3147 26.294 35.3847 26.4338 35.3147 26.5737C34.4756 28.7765 33.3217 32.5177 33.7413 33.252C33.7763 33.287 33.8112 33.3219 33.8112 33.3219C34.7203 33.4268 35.5944 33.4268 36.5035 33.3219C36.6434 33.3219 36.7833 33.3919 36.7833 33.5317C36.7833 33.6716 36.7133 33.8115 36.5735 33.8115C36.1189 33.8814 35.6294 33.9163 35.1399 33.9163Z" fill="#191A23"/>
<path d="M35 70C15.6643 70 0 54.3357 0 35C0 15.6643 15.6643 0 35 0C54.3357 0 70 15.6643 70 35C70 35 70 35 70 35.035C69.965 54.3357 54.3007 70 35 70ZM35 0.454544C15.9091 0.489509 0.454545 15.9441 0.454545 35.035C0.454545 54.1259 15.9091 69.5804 35 69.5804C54.0909 69.5804 69.5455 54.1259 69.5455 35.035C69.5455 15.9441 54.0909 0.489509 35 0.454544Z" fill="#191A23"/>
<path d="M34.8253 59.5457L32.2728 57.5526L34.8253 55.5946L37.3777 57.5526L34.8253 59.5457Z" fill="#F5F5F5"/>
<path d="M37.9719 69.6504C36.9928 69.7203 36.0138 69.7903 34.9998 69.7903C33.881 69.7903 32.7621 69.7553 31.6432 69.6154L33.9509 58.8462L33.9858 58.7064H35.6642L35.6991 58.8462L37.9719 69.6504Z" fill="#F5F5F5"/>
<path d="M51.5036 65.8045H51.4686C51.3288 65.7695 51.2239 65.6646 51.2589 65.5248L52.4477 56.4688C52.4826 56.329 52.5875 56.2241 52.7274 56.259C52.8672 56.294 52.9721 56.3989 52.9372 56.5388L51.7484 65.5947C51.7134 65.6996 51.6085 65.8045 51.5036 65.8045Z" fill="#191A23"/>
<path d="M18.4964 65.8044C18.3565 65.8044 18.2516 65.6995 18.2516 65.5946L17.0628 56.5736C17.0278 56.4338 17.1327 56.2939 17.2726 56.2939C17.4125 56.2589 17.5523 56.3638 17.5523 56.5037L18.7411 65.5596C18.7411 65.6995 18.6712 65.8044 18.5313 65.8393H18.4964V65.8044Z" fill="#191A23"/>
</svg>
