<svg width="70" height="70" viewBox="0 0 70 70" fill="none" xmlns="http://www.w3.org/2000/svg">
<path d="M48.5313 25.3148C48.5313 33.8812 69.755 67.4476 34.9999 67.4476C0.244719 67.4476 21.4684 33.8812 21.4684 25.3148C21.4684 16.7484 22.0279 9.79041 34.9999 9.79041C47.9719 9.79041 48.5313 16.7484 48.5313 25.3148Z" fill="#F5F5F5"/>
<path d="M35.0001 67.6917C26.2939 67.6917 20.3498 65.5589 17.3079 61.3281C12.168 54.1953 16.0841 42.5519 18.9162 34.0555C20.14 30.3841 21.2239 27.2023 21.2239 25.3142C21.2239 16.0835 22.203 9.54504 35.0001 9.54504C47.7973 9.54504 48.8113 16.0835 48.8113 25.3142C48.8113 27.2023 49.8602 30.3841 51.119 34.0555C53.9511 42.5519 57.8672 54.1953 52.7274 61.3281C49.6504 65.5589 43.7064 67.6917 35.0001 67.6917ZM35.0001 10.0346C22.6225 10.0346 21.7134 16.0835 21.7134 25.3142C21.7134 27.2723 20.6295 30.489 19.3708 34.2303C16.5736 42.6219 12.7275 54.1253 17.6925 61.0484C20.6645 65.1393 26.4687 67.2022 35.0001 67.2022C43.5316 67.2022 49.3358 65.1393 52.3078 61.0484C57.3078 54.1253 53.4267 42.6219 50.6295 34.2303C49.3707 30.489 48.2868 27.2723 48.2868 25.3142C48.2868 16.0835 47.3777 10.0695 35.0001 10.0346Z" fill="#191A23"/>
<path d="M62.2029 56.6782C56.4337 63.9159 48.0421 68.5662 38.8463 69.5802C36.2939 69.8599 33.7414 69.8599 31.189 69.5802C21.9932 68.5662 13.5666 63.9159 7.8324 56.6782C12.0282 53.7761 17.4827 50.6991 23.6715 48.881C31.0841 46.5733 38.9862 46.5733 46.3987 48.881C52.5526 50.7341 58.0071 53.7761 62.2029 56.6782Z" fill="#B9FF66"/>
<path d="M28.7062 47.4475C28.7062 47.4125 21.4685 49.0209 21.5734 49.5454C21.6783 50.0698 29.6153 65.5593 30.0699 65.5593C30.5244 65.5593 34.9999 62.832 34.9999 62.832L28.7062 47.4475Z" fill="#F5F5F5"/>
<path d="M30.0699 65.8041C29.8601 65.8041 29.6154 65.8041 25.4545 57.8321C23.7762 54.6154 21.3986 49.9301 21.2937 49.5804C21.2587 49.4406 21.3287 49.3007 21.4685 49.1958C21.993 48.7762 28.4615 47.028 28.8112 47.2028C28.8811 47.2378 28.9161 47.2727 28.9161 47.3427L35.2098 62.7272C35.2447 62.8321 35.2097 62.972 35.1049 63.0419C33.7762 63.8811 30.5244 65.8041 30.0699 65.8041ZM21.8531 49.5804C22.4825 51.0839 29.1958 64.1608 30.1398 65.2797C30.6293 65.1048 32.7272 63.916 34.6853 62.7272L28.5314 47.7273C27.4475 47.972 22.5874 49.1259 21.8531 49.5804Z" fill="#191A23"/>
<path d="M41.1188 47.4475C41.1188 47.4125 48.3565 49.0209 48.2516 49.5454C48.1467 50.0698 40.2097 65.5593 39.7551 65.5593C39.3006 65.5593 34.8251 62.832 34.8251 62.832L41.1188 47.4475Z" fill="#F5F5F5"/>
<path d="M39.7553 65.8041C39.2658 65.8041 36.049 63.8811 34.6854 63.0419C34.5805 62.972 34.5455 62.8321 34.5805 62.7272L40.8742 47.3427C40.9091 47.2727 40.9441 47.2378 40.9791 47.2028C41.3287 47.028 47.7623 48.7762 48.3217 49.1958C48.4616 49.2657 48.4965 49.4056 48.4965 49.5804C48.4266 49.9301 46.049 54.6154 44.3357 57.8321C40.2099 65.8041 39.9651 65.8041 39.7553 65.8041ZM35.1399 62.7272C37.063 63.916 39.1609 65.1048 39.6854 65.2797C40.6294 64.1608 47.3427 51.0839 47.9721 49.5804C47.2378 49.1259 42.3777 47.972 41.2938 47.7273L35.1399 62.7272Z" fill="#191A23"/>
<path d="M42.2378 51.2934L35 62.8318L27.3777 51.2934C30.9441 50.2444 38.6714 50.2444 42.2378 51.2934Z" fill="#191A23"/>
<path d="M43.5314 30.6643C44.1957 26.5384 51.0488 25.5244 50.6992 30.3845C50.5943 32.0629 50.0349 33.7762 48.881 34.965C47.7272 36.1538 45.8041 36.7132 44.2656 36.0489" fill="#F5F5F5"/>
<path d="M45.7345 36.5735C45.21 36.5735 44.6855 36.4686 44.196 36.2588C44.0561 36.1889 44.0212 36.049 44.0562 35.9441C44.1261 35.8042 44.2659 35.7693 44.3708 35.8042C45.7345 36.3986 47.5177 35.9791 48.7065 34.7903C50.0002 33.4616 50.3848 31.6784 50.4547 30.3847C50.5596 28.7064 49.7554 27.5875 48.2519 27.4127C46.4338 27.2029 44.1261 28.4966 43.7764 30.6994C43.7415 30.8392 43.6366 30.9441 43.4967 30.9092C43.3568 30.8742 43.252 30.7693 43.2869 30.6294C43.6715 28.1469 46.2589 26.6784 48.3219 26.9232C49.7205 27.063 51.1191 28.077 50.9792 30.4196C50.8743 31.7833 50.4897 33.7413 49.0911 35.1399C48.182 36.014 46.9932 36.5385 45.7345 36.5735Z" fill="#191A23"/>
<path d="M26.4335 30.6643C25.7692 26.5384 18.9161 25.5244 19.2657 30.3845C19.3706 32.0629 19.9301 33.7762 21.0839 34.965C22.2378 36.1538 24.1608 36.7132 25.6993 36.0489" fill="#F5F5F5"/>
<path d="M24.2657 36.5735C23.007 36.5385 21.7832 36.014 20.9091 35.1399C19.5105 33.7063 19.0909 31.7833 19.021 30.4196C18.8462 28.077 20.2797 27.063 21.6783 26.9232C23.7413 26.6784 26.3287 28.1469 26.7133 30.6294C26.7482 30.7693 26.6434 30.9092 26.5035 30.9092C26.3636 30.9441 26.2238 30.8392 26.2238 30.6994C25.8741 28.4966 23.5664 27.2029 21.7483 27.4127C20.2448 27.5875 19.4406 28.7064 19.5455 30.3847C19.6504 31.6784 20 33.4966 21.2937 34.7903C22.4825 36.014 24.2657 36.4336 25.6294 35.8042C25.7692 35.7343 25.9091 35.8042 25.979 35.9441C26.049 36.084 25.979 36.2238 25.8392 36.2938C25.3147 36.4686 24.7902 36.5735 24.2657 36.5735Z" fill="#191A23"/>
<path d="M27.3777 51.2938C27.3777 51.2938 29.2308 55.3498 34.6504 55.3498C38.986 55.3498 42.2727 51.2938 42.2727 51.2938L41.5385 35.4197H28.1119L27.3777 51.2938Z" fill="#F5F5F5"/>
<path d="M34.6506 55.5945C29.1261 55.5945 27.1681 51.4337 27.1331 51.3987C27.1331 51.3638 27.0981 51.3288 27.0981 51.2938L27.8324 35.4197C27.8324 35.2799 27.9373 35.175 28.0772 35.175H41.5037C41.6436 35.175 41.7485 35.2799 41.7485 35.4197L42.4827 51.2938C42.4827 51.3638 42.4827 51.4337 42.4128 51.4687C42.3079 51.6435 39.0212 55.5945 34.6506 55.5945ZM27.6226 51.2589C27.8674 51.7484 29.7205 55.105 34.6506 55.105C38.4967 55.105 41.5387 51.7484 41.9932 51.2239L41.2939 35.6995H28.3219L27.6226 51.2589Z" fill="#191A23"/>
<path d="M28.0769 42.203C29.021 43.7064 30.5594 44.8953 32.1329 45.7694C34.7902 47.2379 38.7762 48.8813 41.993 48.3917L41.4685 41.6785C39.0909 41.9582 36.7133 41.9932 34.3357 41.7134C32.2378 41.5386 30.1049 41.3288 28.1818 40.5246C27.9021 40.4197 27.6573 41.5736 28.0769 42.203Z" fill="#191A23"/>
<path d="M40.7694 48.7408C37.5177 48.7408 33.9862 47.0625 32.0282 45.9786C30.0702 44.8947 28.7065 43.7059 27.8674 42.3422C27.4828 41.7478 27.5527 40.8038 27.8324 40.4541C27.9373 40.3143 28.1471 40.2793 28.2869 40.3492C30.21 41.1534 32.4128 41.3632 34.3708 41.5031C36.7135 41.7828 39.0911 41.7478 41.4338 41.4681C41.5037 41.4681 41.5736 41.4681 41.6086 41.5031C41.6785 41.538 41.6785 41.608 41.7135 41.6779L42.238 48.3912C42.238 48.531 42.168 48.6359 42.0282 48.6359C41.6436 48.7059 41.224 48.7408 40.7694 48.7408ZM28.182 40.8038C28.0422 41.2234 28.0771 41.6779 28.2869 42.0975C29.0911 43.3912 30.4198 44.545 32.273 45.559C34.4058 46.7478 38.3918 48.601 41.7484 48.1814L41.2589 41.9576C38.9513 42.2024 36.6436 42.2024 34.3359 41.9576C32.3778 41.8178 30.1751 41.608 28.182 40.8038Z" fill="#191A23"/>
<path d="M35.1398 33.9163C34.6852 33.9163 34.2307 33.8814 33.7761 33.8464C33.6013 33.8114 33.4265 33.7065 33.3216 33.5317C32.6223 32.3779 34.4754 27.4128 34.86 26.3989C34.895 26.259 35.0698 26.1891 35.1747 26.259C35.3146 26.294 35.3845 26.4688 35.3146 26.5737C34.4754 28.7765 33.3216 32.5177 33.7412 33.252C33.7412 33.287 33.7761 33.3219 33.8111 33.3219C34.7202 33.4268 35.5943 33.4268 36.5034 33.3219C36.6433 33.287 36.7482 33.3918 36.7831 33.5317C36.8181 33.6716 36.7132 33.8114 36.5733 33.8114C36.1188 33.8814 35.6293 33.9163 35.1398 33.9163Z" fill="#191A23"/>
<path d="M45.0349 22.9022V33.8112C45.0349 39.056 40.8041 43.2867 35.5594 43.2867H34.4405C29.1957 43.2867 24.965 39.056 24.965 33.8112V23.4616L30.909 22.9721L31.6083 18.2518L33.1118 23.6015L37.3426 23.042C37.7621 21.1539 37.3426 17.063 37.2726 16.8882L40.3146 22.6224L45.0349 22.9022Z" fill="#F5F5F5"/>
<path d="M35.5593 43.5316H34.4405C29.0559 43.5316 24.7202 39.196 24.7202 33.8114V23.4618C24.7202 23.3219 24.8251 23.217 24.965 23.217L30.7342 22.7275L31.3985 18.1821C31.3985 18.0772 31.5034 17.9723 31.6433 17.9723C31.7482 17.9723 31.888 18.0422 31.888 18.1471L33.3216 23.2869L37.1677 22.7974C37.5174 20.9093 37.0978 17.1331 37.0628 16.9233C37.0279 16.7835 37.0978 16.6786 37.2377 16.6436C37.3426 16.6086 37.4824 16.6436 37.5523 16.7485L40.5244 22.3429L45.0698 22.6576C45.2097 22.6576 45.3146 22.7625 45.3146 22.9023V33.8114C45.2796 39.161 40.9439 43.5316 35.5593 43.5316ZM25.2097 23.7065V33.8114C25.2097 38.9163 29.3356 43.0072 34.4405 43.0421H35.5593C40.6293 43.0421 44.7551 38.9163 44.7901 33.8114V23.1471L40.3495 22.8324C40.2446 22.8324 40.1747 22.7625 40.1398 22.6925L37.6922 18.1121C37.7971 19.5457 37.902 21.7835 37.6223 23.0772C37.5873 23.1821 37.5174 23.252 37.4125 23.2869L33.1817 23.8464C33.0419 23.8814 32.937 23.7765 32.902 23.6716L31.7132 19.4758L31.1887 23.0072C31.1887 23.1121 31.0838 23.217 30.944 23.217L25.2097 23.7065Z" fill="#191A23"/>
<path d="M35 69.9998C15.6644 69.9998 0.00012207 54.3355 0.00012207 34.9999C0.00012207 15.6643 15.6644 0 35 0C54.3356 0 69.9999 15.6643 69.9999 34.9999C69.9999 42.9369 67.3076 50.5943 62.3776 56.818C55.7342 65.1746 45.6643 70.0348 35 69.9998ZM35 0.454543C15.9441 0.489508 0.489638 15.944 0.454673 34.9999C0.454673 54.0908 15.9092 69.5453 35 69.5453C54.0909 69.5453 69.5454 54.0908 69.5454 34.9999C69.5104 15.944 54.0559 0.489508 35 0.454543Z" fill="#191A23"/>
<path d="M51.5033 65.8038C51.3285 65.8038 51.2236 65.6639 51.2585 65.5241L52.4473 56.4681C52.4823 56.3283 52.5872 56.2234 52.7271 56.2584C52.8669 56.2933 52.9718 56.3982 52.9368 56.5381L51.748 65.594C51.7131 65.6989 51.6082 65.8038 51.5033 65.8038Z" fill="#191A23"/>
<path d="M18.4965 65.8038C18.3567 65.8038 18.2518 65.6989 18.2518 65.5941L17.063 56.5381C17.063 56.3983 17.1679 56.2934 17.3077 56.2584C17.4476 56.2584 17.5525 56.3283 17.5525 56.4682L18.7413 65.5241C18.7763 65.664 18.6714 65.8038 18.5315 65.8038H18.4965Z" fill="#191A23"/>
</svg>
