<svg width="70" height="70" viewBox="0 0 70 70" fill="none" xmlns="http://www.w3.org/2000/svg">
<path d="M59.0801 60.0598C45.5001 72.7998 30.9401 69.4398 28.0001 69.0198C18.6201 66.7798 15.4001 63.5598 18.0601 65.5198C11.9841 61.5998 6.58014 56.1398 3.64014 49.9798C6.16014 48.2998 7.16814 47.3198 12.1241 45.8638C15.0641 44.9678 18.1161 44.4918 21.1961 44.4918C24.2761 44.5198 27.3561 44.9678 30.2961 45.8638C35.2521 47.3478 55.7201 57.7358 59.0801 60.0598Z" fill="#B9FF66"/>
<path d="M26.9921 47.796L24.2761 62.44C24.0521 62.468 23.8281 62.496 23.6041 62.496C22.8201 62.552 22.0361 62.608 21.2241 62.608C20.3281 62.608 19.4321 62.58 18.5361 62.468L18.1721 62.44L15.1201 47.796C17.9481 46.956 24.1361 46.956 26.9921 47.796Z" fill="#191A23"/>
<path d="M21.1959 39.4239C27.1804 39.4239 32.0319 33.8579 32.0319 26.9919C32.0319 20.1259 27.1804 14.5599 21.1959 14.5599C15.2113 14.5599 10.3599 20.1259 10.3599 26.9919C10.3599 33.8579 15.2113 39.4239 21.1959 39.4239Z" fill="#F5F5F5"/>
<path d="M21.1961 39.6197C15.0921 39.6197 10.1641 33.9637 10.1641 26.9917C10.1641 19.5997 10.9481 14.3637 21.1961 14.3637C31.4441 14.3637 32.2281 19.5997 32.2281 26.9917C32.2281 33.9637 27.3001 39.6197 21.1961 39.6197ZM21.1961 14.7557C11.3121 14.7557 10.5561 19.5997 10.5561 26.9917C10.5561 33.7397 15.3161 39.2277 21.1961 39.2277C27.0761 39.2277 31.8361 33.7397 31.8361 26.9917C31.8361 19.5997 31.1081 14.7837 21.1961 14.7557Z" fill="#191A23"/>
<path d="M28.0281 31.2763C28.5601 27.9723 34.0481 27.1603 33.7681 31.0523C33.6841 32.3963 33.2361 33.7683 32.3121 34.7203C31.3881 35.6723 29.8481 36.1203 28.6161 35.5883" fill="#F5F5F5"/>
<path d="M29.7918 36.0083C29.3718 36.0083 28.9518 35.9243 28.5598 35.7563C28.4478 35.7003 28.4198 35.5883 28.4478 35.4763C28.4758 35.3643 28.6158 35.3363 28.7278 35.3643C29.8198 35.8403 31.2198 35.5043 32.1998 34.5523C33.2358 33.4883 33.5438 32.0603 33.5998 31.0243C33.6838 29.6803 33.0398 28.7843 31.8358 28.6443C30.3798 28.4763 28.5318 29.5123 28.2518 31.2763C28.2238 31.3883 28.1118 31.4443 27.9998 31.4163C27.8878 31.3883 27.8318 31.3043 27.8318 31.1923C28.1398 29.2043 30.2118 28.0283 31.8638 28.2243C32.9838 28.3363 34.1038 29.1483 33.9918 31.0243C33.9078 32.1163 33.5998 33.6843 32.4798 34.8043C31.7518 35.5603 30.7998 35.9803 29.7918 36.0083Z" fill="#191A23"/>
<path d="M14.3644 31.2763C13.8324 27.9723 8.34437 27.1603 8.62437 31.0523C8.70837 32.3963 9.15637 33.7683 10.0804 34.7203C11.0044 35.6723 12.5444 36.1203 13.7764 35.5883" fill="#F5F5F5"/>
<path d="M12.6001 36.0077C11.5921 35.9797 10.6121 35.5877 9.91206 34.8597C8.79206 33.7117 8.45606 32.1717 8.40006 31.0797C8.26006 29.2037 9.40806 28.3917 10.5281 28.2797C12.1801 28.0837 14.2521 29.2597 14.5601 31.2477C14.5881 31.3597 14.5041 31.4717 14.3921 31.4717C14.2801 31.4997 14.1681 31.4157 14.1681 31.3037C13.8881 29.5397 12.0401 28.5037 10.5841 28.6717C9.38006 28.8117 8.73606 29.7077 8.82006 31.0517C8.87606 32.0877 9.18406 33.5437 10.2201 34.5797C11.1721 35.5597 12.6001 35.8957 13.6641 35.3917C13.7761 35.3357 13.8881 35.3917 13.9161 35.4757C13.9721 35.5877 13.9161 35.6997 13.8041 35.7277C13.4401 35.9237 13.0201 36.0077 12.6001 36.0077Z" fill="#191A23"/>
<path d="M15.092 47.7962C15.092 47.7962 16.576 51.0442 20.916 51.0442C25.256 51.0442 27.02 47.7962 27.02 47.7962L26.432 35.0842H15.68L15.092 47.7962Z" fill="#F5F5F5"/>
<path d="M20.9162 51.2399C16.4922 51.2399 14.9242 47.9079 14.8962 47.8799C14.8962 47.8519 14.8682 47.8239 14.8682 47.7959L15.4562 35.0839C15.4562 34.9719 15.5402 34.8879 15.6522 34.8879H26.4042C26.5162 34.8879 26.6002 34.9719 26.6002 35.0839L27.1882 47.7959C27.1882 47.8239 27.1882 47.8799 27.1602 47.9079C25.8162 50.0079 23.4362 51.2959 20.9162 51.2399ZM15.2882 47.7679C15.4842 48.1599 16.9682 50.8479 20.9162 50.8479C23.2682 50.9039 25.5082 49.7279 26.7962 47.7679L26.2362 35.3079H15.8762L15.2882 47.7679Z" fill="#191A23"/>
<path d="M15.6522 40.5159C16.4082 41.7199 17.6402 42.6719 18.9002 43.3719C21.0282 44.5479 24.2202 45.8639 26.7962 45.4719L26.3762 40.0959C24.4722 40.3199 22.5682 40.3479 20.6642 40.1239C18.9842 39.9839 17.2762 39.8159 15.7362 39.1719C15.5122 39.0879 15.3442 40.0119 15.6522 40.5159Z" fill="#191A23"/>
<path d="M25.8437 45.7518C23.2397 45.7518 20.4117 44.4078 18.8437 43.5398C17.3037 42.6998 16.2117 41.7198 15.5117 40.6278C15.2037 40.1518 15.2597 39.3958 15.4837 39.1158C15.5677 39.0038 15.7357 38.9758 15.8477 39.0318C17.3877 39.6758 19.1517 39.8438 20.7197 39.9558C22.5957 40.1798 24.4997 40.1518 26.3757 39.9278C26.4317 39.9278 26.4877 39.9278 26.5157 39.9558C26.5437 39.9838 26.5717 40.0398 26.5997 40.0958L27.0197 45.4718C27.0197 45.5838 26.9637 45.6678 26.8517 45.6678C26.5157 45.7238 26.1797 45.7518 25.8437 45.7518ZM15.7637 39.3958C15.6517 39.7318 15.6797 40.0958 15.8477 40.4318C16.4917 41.4678 17.5557 42.3918 19.0397 43.2038C20.7197 44.1558 23.9397 45.6398 26.6277 45.3038L26.2357 40.3198C24.3877 40.5158 22.5397 40.5158 20.6917 40.3198C19.0957 40.2078 17.3317 40.0398 15.7637 39.3958Z" fill="#191A23"/>
<path d="M20.7479 41.3841H21.6439C25.8439 41.3841 29.2319 37.9961 29.2319 33.7961V21.7841C29.2319 21.7841 26.5999 22.5401 21.1959 22.5401C15.7919 22.5401 13.1599 21.7841 13.1599 21.7841V33.7961C13.1599 37.9681 16.5759 41.3841 20.7479 41.3841Z" fill="#F5F5F5"/>
<path d="M29.2317 21.7838V33.7958C29.2317 37.9958 25.8437 41.3838 21.6437 41.3838H20.7477C16.5477 41.3838 13.1597 37.9958 13.1597 33.7958V21.7838C13.1597 21.7838 15.7917 22.5398 21.1957 22.5398C26.5997 22.5398 29.2317 21.7838 29.2317 21.7838ZM13.1597 21.3918C13.0757 21.3918 12.9917 21.4198 12.9077 21.4758C12.7957 21.5598 12.7397 21.6718 12.7397 21.8118V33.8238C12.7397 38.2198 16.3237 41.8038 20.7197 41.8038H21.6157C26.0397 41.8038 29.5957 38.2198 29.5957 33.8238V21.8118C29.5957 21.5878 29.4277 21.4198 29.2037 21.4198C29.1757 21.4198 29.1197 21.4198 29.0917 21.4478C29.0637 21.4478 26.4317 22.1758 21.1677 22.1758C15.9037 22.1758 13.2717 21.4478 13.2437 21.4478C13.2437 21.3918 13.2157 21.3638 13.1597 21.3918Z" fill="#191A23"/>
<path d="M21.3079 33.8799C20.9439 33.8799 20.5799 33.8519 20.2159 33.8239C20.0759 33.7959 19.9359 33.7119 19.8519 33.5719C19.2919 32.6479 20.7759 28.6719 21.0839 27.8599C21.1119 27.7479 21.2519 27.6919 21.3359 27.7479C21.4479 27.7759 21.5039 27.8879 21.4479 27.9999C20.7759 29.7639 19.8519 32.7599 20.1879 33.3479C20.2159 33.3759 20.2439 33.4039 20.2439 33.4039C20.9719 33.4879 21.6719 33.4879 22.3999 33.4039C22.5119 33.4039 22.6239 33.4599 22.6239 33.5719C22.6239 33.6839 22.5679 33.7959 22.4559 33.7959C22.0919 33.8519 21.6999 33.8799 21.3079 33.8799Z" fill="#191A23"/>
<path d="M21.0557 54.4042L19.0117 52.8082L21.0557 51.2402L23.0997 52.8082L21.0557 54.4042Z" fill="#F5F5F5"/>
<path d="M23.5756 62.4959C22.7916 62.5519 22.0076 62.6079 21.1956 62.6079C20.2996 62.6079 19.4036 62.5799 18.5076 62.4679L20.3556 53.8439L20.3836 53.7319H21.7276L21.7556 53.8439L23.5756 62.4959Z" fill="#F5F5F5"/>
<path d="M59.6367 27.1293C59.6367 33.9102 76.32 60.4805 49.0001 60.4805C21.6802 60.4805 38.3634 33.9102 38.3634 27.1293C38.3634 20.3483 38.8032 14.8405 49.0001 14.8405C59.1969 14.8405 59.6367 20.3483 59.6367 27.1293Z" fill="#F5F5F5"/>
<path d="M49.1965 60.7325C42.2245 60.7325 37.4645 59.0245 35.0285 55.6365C30.9125 49.9245 34.0485 40.6005 36.3165 33.7965C37.2965 30.8565 38.1645 28.3085 38.1645 26.7965C38.1645 19.4045 38.9485 14.1685 49.1965 14.1685C59.4445 14.1685 60.2565 19.4045 60.2565 26.7965C60.2565 28.3085 61.0965 30.8565 62.1045 33.7965C64.3725 40.6005 67.5085 49.9245 63.3925 55.6365C60.9285 59.0245 56.1685 60.7325 49.1965 60.7325ZM49.1965 14.5605C39.2845 14.5605 38.5565 19.4045 38.5565 26.7965C38.5565 28.3645 37.6885 30.9405 36.6805 33.9365C34.4405 40.6565 31.3605 49.8685 35.3365 55.4125C37.7165 58.6885 42.3645 60.3405 49.1965 60.3405C56.0285 60.3405 60.0605 58.9125 62.4405 55.6365C66.4445 50.0925 63.9525 40.6565 61.7125 33.9365C60.7045 30.9405 59.8365 28.3645 59.8365 26.7965C59.8365 19.4045 59.1085 14.5885 49.1965 14.5605Z" fill="#191A23"/>
<path d="M66.7802 49.5606C63.4202 55.5806 59.6402 61.8246 52.2762 62.6366C50.2322 62.8606 48.1882 62.8606 46.1442 62.6366C38.7802 61.8246 32.0322 58.1006 27.4402 52.3046C30.8002 49.9806 35.1682 47.5166 40.1242 46.0606C46.0602 44.2126 52.3882 44.2126 58.3242 46.0606C63.2522 47.5446 65.6602 48.3006 66.7802 49.5606Z" fill="#B9FF66"/>
<path d="M44.1558 44.9123C44.1558 44.8843 38.3598 46.1723 38.4438 46.5923C38.5278 47.0123 44.8838 59.4163 45.2478 59.4163C45.6118 59.4163 49.1958 57.2323 49.1958 57.2323L44.1558 44.9123Z" fill="#F5F5F5"/>
<path d="M45.248 59.6125C45.08 59.6125 44.884 59.6125 41.552 53.2285C40.208 50.6525 38.304 46.9005 38.22 46.6205C38.192 46.5085 38.248 46.3965 38.36 46.3125C38.78 45.9765 43.96 44.5765 44.24 44.7165C44.296 44.7445 44.324 44.7725 44.324 44.8285L49.364 57.1485C49.392 57.2325 49.364 57.3445 49.28 57.4005C48.216 58.0725 45.612 59.6125 45.248 59.6125ZM38.668 46.6205C39.172 47.8245 44.548 58.2965 45.304 59.1925C45.696 59.0525 47.376 58.1005 48.944 57.1485L44.016 45.1365C43.148 45.3325 39.256 46.2565 38.668 46.6205Z" fill="#191A23"/>
<path d="M54.0957 44.9123C54.0957 44.8843 59.8917 46.1723 59.8077 46.5923C59.7237 47.0123 53.3677 59.4163 53.0037 59.4163C52.6397 59.4163 49.0557 57.2323 49.0557 57.2323L54.0957 44.9123Z" fill="#F5F5F5"/>
<path d="M53.0041 59.6125C52.6121 59.6125 50.0361 58.0725 48.9441 57.4005C48.8601 57.3445 48.8321 57.2325 48.8601 57.1485L53.9001 44.8285C53.9281 44.7725 53.9561 44.7445 53.9841 44.7165C54.2641 44.5765 59.4161 45.9765 59.8641 46.3125C59.9761 46.3685 60.0041 46.4805 60.0041 46.6205C59.9481 46.9005 58.0441 50.6525 56.6721 53.2285C53.3681 59.6125 53.1721 59.6125 53.0041 59.6125ZM49.3081 57.1485C50.8481 58.1005 52.5281 59.0525 52.9481 59.1925C53.7041 58.2965 59.0801 47.8245 59.5841 46.6205C58.9961 46.2565 55.1041 45.3325 54.2361 45.1365L49.3081 57.1485Z" fill="#191A23"/>
<path d="M54.992 47.9925L49.196 57.2325L43.092 47.9925C45.948 47.1525 52.136 47.1525 54.992 47.9925Z" fill="#191A23"/>
<path d="M56.0281 31.4721C56.5601 28.1681 62.0481 27.3561 61.7681 31.2481C61.6841 32.5921 61.2361 33.9641 60.3121 34.9161C59.3881 35.8681 57.8481 36.3161 56.6161 35.7841" fill="#F5F5F5"/>
<path d="M57.7921 36.2042C57.3721 36.2042 56.9521 36.1202 56.5601 35.9522C56.4481 35.8962 56.4201 35.7842 56.4481 35.7002C56.5041 35.5882 56.6161 35.5602 56.7001 35.5882C57.7921 36.0642 59.2201 35.7282 60.1721 34.7762C61.2081 33.7122 61.5161 32.2842 61.5721 31.2482C61.6561 29.9042 61.0121 29.0082 59.8081 28.8682C58.3521 28.7002 56.5041 29.7362 56.2241 31.5002C56.1961 31.6122 56.1121 31.6962 56.0001 31.6682C55.8881 31.6402 55.8041 31.5562 55.8321 31.4442C56.1401 29.4562 58.2121 28.2802 59.8641 28.4762C60.9841 28.5882 62.1041 29.4002 61.9921 31.2762C61.9081 32.3682 61.6001 33.9362 60.4801 35.0562C59.7521 35.7562 58.8001 36.1762 57.7921 36.2042Z" fill="#191A23"/>
<path d="M42.3356 31.4721C41.8036 28.1681 36.3156 27.3561 36.5956 31.2481C36.6796 32.5921 37.1276 33.9641 38.0516 34.9161C38.9756 35.8681 40.5156 36.3161 41.7476 35.7841" fill="#F5F5F5"/>
<path d="M40.6001 36.2042C39.5921 36.1762 38.6121 35.7562 37.9121 35.0562C36.7921 33.9082 36.4561 32.3682 36.4001 31.2762C36.2601 29.4002 37.4081 28.5882 38.5281 28.4762C40.1801 28.2802 42.2521 29.4562 42.5601 31.4442C42.5881 31.5562 42.5041 31.6682 42.3921 31.6682C42.2801 31.6962 42.1681 31.6122 42.1681 31.5002C41.8881 29.7362 40.0401 28.7002 38.5841 28.8682C37.3801 29.0082 36.7361 29.9042 36.8201 31.2482C36.9041 32.2842 37.1841 33.7402 38.2201 34.7762C39.1721 35.7562 40.6001 36.0922 41.6921 35.5882C41.8041 35.5322 41.9161 35.5882 41.9721 35.7002C42.0281 35.8122 41.9721 35.9242 41.8601 35.9802C41.4401 36.1202 41.0201 36.2042 40.6001 36.2042Z" fill="#191A23"/>
<path d="M43.092 47.9926C43.092 47.9926 44.576 51.2406 48.916 51.2406C52.388 51.2406 55.02 47.9926 55.02 47.9926L54.432 35.2806H43.68L43.092 47.9926Z" fill="#F5F5F5"/>
<path d="M48.9162 51.4365C44.4922 51.4365 42.9242 48.1045 42.8962 48.0765C42.8962 48.0485 42.8682 48.0205 42.8682 47.9925L43.4562 35.2805C43.4562 35.1685 43.5402 35.0845 43.6522 35.0845H54.4042C54.5162 35.0845 54.6002 35.1685 54.6002 35.2805L55.1882 47.9925C55.1882 48.0485 55.1882 48.1045 55.1322 48.1325C55.0482 48.2725 52.4162 51.4365 48.9162 51.4365ZM43.2882 47.9645C43.4842 48.3565 44.9682 51.0445 48.9162 51.0445C51.9962 51.0445 54.4322 48.3565 54.7962 47.9365L54.2362 35.5045H43.8482L43.2882 47.9645Z" fill="#191A23"/>
<path d="M43.6524 40.7124C44.4084 41.9164 45.6404 42.8684 46.9004 43.5684C49.0284 44.7444 52.2204 46.0604 54.7964 45.6684L54.3764 40.2924C52.4724 40.5164 50.5684 40.5444 48.6644 40.3204C46.9844 40.1804 45.2764 40.0124 43.7364 39.3684C43.5124 39.2844 43.3164 40.2084 43.6524 40.7124Z" fill="#191A23"/>
<path d="M53.8161 45.9484C51.2121 45.9484 48.3841 44.6044 46.8161 43.7364C45.2481 42.8684 44.1561 41.9164 43.4841 40.8244C43.1761 40.3484 43.2321 39.5924 43.4561 39.3124C43.5401 39.2004 43.7081 39.1724 43.8201 39.2284C45.3601 39.8724 47.1241 40.0404 48.6921 40.1524C50.5681 40.3764 52.4721 40.3484 54.3481 40.1244C54.4041 40.1244 54.4601 40.1244 54.4881 40.1524C54.5441 40.1804 54.5441 40.2364 54.5721 40.2924L54.9921 45.6684C54.9921 45.7804 54.9361 45.8644 54.8241 45.8644C54.5161 45.9204 54.1801 45.9484 53.8161 45.9484ZM43.7361 39.5924C43.6241 39.9284 43.6521 40.2924 43.8201 40.6284C44.4641 41.6644 45.5281 42.5884 47.0121 43.4004C48.7201 44.3524 51.9121 45.8364 54.6001 45.5004L54.2081 40.5164C52.3601 40.7124 50.5121 40.7124 48.6641 40.5164C47.0961 40.4044 45.3321 40.2364 43.7361 39.5924Z" fill="#191A23"/>
<path d="M49.3079 34.0764C48.9439 34.0764 48.5799 34.0484 48.2159 34.0204C48.0759 33.9924 47.9359 33.9084 47.8519 33.7684C47.2919 32.8444 48.7759 28.8684 49.0839 28.0564C49.1119 27.9444 49.2519 27.8884 49.3359 27.9444C49.4479 27.9724 49.5039 28.1124 49.4479 28.1964C48.7759 29.9604 47.8519 32.9564 48.1879 33.5444C48.1879 33.5724 48.2159 33.6004 48.2439 33.6004C48.9719 33.6844 49.6719 33.6844 50.3999 33.6004C50.5119 33.5724 50.5959 33.6564 50.6239 33.7684C50.6519 33.8804 50.5679 33.9924 50.4559 33.9924C50.0919 34.0484 49.6999 34.0764 49.3079 34.0764Z" fill="#191A23"/>
<path d="M57.2319 25.2565V33.9925C57.2319 38.1925 53.8439 41.5805 49.6439 41.5805H48.7479C44.5479 41.5805 41.1599 38.1925 41.1599 33.9925V25.7045L45.9199 25.3125L46.4799 21.5325L47.6839 25.8165L51.0719 25.3685C51.4079 23.8565 51.0719 20.5805 51.0159 20.4405L53.4519 25.0325L57.2319 25.2565Z" fill="#F5F5F5"/>
<path d="M49.6436 41.7766H48.7476C44.4356 41.7766 40.9636 38.3046 40.9636 33.9926V25.7046C40.9636 25.5926 41.0476 25.5086 41.1596 25.5086L45.7796 25.1166L46.3116 21.4766C46.3116 21.3926 46.3956 21.3086 46.5076 21.3086C46.5916 21.3086 46.7036 21.3646 46.7036 21.4486L47.8516 25.5646L50.9316 25.1726C51.2116 23.6606 50.8756 20.6366 50.8476 20.4686C50.8196 20.3566 50.8756 20.2726 50.9876 20.2446C51.0716 20.2166 51.1836 20.2446 51.2396 20.3286L53.6196 24.8086L57.2596 25.0606C57.3716 25.0606 57.4556 25.1446 57.4556 25.2566V33.9926C57.4276 38.2766 53.9556 41.7766 49.6436 41.7766ZM41.3556 25.9006V33.9926C41.3556 38.0806 44.6596 41.3566 48.7476 41.3846H49.6436C53.7036 41.3846 57.0076 38.0806 57.0356 33.9926V25.4526L53.4796 25.2006C53.3956 25.2006 53.3396 25.1446 53.3116 25.0886L51.3516 21.4206C51.4356 22.5686 51.5196 24.3606 51.2956 25.3966C51.2676 25.4806 51.2116 25.5366 51.1276 25.5646L47.7396 26.0126C47.6276 26.0406 47.5436 25.9566 47.5156 25.8726L46.5636 22.5126L46.1436 25.3406C46.1436 25.4246 46.0596 25.5086 45.9476 25.5086L41.3556 25.9006Z" fill="#191A23"/>
<path d="M35 70C15.6643 70 0 54.3357 0 35C0 15.6643 15.6643 0 35 0C54.3357 0 70 15.6643 70 35C70 35 70 35 70 35.035C69.965 54.3357 54.3007 70 35 70ZM35 0.454544C15.9091 0.489509 0.454545 15.9441 0.454545 35.035C0.454545 54.1259 15.9091 69.5804 35 69.5804C54.0909 69.5804 69.5454 54.1259 69.5454 35.035C69.5454 15.9441 54.0909 0.489509 35 0.454544Z" fill="#191A23"/>
</svg>
