<svg width="30" height="17" viewBox="0 0 30 17" fill="none" xmlns="http://www.w3.org/2000/svg">
<path fill-rule="evenodd" clip-rule="evenodd" d="M15.2406 1.13152C15.0142 0.911766 14.448 0.780273 14.412 0.780273H10.2078C9.88934 0.780273 9.5839 0.906791 9.3587 1.13199C9.1335 1.3572 9.00698 1.66264 9.00698 1.98112C9.00698 2.29961 9.1335 2.60505 9.3587 2.83025C9.5839 3.05546 9.88934 3.18197 10.2078 3.18197H11.4921L10.3549 4.31858C9.25336 3.55548 7.94474 3.14756 6.60468 3.14955C2.95889 3.14955 0 6.10905 0 9.75423C0 13.3994 2.95889 16.3589 6.60468 16.3589C10.2499 16.3589 13.2094 13.3994 13.2094 9.75423C13.2111 8.42049 12.8071 7.11776 12.0511 6.01898L13.1967 4.87337L13.1901 6.16068C13.1894 6.31838 13.2196 6.47469 13.2793 6.62069C13.3389 6.76668 13.4267 6.8995 13.5376 7.01157C13.6486 7.12364 13.7805 7.21275 13.9259 7.27383C14.0713 7.33491 14.2273 7.36675 14.385 7.36754C14.7035 7.36913 15.0095 7.24414 15.2359 7.02006C15.4622 6.79599 15.5902 6.49118 15.5918 6.17269C15.5918 6.17269 15.6321 1.92889 15.6044 1.86164C15.5594 1.63768 15.4615 1.34707 15.2406 1.13152ZM6.60468 5.55125C8.92412 5.55125 10.8077 7.43479 10.8077 9.75423C10.8077 12.0743 8.92412 13.9572 6.60468 13.9572C4.28463 13.9572 2.4017 12.0743 2.4017 9.75423C2.4017 7.43479 4.28463 5.55125 6.60468 5.55125Z" fill="#FF666C"/>
<path fill-rule="evenodd" clip-rule="evenodd" d="M17.5874 14.7415L18.7204 15.8751C18.9456 16.1004 19.251 16.2269 19.5695 16.227C19.888 16.227 20.1935 16.1006 20.4187 15.8754C20.644 15.6502 20.7705 15.3448 20.7706 15.0263C20.7707 14.7078 20.6442 14.4024 20.419 14.1771L19.2854 13.0435L19.6463 12.6826C20.7478 13.4448 22.0558 13.8523 23.3953 13.8505C27.0405 13.8505 30 10.891 30 7.2458C30 3.60062 27.0405 0.641124 23.3953 0.641124C19.7501 0.641124 16.7906 3.60062 16.7906 7.2458C16.7906 8.63218 17.2188 9.91949 17.9501 10.9822L17.5874 11.3455L16.4538 10.2119C16.2286 9.98665 15.9232 9.86008 15.6047 9.86002C15.2862 9.85996 14.9808 9.98643 14.7555 10.2116C14.5303 10.4368 14.4037 10.7422 14.4036 11.0607C14.4036 11.3792 14.53 11.6847 14.7552 11.9099L15.8888 13.0435L14.7552 14.1771C14.6437 14.2886 14.5553 14.421 14.495 14.5667C14.4346 14.7125 14.4036 14.8686 14.4036 15.0263C14.4037 15.184 14.4347 15.3402 14.4951 15.4859C14.5555 15.6315 14.644 15.7639 14.7555 15.8754C14.867 15.9869 14.9994 16.0753 15.1451 16.1357C15.2909 16.196 15.447 16.227 15.6047 16.227C15.7624 16.227 15.9186 16.1959 16.0643 16.1355C16.2099 16.0751 16.3423 15.9866 16.4538 15.8751L17.5874 14.7415ZM23.3953 11.4488C21.0759 11.4488 19.1923 9.56524 19.1923 7.2458C19.1923 4.92576 21.0759 3.04282 23.3953 3.04282C25.7148 3.04282 27.5983 4.92576 27.5983 7.2458C27.5983 9.56524 25.7148 11.4488 23.3953 11.4488Z" fill="#66B9FF"/>
</svg>
