<svg width="40" height="40" viewBox="0 0 40 40" fill="none" xmlns="http://www.w3.org/2000/svg">
<path fill-rule="evenodd" clip-rule="evenodd" d="M40 19.9577C40 21.9028 39.7466 23.7632 39.2397 25.4968C38.226 29.0486 36.283 32.1776 33.6219 34.63C31.7635 36.3636 29.5248 37.759 27.075 38.6892C24.8786 39.5349 22.471 40 19.9789 40C19.641 40 19.2608 40 18.9229 39.9577C18.416 39.9154 17.8669 39.8732 17.3601 39.8309C13.5164 39.3235 9.96832 37.7167 7.13833 35.3066C6.08236 34.4186 5.11088 33.4038 4.22386 32.3044C3.59028 31.5011 2.99894 30.6131 2.49208 29.6829C2.36536 29.4715 2.23865 29.2178 2.11193 29.0063C1.98522 28.7526 1.85851 28.5412 1.77403 28.2875C1.43612 27.5264 1.14045 26.723 0.887014 25.9197C0.71806 25.3277 0.549102 24.7357 0.422386 24.1438C0.337909 23.7209 0.253432 23.2981 0.211193 22.833C0.0844773 21.9028 0 20.9725 0 20C0 19.4503 5.15483e-06 18.9006 0.0844824 18.351C0.126721 18.0127 0.126716 17.6744 0.211193 17.3362C0.464625 15.3488 1.01372 13.4884 1.81626 11.7548C2.1964 10.9091 2.66103 10.0634 3.1679 9.30233C4.01267 7.99154 4.98416 6.76533 6.1246 5.66596C9.71489 2.15645 14.6568 0 20.0634 0C20.2745 0 20.4857 0 20.6969 0C20.9081 0 21.1616 9.67158e-07 21.3728 0.0422843C22.5132 0.126851 23.6536 0.295984 24.7096 0.549684C25.3432 0.718817 25.9768 0.88795 26.5681 1.09937C26.9905 1.22622 27.3706 1.39535 27.793 1.56448C28.0887 1.69133 28.3844 1.81818 28.68 1.94503C28.7223 1.98732 28.7645 1.98732 28.849 2.0296C30.792 2.95983 32.566 4.22833 34.0866 5.75053C34.2978 5.96194 34.509 6.17336 34.7202 6.38478C34.8469 6.55391 35.0158 6.68076 35.1426 6.8499C35.396 7.1036 35.6072 7.39958 35.8184 7.65328C36.6209 8.66808 37.2967 9.76744 37.8881 10.9091C38.5639 12.2622 39.113 13.6998 39.4931 15.1797C39.7888 16.7019 40 18.3087 40 19.9577Z" fill="url(#paint0_radial_19_1688)"/>
<path fill-rule="evenodd" clip-rule="evenodd" d="M28.7645 1.94483C28.68 1.94483 28.6378 1.94483 28.5533 1.98711C28.3421 2.0294 28.1309 1.98711 27.9197 1.94483C27.7508 1.90255 27.6663 1.81798 27.4551 1.81798C27.2017 1.7757 26.9905 1.69113 26.7371 1.64885C26.4836 1.60656 26.2724 1.522 26.019 1.43743C25.8078 1.35286 25.7233 1.39515 25.5544 1.43743C25.3854 1.47971 25.2587 1.39515 25.0898 1.35286C24.9208 1.2683 24.7096 1.2683 24.5406 1.22601C24.0338 1.14145 23.5269 0.972313 23.0201 0.845463C22.7244 0.760896 22.4287 0.760897 22.0908 0.760897C21.8374 0.760897 21.6262 0.845463 21.3728 0.845463C21.2038 0.845463 21.0771 0.80318 20.9081 0.80318C20.7392 0.760897 20.5702 0.80318 20.4013 0.80318C20.1478 0.760897 20.0211 0.718613 19.7677 0.80318C19.5565 0.845463 19.4298 0.845464 19.2186 0.887747C19.0074 0.887747 18.754 0.972313 18.5428 1.0146C18.1626 1.09916 17.7402 1.18373 17.3601 1.18373C17.1067 1.18373 16.7687 1.09916 16.5576 1.18373C16.4308 1.22601 16.3464 1.39515 16.2196 1.47971C16.0084 1.69113 15.7973 1.86026 15.6283 2.07168C15.4593 2.2831 15.2904 2.53679 15.2904 2.83278C15.2904 3.08648 15.4171 3.38246 15.5438 3.59388C15.6705 3.84758 15.7128 4.05899 15.4593 4.22813C15.1637 4.43954 14.7835 4.60868 14.4456 4.73553C14.1922 4.82009 13.981 4.86238 13.812 4.69324C13.7276 4.65096 13.6853 4.52411 13.6008 4.43954C13.5164 4.39726 13.3897 4.43954 13.3052 4.48183C13.0517 4.56639 12.7983 4.65096 12.5449 4.69324C12.3759 4.73553 12.2492 4.82009 12.0803 4.82009C11.9113 4.86238 11.7846 4.73553 11.5734 4.77781C11.32 4.82009 11.0243 4.94694 10.7709 4.94694C10.5597 4.94694 10.3062 4.86238 10.1373 4.77781C10.0528 4.73553 10.0106 4.65096 9.88384 4.69324C9.79936 4.69324 9.67264 4.82009 9.63041 4.90466C9.54593 4.98923 9.54593 5.11608 9.46145 5.20064C9.37698 5.32749 9.33474 5.41206 9.25026 5.53891C9.12354 5.75032 8.99683 5.96174 8.87012 6.17316C8.78564 6.30001 8.70116 6.51143 8.57444 6.63828C8.5322 6.72284 8.4055 6.76512 8.32102 6.80741C8.10983 6.93426 7.89863 7.10339 7.68744 7.23024C7.30729 7.52622 6.92714 7.86449 6.54699 8.16047C6.25132 8.37189 5.82893 8.49874 5.49102 8.66787C5.27983 8.75244 5.06864 8.837 4.85744 8.92157C4.77297 8.96385 4.64625 8.96386 4.60401 9.04842C4.51953 9.13299 4.4773 9.21756 4.43506 9.3444C4.2661 9.55582 4.0549 9.80952 3.92819 10.0632C3.84371 10.2324 3.80147 10.3592 3.717 10.5283C3.63252 10.7398 3.50581 10.9512 3.46357 11.2049C3.29462 11.67 3.29461 12.1774 3.08342 12.6425C2.99894 12.8962 2.82999 13.1499 2.70327 13.4036C2.49208 13.8264 2.44985 14.3338 2.40761 14.799C2.36537 15.0527 2.4076 15.3909 2.44984 15.6446C2.49207 15.9406 2.49208 16.2366 2.49208 16.5326C2.49208 16.8285 2.28089 17.1668 2.11193 17.3782C1.94298 17.5896 1.6473 17.6742 1.43611 17.8856C1.26716 18.0548 1.05596 18.2239 0.971484 18.4776C0.929245 18.5622 0.971484 18.689 0.971484 18.8159C0.929245 19.0696 0.844773 19.281 0.844773 19.5347C0.802534 19.8307 0.802532 20.1266 0.802532 20.4649C0.802532 20.634 0.802532 20.7609 0.802532 20.93C0.802532 21.0992 0.844775 21.226 0.887014 21.3529C0.887014 21.4374 0.887014 21.5643 0.887014 21.6488C0.887014 21.7757 0.971484 21.9025 0.971484 21.9871C1.05596 22.2831 1.09821 22.5368 1.14045 22.8328C1.18269 23.0865 1.3094 23.3402 1.35164 23.5939C1.47836 23.9321 1.52059 24.2704 1.60506 24.651C1.6473 24.9047 1.64731 25.2006 1.68955 25.4543C1.73178 25.6658 1.77403 25.8772 1.77403 26.0886C1.77403 26.4269 1.68955 26.7228 1.68955 27.0611C1.68955 27.6108 1.90073 28.1605 2.02745 28.7102C2.06969 28.8793 2.11193 29.0061 2.15417 29.1753C0.760298 26.4691 0 23.3825 0 20.1266C0 16.152 1.14044 12.4734 3.12566 9.38669C3.97043 8.07591 4.94192 6.84969 6.08236 5.79261C9.67265 2.2831 14.6146 0.126648 20.0211 0.126648C20.4435 0.126648 20.9081 0.126647 21.3305 0.168931C23.9493 0.126647 26.4836 0.845464 28.7645 1.94483Z" fill="url(#paint1_linear_19_1688)"/>
<path fill-rule="evenodd" clip-rule="evenodd" d="M12.9252 17.0401C12.6718 17.5052 11.996 18.3086 12.2071 18.9851C12.2916 19.2811 12.5028 19.5348 12.6295 19.8308C12.9674 20.5496 13.6433 21.2684 14.488 20.761C15.4595 20.1691 15.0371 19.112 14.6148 18.3509C14.4458 18.0549 14.2346 17.7166 13.9389 17.5475C13.77 17.4629 13.5166 17.3784 13.3476 17.3361C13.0097 17.2092 13.2209 17.0401 12.9252 17.0401Z" fill="#FF9F84"/>
<path fill-rule="evenodd" clip-rule="evenodd" d="M15.0793 24.1014C15.1215 23.9746 15.1638 23.5517 15.2905 23.3826C15.375 23.2557 15.5861 23.1712 15.7551 23.0866C16.093 22.9598 16.4732 23.002 16.7266 23.2557C17.2335 23.6786 17.1912 24.3551 16.7266 24.8202C16.5154 25.0316 16.2197 25.2431 15.9241 25.2431C15.7551 25.2431 15.5862 25.2853 15.4594 25.2008C15.2905 25.1162 15.1638 24.9471 15.1215 24.7779C15.037 24.4819 15.0793 24.2705 15.2482 24.0168L15.0793 24.1014Z" fill="#FF9F84"/>
<path fill-rule="evenodd" clip-rule="evenodd" d="M11.4046 23.89C11.4046 24.1014 11.2779 24.6511 11.6158 24.7356C11.7848 24.7779 11.9537 24.5665 11.9537 24.4397C11.996 24.3128 11.9537 24.1014 11.9115 23.9745C11.827 23.8054 11.658 23.6786 11.5313 23.8477H11.4046V23.89Z" fill="#FF9F84"/>
<path fill-rule="evenodd" clip-rule="evenodd" d="M2.87238 19.9999C2.91461 20.3382 2.91462 20.8879 3.12581 21.1839C3.21029 21.3107 3.29477 21.4376 3.46373 21.4798C3.63268 21.5221 3.71715 21.4376 3.80163 21.3107C3.97059 21.0993 3.97058 20.9724 3.97058 20.7187C3.97058 20.5073 3.88611 20.2536 3.80163 20.0422C3.71715 19.9154 3.59043 19.7885 3.50596 19.7039C3.42148 19.6194 3.33701 19.5771 3.16805 19.5771C2.95686 19.5771 2.9991 19.8308 2.95686 19.9999H2.87238Z" fill="#FF9F84"/>
<path fill-rule="evenodd" clip-rule="evenodd" d="M32.524 18.3509C32.524 18.3086 32.5663 17.7166 32.693 17.5898C32.7353 17.5475 32.862 17.5052 32.9042 17.463C33.0732 17.3784 33.2843 17.3361 33.4955 17.4207C33.749 17.5475 34.0024 17.9281 33.9179 18.224C33.8334 18.6046 33.4111 18.8583 33.0731 18.8583C32.693 18.8583 32.3973 18.3932 32.6085 18.0549L32.524 18.3509Z" fill="#FF9F84"/>
<path fill-rule="evenodd" clip-rule="evenodd" d="M11.9537 23.0866C11.9537 23.0866 11.996 22.7906 12.0382 22.7061C12.0805 22.6638 12.1227 22.6638 12.1649 22.6638C12.2494 22.6215 12.3761 22.6215 12.4606 22.6638C12.5873 22.7484 12.714 22.9175 12.6718 23.0866C12.6296 23.2558 12.4184 23.4249 12.2494 23.4249C12.0805 23.4249 11.9115 23.1712 11.996 23.0021L11.9537 23.0866Z" fill="#FF9F84"/>
<path fill-rule="evenodd" clip-rule="evenodd" d="M21.0773 26.7652C21.0773 26.7652 21.1195 26.4692 21.1618 26.3846C21.204 26.3423 21.2462 26.3423 21.2885 26.3423C21.3729 26.3 21.4997 26.3 21.5841 26.3423C21.7109 26.4269 21.8376 26.596 21.7953 26.7652C21.7531 26.9343 21.5419 27.1034 21.3729 27.1034C21.204 27.1034 21.035 26.8497 21.1195 26.6806L21.0773 26.7652Z" fill="#FF9F84"/>
<path fill-rule="evenodd" clip-rule="evenodd" d="M27.2441 10.6131C27.2441 10.6131 27.2864 10.3171 27.3286 10.2325C27.3709 10.1902 27.4131 10.1902 27.4553 10.1902C27.5398 10.1479 27.6665 10.1479 27.751 10.1902C27.8777 10.2748 28.0044 10.4439 27.9622 10.6131C27.92 10.7822 27.7088 10.9513 27.5398 10.9513C27.3709 10.9513 27.2019 10.6976 27.2864 10.5285L27.2441 10.6131Z" fill="#FF9F84"/>
<path fill-rule="evenodd" clip-rule="evenodd" d="M14.6991 34.038C14.6991 34.038 14.7413 33.742 14.7836 33.6574C14.8258 33.6151 14.8681 33.6151 14.9103 33.6151C14.9948 33.5729 15.1215 33.5729 15.206 33.6151C15.3327 33.6997 15.4594 33.8688 15.4172 34.038C15.3749 34.2071 15.1637 34.3762 14.9948 34.3762C14.8258 34.3762 14.6569 34.1225 14.7413 33.9534L14.6991 34.038Z" fill="#FF9F84"/>
<path fill-rule="evenodd" clip-rule="evenodd" d="M31.2146 23.3403C30.9189 23.5517 30.7077 23.6363 30.5387 23.89C30.412 24.1014 30.2431 24.2705 30.1586 24.5242C30.0741 24.6933 29.9896 24.9893 29.9896 25.1585C30.0319 25.6659 30.6654 25.243 30.8766 25.0739C31.1301 24.8625 31.3835 24.5665 31.3835 24.2282C31.3835 24.1014 31.3835 23.9322 31.3413 23.8054C31.299 23.7631 31.299 23.6785 31.2568 23.6363C31.1723 23.5517 31.1301 23.5517 31.2146 23.3403Z" fill="#FF9F84"/>
<path fill-rule="evenodd" clip-rule="evenodd" d="M37.5925 25.6659C37.6347 25.4545 37.508 26.2579 37.5502 26.3002C37.6347 26.3002 37.7192 26.3002 37.8037 26.3002C37.8881 26.3002 37.9304 26.2156 38.0149 26.1733C38.1838 26.0465 38.3105 25.9619 38.3105 25.7505C38.3105 25.5813 38.2683 25.4545 38.0993 25.3699C38.0149 25.3276 37.9726 25.3276 37.8882 25.3276C37.7192 25.3699 37.5925 25.5391 37.508 25.7082L37.5925 25.6659Z" fill="#FF9F84"/>
<path fill-rule="evenodd" clip-rule="evenodd" d="M20.0212 34.3762C20.1902 34.3762 19.5988 34.3762 19.5988 34.3762C19.5988 34.4185 19.5988 34.5031 19.5988 34.5453C19.5988 34.6299 19.6411 34.6299 19.6833 34.6722C19.7678 34.7568 19.8522 34.8413 19.979 34.8413C20.1057 34.8413 20.1902 34.799 20.1902 34.6722C20.1902 34.6299 20.2324 34.5876 20.1902 34.5453C20.1479 34.4185 20.0212 34.3339 19.9367 34.3339L20.0212 34.3762Z" fill="#FFEF84"/>
<path fill-rule="evenodd" clip-rule="evenodd" d="M19.7257 32.6426C19.768 32.4312 19.6412 33.2346 19.6835 33.2769C19.768 33.2769 19.8524 33.2769 19.9369 33.2769C20.0214 33.2769 20.0636 33.1923 20.1481 33.15C20.3171 33.0232 20.4438 32.9386 20.4438 32.7272C20.4438 32.5581 20.4015 32.4312 20.2326 32.3467C20.1481 32.3044 20.1059 32.3044 20.0214 32.3044C19.8524 32.3467 19.7257 32.5158 19.6412 32.6849L19.7257 32.6426Z" fill="#FF9F84"/>
<g opacity="0.25">
<path opacity="0.4" fill-rule="evenodd" clip-rule="evenodd" d="M5.37276 7.79066C4.78142 8.50948 4.27456 9.18601 3.89441 10.0317C3.5565 10.7505 3.42979 11.5962 3.30307 12.3995C3.21859 12.8647 3.17635 13.3298 3.09188 13.8372C3.04964 14.26 2.92293 14.6828 2.96517 15.1057C3.04964 15.6976 3.09188 16.3319 3.38755 16.8393C3.68322 17.389 3.97889 17.8964 4.35904 18.4038C4.73918 18.8689 5.20381 19.1226 5.83739 19.1649C6.1753 19.2072 6.5132 19.1226 6.85111 19.1649C7.31574 19.2072 7.78037 19.2917 8.245 19.3763C9.17425 19.5454 10.2302 19.5454 10.906 18.7843C11.4551 18.1501 11.7086 17.389 12.0465 16.6279C12.4266 15.8245 12.8912 15.1902 13.5671 14.6406C14.0739 14.26 14.5386 13.7949 15.0032 13.3721C15.2144 13.2029 15.3411 12.9915 15.5945 12.8224C15.8479 12.6955 15.9747 12.5264 16.1859 12.315C16.397 12.1458 16.6082 12.019 16.7772 11.8076C17.0729 11.4693 17.2841 11.0465 17.4108 10.6659C17.5797 10.2431 17.622 9.82026 17.7065 9.35514C17.7487 8.93231 17.622 8.50948 17.4953 8.08665C17.2418 7.32555 16.566 6.81815 15.9747 6.35303C15.2144 5.76107 14.2851 5.50737 13.3559 5.29595C12.5111 5.12682 11.4551 5.08453 10.5681 5.25367C9.63887 5.4228 8.70961 5.54965 7.86484 5.9302C7.23126 6.22618 6.85112 6.60673 6.34426 7.07185C6.09083 7.28327 5.79515 7.4524 5.54171 7.7061C5.24604 8.04437 4.95038 8.42491 5.37276 7.79066Z" fill="black"/>
<path opacity="0.4" fill-rule="evenodd" clip-rule="evenodd" d="M14.4119 4.06971C14.5386 3.8583 14.6653 3.52003 14.8343 3.3509C14.9187 3.22405 15.0455 3.13948 15.1722 3.05491C15.5101 2.75893 15.8902 2.54751 16.3126 2.42066C16.566 2.3361 16.8195 2.3361 17.0307 2.42066C17.2841 2.46295 17.7065 2.63208 17.8754 2.80121C18.2133 3.13948 18.0022 3.68916 17.8754 4.06971C17.791 4.45026 17.6643 4.83081 17.3263 5.04223C17.1151 5.21136 16.8195 5.33821 16.566 5.3805C16.4393 5.42278 16.2704 5.42278 16.1014 5.42278C15.9747 5.42278 15.848 5.46506 15.7635 5.46506C15.4678 5.46506 15.0455 5.25365 14.961 4.99995C14.9187 4.8731 14.8765 4.70396 14.792 4.57711C14.7498 4.45026 14.7075 4.3657 14.6653 4.23885C14.5808 4.02743 14.5386 3.81601 14.4119 4.06971Z" fill="black"/>
<path opacity="0.4" fill-rule="evenodd" clip-rule="evenodd" d="M17.7486 6.1839C17.6641 6.39532 17.6219 6.64902 17.6219 6.86043C17.7064 6.90272 17.7486 7.02957 17.8753 7.11413C17.9598 7.15642 18.0865 7.15642 18.2132 7.15642C18.4244 7.15642 18.5934 7.15642 18.6356 6.90272C18.6779 6.6913 18.4667 6.52217 18.2977 6.39532C18.171 6.31075 17.9598 6.09933 17.8331 6.26847L17.7486 6.1839Z" fill="black"/>
<path opacity="0.4" fill-rule="evenodd" clip-rule="evenodd" d="M20.4943 9.43972C20.2408 9.60885 19.9452 9.77798 19.6917 9.9894C19.3961 10.2431 19.1426 10.5391 18.8892 10.8774C18.5935 11.2579 18.2134 11.6807 18.2979 12.2304C18.3823 12.7378 18.5513 13.2029 18.9314 13.5412C19.3961 13.964 20.1141 13.964 20.6632 14.2177C21.1278 14.4291 21.4235 14.8943 21.6347 15.3594C21.9726 16.0359 22.7329 16.1628 23.4087 16.2896C23.8311 16.3742 24.2958 16.4165 24.7181 16.501C25.3095 16.5856 25.9008 16.6702 26.4922 16.7547C27.5904 16.8393 28.6886 17.093 29.7868 17.0084C30.9695 16.9239 32.0254 16.501 32.9547 15.8245C33.7572 15.2748 34.5175 14.26 34.7287 13.2875C34.9399 12.2727 34.602 11.131 34.1373 10.2008C33.5038 9.01688 32.7435 7.9598 31.8987 6.90272C31.4341 6.31075 30.9272 5.80335 30.4204 5.25367C29.998 4.74627 29.5756 4.32344 29.1109 3.90061C28.0127 2.97037 26.6611 2.20927 25.225 2.12471C24.6759 2.08242 24.1268 2.16699 23.5777 2.37841C23.1131 2.54754 22.7751 2.80124 22.4372 3.18179C21.5925 4.06974 21.1278 5.21139 20.7477 6.35304C20.5787 6.90272 20.4098 7.49469 20.4943 8.04437C20.4943 8.2135 20.621 8.34035 20.621 8.50948C20.621 8.67862 20.621 8.80547 20.621 8.9746C20.621 9.05917 20.621 9.14373 20.5787 9.2283C20.5365 9.31287 20.4098 9.43972 20.4943 9.43972Z" fill="black"/>
<path opacity="0.4" fill-rule="evenodd" clip-rule="evenodd" d="M15.9323 13.4143C15.3832 13.7526 14.7919 14.0063 14.3695 14.5137C14.285 14.5983 14.2006 14.7251 14.2428 14.852C14.285 14.9788 14.454 15.0634 14.5807 15.1057C15.0031 15.2748 15.51 15.3594 15.9746 15.2748C16.397 15.1902 16.9038 14.9365 17.115 14.556C17.4107 14.0909 17.0728 13.3298 16.4815 13.3721C16.397 13.3721 16.3125 13.4143 16.228 13.4143C16.1435 13.4143 16.1013 13.4143 16.0168 13.4143C15.9324 13.4143 15.9324 13.4143 15.8479 13.4566C15.7634 13.5412 15.6789 13.6258 15.9323 13.4143Z" fill="black"/>
<path opacity="0.4" fill-rule="evenodd" clip-rule="evenodd" d="M4.35901 21.1522C4.14782 21.3636 3.89439 21.5327 3.76767 21.7864C3.64096 22.0401 3.55648 22.2938 3.51424 22.5898C3.472 22.8435 3.38752 23.0972 3.472 23.3509C3.51424 23.5623 3.64095 23.7737 3.72543 24.0274C3.80991 24.3234 3.93663 24.5771 3.97887 24.8731C4.06334 25.2536 4.19006 25.5496 4.35901 25.8879C4.52797 26.2262 4.69692 26.5221 4.90811 26.8181C5.1193 27.1564 5.3305 27.3678 5.58393 27.6638C6.51318 28.594 7.61138 29.6088 8.96302 29.778C9.63884 29.8625 10.3569 29.6934 10.8638 29.186C11.4129 28.6363 11.7508 27.8752 11.8775 27.1141C11.962 26.4799 11.9197 25.8033 11.5818 25.2536C11.2861 24.7885 10.9905 24.3234 10.6526 23.9429C10.3991 23.6892 10.1457 23.4777 9.85003 23.224C9.5966 22.9703 9.34317 22.7167 9.0475 22.5475C8.54064 22.167 8.07601 21.7864 7.56915 21.4482C7.10453 21.1099 6.59766 20.7716 6.04856 20.6448C5.66841 20.5602 5.24603 20.4756 4.86588 20.6448C4.69693 20.7293 4.5702 20.7716 4.48572 20.8985C4.44348 20.983 4.35901 21.1099 4.35901 21.1944C4.27453 21.1099 4.2323 21.1099 4.35901 21.1522Z" fill="black"/>
<path opacity="0.4" fill-rule="evenodd" clip-rule="evenodd" d="M7.90705 20.2642C7.90705 20.4334 7.94929 20.6025 7.94929 20.7294C7.94929 20.7716 7.99153 20.8139 7.99153 20.8985C8.03377 20.9408 8.16048 20.9408 8.20272 20.9408C8.37168 20.9408 8.54063 20.8562 8.66735 20.7716C8.87854 20.6025 8.96301 20.2642 8.75182 20.0951C8.6251 19.9683 8.41392 19.8837 8.20272 19.926C8.11825 19.9683 7.65362 20.1797 7.82258 20.3488L7.90705 20.2642Z" fill="black"/>
<path opacity="0.4" fill-rule="evenodd" clip-rule="evenodd" d="M34.6863 15.8668C34.7708 15.5285 34.7708 15.2748 34.982 15.0211C35.1932 14.8097 35.4044 14.556 35.5734 14.3446C35.9113 13.9218 36.1225 13.3721 36.2492 12.8647C36.3759 12.3996 36.2492 11.9345 36.4604 11.4694C36.5026 11.3425 36.5871 11.1734 36.6716 11.0888C36.756 11.0465 37.0095 11.0888 37.0939 11.1311C37.1784 11.1734 37.3051 11.3002 37.3896 11.3848C37.5163 11.5116 37.6431 11.6385 37.812 11.8076C38.4878 12.5264 38.868 13.6258 38.8257 14.5983C38.8257 15.1903 38.7413 15.6977 38.5723 16.2474C38.4878 16.4588 38.4033 16.6702 38.2766 16.8816C38.1499 17.1353 37.9387 17.2622 37.7275 17.4313C37.0517 17.8541 36.038 17.7273 35.4466 17.1776C35.2354 16.9662 35.151 16.7125 34.982 16.4588C34.8553 16.2896 34.7708 16.1205 34.7286 15.8668C34.7286 15.8245 34.7286 15.8245 34.6863 15.8668Z" fill="black"/>
<path opacity="0.4" fill-rule="evenodd" clip-rule="evenodd" d="M34.6863 8.34037C34.8131 8.72092 34.8553 9.14375 35.2777 9.35517C35.3622 9.39745 35.4889 9.43974 35.5734 9.43974C35.6578 9.43974 35.7423 9.39745 35.8268 9.31289C36.2492 9.0169 35.9957 8.29809 35.7423 7.95982C35.5734 7.79069 35.3622 7.70612 35.151 7.62156C35.0665 7.57927 35.0665 7.57927 34.982 7.62156C34.8975 7.66384 34.8553 7.66384 34.8131 7.74841C34.7708 7.79069 34.7708 7.91754 34.7708 7.95982C34.7708 8.04439 34.7286 8.08667 34.7286 8.12896C34.6864 8.25581 34.7286 8.38265 34.7708 8.5095L34.6863 8.34037Z" fill="black"/>
<path opacity="0.4" fill-rule="evenodd" clip-rule="evenodd" d="M31.5607 24.6194C31.4762 24.8731 31.3917 25.1691 31.265 25.4228C31.1383 25.7188 31.0116 25.9725 30.8849 26.2685C30.5892 26.9873 30.4202 27.7907 30.2091 28.5518C29.9979 29.3551 29.8711 30.2008 29.7867 31.0042C29.7444 31.427 29.6599 31.8499 29.7022 32.2727C29.7022 32.5687 29.7022 32.9492 29.8289 33.2452C29.9134 33.4143 30.0823 33.7103 30.2513 33.7949C30.5047 33.9217 30.8004 33.7103 31.0116 33.5835C31.8141 33.1606 32.5322 32.5687 33.1658 31.9344C33.7993 31.3002 34.4329 30.7082 34.982 29.9894C35.2354 29.6511 35.4889 29.3551 35.7001 28.9746C35.869 28.6786 35.9957 28.3403 36.1225 28.0444C36.2492 27.7484 36.3759 27.4524 36.5026 27.1564C36.6716 26.8181 36.7983 26.4376 36.925 26.057C37.1362 25.3382 37.3474 24.6194 37.0939 23.9006C36.8828 23.2663 36.3759 22.8012 35.7001 22.6744C35.3622 22.5898 34.9398 22.5052 34.6019 22.5052C34.2639 22.5475 33.8838 22.6321 33.5459 22.7589C33.2502 22.8858 32.9546 23.0126 32.7011 23.1818C32.5744 23.2663 32.4477 23.3932 32.321 23.52C32.1098 23.7315 31.9408 23.9429 31.7719 24.1966C31.6874 24.3234 31.6452 24.408 31.5184 24.4926C31.4762 24.704 31.3917 24.9154 31.5607 24.6194Z" fill="black"/>
<path opacity="0.4" fill-rule="evenodd" clip-rule="evenodd" d="M28.3927 33.8795C27.9704 34.0486 27.6324 34.1754 27.2523 34.4714C26.8299 34.8097 26.4075 35.1057 26.1118 35.5708C25.9851 35.7399 25.7739 35.9936 25.9429 36.205C26.0696 36.3742 26.323 36.3742 26.5342 36.3742C26.8299 36.3742 27.1256 36.3319 27.379 36.205C27.6324 36.1205 27.8436 35.9513 28.0971 35.8668C28.3505 35.7822 28.6884 35.6131 28.8574 35.4017C28.9418 35.2748 29.0263 35.1057 29.1108 34.9788C29.1953 34.852 29.1953 34.8097 29.1953 34.6406C29.1953 34.4714 29.0685 34.26 28.9841 34.1754C28.8996 34.0909 28.6884 33.964 28.5617 34.0063C28.4772 34.0063 28.3927 34.0486 28.3083 34.0909C28.1393 34.0909 28.0126 34.3023 28.3927 33.8795Z" fill="black"/>
<path opacity="0.4" fill-rule="evenodd" clip-rule="evenodd" d="M27.8859 31.427C27.8014 31.0887 27.7169 30.8773 27.7169 30.5391C27.7592 30.2431 27.7592 29.9894 27.8859 29.7357C27.9704 29.6088 28.1393 29.2706 28.266 29.2283C28.3083 29.2283 28.435 29.2283 28.4772 29.2283C28.6884 29.2706 28.8151 29.5243 28.8574 29.7357C28.9418 30.0317 28.8574 30.3699 28.8996 30.7082C28.8996 30.9619 28.8574 31.1733 28.7729 31.3847C28.6884 31.5539 28.5617 31.5539 28.3928 31.5539C28.2238 31.5539 28.1393 31.5116 28.0126 31.3847C27.9704 31.3424 27.8859 31.3424 27.8436 31.3002C27.7592 31.2156 27.7592 31.131 27.8859 31.427Z" fill="black"/>
<path opacity="0.4" fill-rule="evenodd" clip-rule="evenodd" d="M27.5058 18.742C27.4636 18.9534 27.4636 19.2071 27.4636 19.4185C27.548 19.4185 27.6325 19.5877 27.717 19.5877C27.8859 19.63 28.0127 19.5454 28.1394 19.4608C28.3928 19.2494 28.4773 18.8689 28.3928 18.5729C28.3506 18.2769 28.0127 18.2346 27.7592 18.2769C27.6748 18.2769 27.548 18.3192 27.5058 18.3615C27.3368 18.4883 27.3369 18.6574 27.3369 18.8266L27.5058 18.742Z" fill="black"/>
<path opacity="0.4" fill-rule="evenodd" clip-rule="evenodd" d="M8.41395 32.5264C8.54067 32.2727 8.66738 32.019 8.83634 31.8075C9.04753 31.5538 9.25872 31.3424 9.46992 31.131C9.76559 30.8773 10.0613 30.6236 10.3569 30.4122C10.6526 30.2008 10.906 29.9894 11.2017 29.7779C11.7086 29.4397 12.2577 29.2283 12.849 29.0168C13.3136 28.8477 13.8205 28.8054 14.3274 28.89C14.8342 28.9746 15.3411 29.2705 15.679 29.6088C16.0169 29.9471 16.3971 30.3699 16.6082 30.7927C17.0729 31.6807 16.8617 32.6955 16.566 33.5834C16.4393 34.0063 16.1436 34.4714 15.8057 34.7674C15.5945 34.9365 15.3833 35.0211 15.1299 35.0634C14.8765 35.1056 14.5386 35.2325 14.2851 35.2325C13.0602 35.4016 11.8353 35.3171 10.6948 34.8942C10.2302 34.7251 9.80782 34.5137 9.34319 34.3023C9.00529 34.1331 8.70961 33.9217 8.49842 33.6257C8.32947 33.4143 8.20276 33.1183 8.20276 32.8223C8.20276 32.6955 8.24499 32.5686 8.28723 32.4418C8.37171 32.5264 8.41395 32.4841 8.41395 32.5264Z" fill="black"/>
<path opacity="0.4" fill-rule="evenodd" clip-rule="evenodd" d="M17.4529 33.0761C17.3685 33.2875 17.3262 33.5412 17.284 33.7526C17.3685 33.7949 17.3685 33.9217 17.4107 34.0063C17.4952 34.0909 17.5374 34.1332 17.6641 34.1332C17.7909 34.1332 17.9176 34.1332 18.002 34.1332C18.171 34.0909 18.2132 34.0486 18.2977 33.9217C18.3822 33.7949 18.4244 33.7103 18.4244 33.5412C18.4244 33.4143 18.3822 33.2875 18.2977 33.2029C18.2555 33.1184 18.171 33.0338 18.0865 32.9915C17.9176 32.8647 17.7909 32.9492 17.6641 33.0338L17.4529 33.0761Z" fill="black"/>
<path opacity="0.4" fill-rule="evenodd" clip-rule="evenodd" d="M37.2207 22.6321C37.0518 22.5053 36.8828 22.3361 36.7561 22.1247C36.7561 22.0401 36.7561 21.9556 36.7561 21.871C36.7139 21.6596 36.6716 21.4905 36.7138 21.2791C36.7983 20.7717 37.2207 20.4334 37.7276 20.3911C38.0655 20.3488 38.5301 20.6025 38.6991 20.8985C38.868 21.1945 38.9525 21.5328 38.9525 21.871C38.9525 22.1247 38.9103 22.463 38.7413 22.6744C38.6146 22.8435 38.4034 22.8435 38.2344 22.8435C38.0233 22.8435 37.8121 22.8012 37.6431 22.759C37.4741 22.7167 37.3052 22.6321 37.2207 22.6321Z" fill="black"/>
</g>
<defs>
<radialGradient id="paint0_radial_19_1688" cx="0" cy="0" r="1" gradientUnits="userSpaceOnUse" gradientTransform="translate(7.58957 10.592) scale(32.1442 32.1782)">
<stop offset="0.00558659" stop-color="#DE6863"/>
<stop offset="0.2018" stop-color="#DB6563"/>
<stop offset="0.3542" stop-color="#D15D62"/>
<stop offset="0.4919" stop-color="#C14F60"/>
<stop offset="0.6209" stop-color="#A93B5E"/>
<stop offset="0.7437" stop-color="#8B225B"/>
<stop offset="0.8606" stop-color="#670357"/>
<stop offset="0.8715" stop-color="#630057"/>
</radialGradient>
<linearGradient id="paint1_linear_19_1688" x1="-0.0284266" y1="14.4657" x2="28.7571" y2="14.4657" gradientUnits="userSpaceOnUse">
<stop offset="0.0111732" stop-color="#FF7D85"/>
<stop offset="0.2983" stop-color="#FC7B84"/>
<stop offset="0.5089" stop-color="#F3757F"/>
<stop offset="0.695" stop-color="#E36B77"/>
<stop offset="0.8659" stop-color="#CC5C6C"/>
<stop offset="1" stop-color="#B54D61"/>
</linearGradient>
</defs>
</svg>
