<svg width="40" height="40" viewBox="0 0 40 40" fill="none" xmlns="http://www.w3.org/2000/svg">
<path fill-rule="evenodd" clip-rule="evenodd" d="M40 24.5714L39.8389 25.102C39.8389 25.1428 39.8389 25.1428 39.7986 25.1836C39.3958 26.5714 38.8721 27.8775 38.2276 29.102C37.1803 31.102 35.7704 32.9387 34.1591 34.4898C32.2659 36.2857 30.0101 37.7143 27.5126 38.653C25.2568 39.5102 22.8399 40 20.3021 40C19.9396 40 19.577 40 19.2145 39.9592C18.6908 39.9184 18.1672 39.8775 17.6435 39.7959C14.2195 39.3469 11.0775 38.0408 8.41893 36.0816C8.17724 35.8775 7.93555 35.7143 7.69386 35.5102C8.17724 35.102 9.144 35.0612 9.144 35.0612L7.77442 33.9592L4.35045 32.0816C3.70594 31.2245 3.10171 30.3265 2.57804 29.3877C2.4572 29.1428 2.33635 28.9387 2.21551 28.6939C2.21551 28.6939 2.21551 28.6938 2.21551 28.653C2.09466 28.4081 1.97382 28.1632 1.85297 27.9183C1.49044 27.1428 1.20845 26.3265 0.926481 25.4693C0.725071 24.8571 0.56395 24.2449 0.443104 23.6326C0.36254 23.1836 0.281974 22.7347 0.20141 22.2857C0.080564 21.3469 0 20.3673 0 19.3877C0 19.1428 0 18.9387 0 18.6938C0 18.3673 0.0402844 18 0.0402844 17.6734C0.0805664 17.3469 0.120841 17.0204 0.120841 16.6938C0.120841 16.653 0.120841 16.653 0.120841 16.6122C0.201405 16.1632 0.241689 15.7142 0.362535 15.2653C0.483381 14.6122 0.644514 14 0.845924 13.3877C1.08762 12.5306 1.40987 11.6734 1.7724 10.8979C2.13494 10.1224 2.53776 9.34688 2.98086 8.61218C4.35045 7.87749 5.23666 7.46933 5.23666 7.46933C5.23666 7.46933 28.8822 2.73463 29.2447 2.32646C29.6073 1.9183 31.3797 2.16319 31.3797 2.16319C32.5076 2.89789 33.5146 3.75503 34.4814 4.69381C34.7231 4.89789 34.9245 5.14279 35.1259 5.34687C35.2467 5.51014 35.4079 5.67341 35.5287 5.83667C35.7704 6.12239 35.9718 6.36729 36.2135 6.653C37.0191 7.71423 37.7442 8.81626 38.3484 9.99994C38.5901 10.4489 38.7915 10.9387 38.993 11.3877C40.8056 18.6122 38.5498 24.7755 38.5498 24.7755C39.1541 24.653 39.6375 24.6122 40 24.5714Z" fill="url(#paint0_radial_19_1783)"/>
<path fill-rule="evenodd" clip-rule="evenodd" d="M40 24.5714L39.8389 25.102C39.8389 25.1428 39.8389 25.1428 39.7986 25.1836C39.3958 26.5714 38.8721 27.8775 38.2276 29.102C37.1803 31.102 35.7704 32.9387 34.1591 34.4898C32.2659 36.2857 30.0101 37.7143 27.5126 38.653C25.2568 39.5102 22.8399 40 20.3021 40C19.9396 40 19.577 40 19.2145 39.9592C18.6908 39.9184 18.1672 39.8775 17.6435 39.7959C14.2195 39.3469 11.0775 38.0408 8.41893 36.0816C8.17724 35.8775 7.93555 35.7143 7.69386 35.5102C8.17724 35.102 9.144 35.0612 9.144 35.0612L7.77442 33.9592L4.35045 32.0816C3.70594 31.2245 3.10171 30.3265 2.57804 29.3877C2.4572 29.1428 2.33635 28.9387 2.21551 28.6939C2.21551 28.6939 2.21551 28.6938 2.21551 28.653C2.09466 28.4081 1.97382 28.1632 1.85297 27.9183C1.49044 27.1428 1.20845 26.3265 0.926481 25.4693C0.725071 24.8571 0.56395 24.2449 0.443104 23.6326C0.36254 23.1836 0.281974 22.7347 0.20141 22.2857C0.080564 21.3469 0 20.3673 0 19.3877C0 19.1428 0 18.9387 0 18.6938C0 18.3673 0.0402844 18 0.0402844 17.6734C0.0805664 17.3469 0.120841 17.0204 0.120841 16.6938C0.120841 16.653 0.120841 16.653 0.120841 16.6122C0.201405 16.1632 0.241689 15.7142 0.362535 15.2653C0.483381 14.6122 0.644514 14 0.845924 13.3877C1.08762 12.5306 1.40987 11.6734 1.7724 10.8979C2.13494 10.1224 2.53776 9.34688 2.98086 8.61218C4.35045 7.87749 5.23666 7.46933 5.23666 7.46933C5.23666 7.46933 28.8822 2.73463 29.2447 2.32646C29.6073 1.9183 31.3797 2.16319 31.3797 2.16319C32.5076 2.89789 33.5146 3.75503 34.4814 4.69381C34.7231 4.89789 34.9245 5.14279 35.1259 5.34687C35.2467 5.51014 35.4079 5.67341 35.5287 5.83667C35.7704 6.12239 35.9718 6.36729 36.2135 6.653C37.0191 7.71423 37.7442 8.81626 38.3484 9.99994C38.5901 10.4489 38.7915 10.9387 38.993 11.3877C40.8056 18.6122 38.5498 24.7755 38.5498 24.7755C39.1541 24.653 39.6375 24.6122 40 24.5714Z" fill="url(#paint1_radial_19_1783)"/>
<path fill-rule="evenodd" clip-rule="evenodd" d="M39.4362 19.4286C39.4362 20.1633 39.3959 20.898 39.3153 21.5919C39.1945 22.6939 38.9931 23.7551 38.7111 24.7756C38.7111 24.8164 38.7111 24.8164 38.7111 24.8572C38.3486 26.1633 37.8249 27.3878 37.2207 28.5307C36.2136 30.4082 34.9246 32.1225 33.3939 33.5919C31.6215 35.2654 29.4865 36.6123 27.1502 37.5103C25.0555 38.3266 22.7594 38.7756 20.3828 38.7756C20.0605 38.7756 19.698 38.7756 19.3757 38.7348C18.8924 38.6939 18.3687 38.6531 17.8853 38.6123C14.6627 38.2041 11.7222 36.9388 9.22468 35.1021C8.86214 34.8164 8.4996 34.5307 8.13706 34.245C8.05649 34.1633 7.93566 34.0817 7.85509 34.0001C6.96889 33.1837 6.12296 32.3266 5.39789 31.347C4.79366 30.5715 4.22971 29.7143 3.70604 28.8164C3.58519 28.6123 3.46435 28.4082 3.38379 28.1633C3.38379 28.1633 3.38379 28.1633 3.38379 28.1225C3.26294 27.8776 3.1421 27.6735 3.06154 27.4286C2.73928 26.6939 2.45731 25.9184 2.21561 25.1429C2.05449 24.5715 1.89336 24 1.77251 23.4286C1.69195 23.0204 1.61138 22.6123 1.5711 22.1633C1.45025 21.2653 1.36969 20.3674 1.36969 19.4286C1.36969 19.2245 1.36969 18.9796 1.36969 18.7755C1.36969 18.449 1.40997 18.1225 1.40997 17.8368C1.45026 17.5102 1.45025 17.2245 1.49053 16.898C1.49053 16.8572 1.49053 16.8572 1.49053 16.8164C1.53081 16.4082 1.61138 15.9592 1.69194 15.551C1.81279 14.9388 1.97392 14.3674 2.13505 13.7551C2.37674 12.9388 2.65872 12.1633 3.02125 11.3878C3.38379 10.5714 3.82689 9.75512 4.31027 8.97961C4.63253 8.44899 4.99507 7.91839 5.39789 7.42859C5.92155 6.73471 6.52578 6.08164 7.13001 5.46939C10.554 2.08163 15.267 0 20.4231 0C20.6245 0 20.8259 0 21.0273 0C21.2287 0 21.4704 2.49147e-06 21.6718 0.0408189C22.276 0.0816353 22.84 0.163268 23.4442 0.244901C23.4442 0.244901 23.4442 0.244901 23.4845 0.244901C23.9679 0.326534 24.4513 0.408165 24.8944 0.530614C25.4986 0.69388 26.1028 0.857147 26.6668 1.06123C27.0696 1.18368 27.4321 1.34695 27.835 1.51021C28.1169 1.63266 28.3989 1.75511 28.6809 1.87756C28.7211 1.91837 28.7614 1.91837 28.842 1.95919C30.695 2.85715 32.3868 4.08164 33.837 5.55103C34.0384 5.75511 34.2398 5.9592 34.4412 6.16328C34.562 6.32654 34.7232 6.44899 34.844 6.61226C35.0454 6.85716 35.2871 7.14287 35.4885 7.38777C36.2539 8.36736 36.8984 9.42859 37.4623 10.5306C38.1069 11.8368 38.6305 13.2245 38.9931 14.6531C39.2348 15.551 39.3556 16.4898 39.4764 17.4694C39.3959 18.1633 39.4362 18.7755 39.4362 19.4286Z" fill="url(#paint2_radial_19_1783)"/>
<path fill-rule="evenodd" clip-rule="evenodd" d="M11.0372 11.7143C11.0372 11.7143 10.5135 12.8571 10.9566 14C11.3595 15.1429 12.5679 14.4082 13.9778 14C15.3877 13.5918 16.8378 12.1224 17.7643 11.1837C18.6908 10.2449 19.577 8.97958 19.4964 7.75509C19.4159 6.5306 18.1268 5.71427 18.1268 5.71427C18.1268 5.71427 18.6102 5.10202 18.2074 7.55101C17.8046 9.95917 17.2809 10.8571 16.7573 11.2245C16.2336 11.5918 14.7029 12.5306 13.8569 13.0612C13.011 13.5918 12.0443 14.1225 11.4803 14C10.8761 13.7959 10.5941 12.5306 11.0372 11.7143Z" fill="url(#paint3_radial_19_1783)"/>
<path fill-rule="evenodd" clip-rule="evenodd" d="M13.6153 10.8571C13.6153 10.8571 12.8903 11.5102 13.0917 12.0408C13.2931 12.5714 14.6627 12.2449 15.5489 11.102C16.4351 9.95918 15.7503 9.06122 15.7503 9.06122C15.7503 9.06122 15.428 10.9388 14.5821 11.2653C13.7362 11.5918 13.4542 11.4694 13.4542 11.4694C13.4542 11.4694 13.2528 11.3061 13.6153 10.8571Z" fill="url(#paint4_radial_19_1783)"/>
<path fill-rule="evenodd" clip-rule="evenodd" d="M11.4402 11.6734C11.4402 11.6734 12.125 10.8571 12.9307 10.1224C13.7363 9.34692 15.1059 9.0612 15.1059 9.0612C15.1059 9.0612 14.3003 8.61222 13.2529 9.22446C12.2459 9.87753 11.4402 11.6734 11.4402 11.6734Z" fill="url(#paint5_radial_19_1783)"/>
<path fill-rule="evenodd" clip-rule="evenodd" d="M8.53986 11.7142C8.53986 11.7142 10.1914 9.87751 12.1652 9.102C14.1391 8.32649 14.8239 8.08158 15.7101 7.34689C16.5963 6.61219 17.563 6.04077 17.563 6.04077C17.563 6.04077 15.6295 6.1224 12.6889 8.04077C9.74832 9.87751 8.53986 11.102 8.53986 11.7142Z" fill="url(#paint6_radial_19_1783)"/>
<path fill-rule="evenodd" clip-rule="evenodd" d="M4.55206 11.3469C4.55206 11.3469 7.3718 8.48977 9.58731 7.34691C11.8028 6.20405 13.2933 5.51018 15.2671 4.97957C17.2409 4.48977 20.3023 3.59181 20.3023 3.59181L20.8663 3.30609C20.8663 3.30609 14.542 3.42854 10.4332 5.95916C6.32447 8.48977 4.55206 11.3469 4.55206 11.3469Z" fill="url(#paint7_radial_19_1783)"/>
<path fill-rule="evenodd" clip-rule="evenodd" d="M7.9759 14.6531C7.9759 14.6531 8.45928 18.6123 9.14407 18.7755C9.82887 18.9388 12.2458 18.9388 15.8712 17.0612C19.4965 15.1837 20.2216 15.6327 22.2357 13.551C24.2498 11.4694 25.0957 9.10204 25.7 7.55102C26.3445 6 26.5056 4.20408 26.3042 3.67346C26.3042 3.67346 26.989 4.08163 26.989 5.63266C26.989 7.18368 26.5459 9.79592 25.9014 11.2653C25.2569 12.7755 23.565 15.1429 21.5509 16.2857C19.5368 17.4286 15.4684 19.6735 11.5207 19.6327C7.5328 19.5919 8.17731 19.3061 7.77449 18.4898C7.33138 17.6735 7.9759 14.6531 7.9759 14.6531Z" fill="url(#paint8_radial_19_1783)"/>
<path opacity="0.5" fill-rule="evenodd" clip-rule="evenodd" d="M1.77264 18C1.77264 18 2.49772 19.5919 2.86026 21.0612C3.26308 22.5306 3.18252 24.9796 4.83408 25.3878C6.48564 25.7551 8.78171 26.8572 9.62763 26.5715C10.5138 26.2857 13.7364 25.7143 15.5491 26.0817C17.3618 26.449 20.6246 26.2449 21.7525 25.6735C22.8804 25.1021 25.3779 23.5919 26.5461 23.1429C27.7142 22.6939 29.3255 21.3878 30.7354 19.9592C32.1453 18.5306 32.105 16.898 32.4675 16.0816C32.8301 15.2653 33.5148 12.0408 33.4343 10.5714C33.3537 9.10203 32.4675 6.36734 32.4675 6.36734L31.6619 5.51019C31.6619 5.51019 32.6689 9.26531 32.2258 11.9592C31.7827 14.6123 32.1855 15.7143 30.3728 18.2449C28.5602 20.8163 25.9821 22.8163 23.1221 23.7551C20.2621 24.7347 18.4091 24.6123 15.4685 24.898C12.6891 25.1429 9.22481 24.9796 7.85523 24.6123C6.60648 24.2857 4.95492 23.4694 3.70617 21.4286C2.37687 19.3061 1.77264 18 1.77264 18Z" fill="#7D72B3"/>
<path opacity="0.4" fill-rule="evenodd" clip-rule="evenodd" d="M8.09672 13.8367C8.09672 13.8367 8.37869 18.1224 8.90236 18.4898C9.42602 18.8571 10.5942 19.0204 11.6415 18.653C12.7291 18.2857 16.3545 17.0612 16.999 16.6938C17.6435 16.3265 21.4703 14.3673 22.2357 13.7551C23.001 13.1836 24.0081 11.102 24.3706 10.6938C24.7332 10.2857 25.6597 7.71423 25.9013 6.73464C26.1833 5.75505 26.3444 4.6122 26.3444 4.6122C26.3444 4.6122 26.425 4.08158 25.9819 3.87749C25.5388 3.71423 25.4582 3.87749 25.4582 3.87749C25.4582 3.87749 25.3777 4.53056 24.9749 6.3673C24.572 8.20403 19.1743 14.4898 16.4351 16.1632C13.6959 17.7959 11.1179 17.8775 10.1914 17.7551C9.2246 17.6326 8.05643 14.5714 8.09672 13.8367Z" fill="#7D72B3"/>
<path opacity="0.4" fill-rule="evenodd" clip-rule="evenodd" d="M7.97601 14.6531C7.97601 14.6531 8.09686 12 8.78165 11.102C9.46645 10.2041 11.7625 8.36735 13.0918 7.67347C14.4614 6.97959 16.3949 6 17.0797 5.83673C17.7645 5.67347 18.2479 5.83673 18.2479 5.83673C18.2479 5.83673 17.4423 5.38774 15.549 5.87754C13.6558 6.36733 11.5208 8.12245 10.4735 8.69388C9.42617 9.22449 7.85517 10.5714 7.45235 11.2653C7.08981 11.8776 7.97601 14.6531 7.97601 14.6531Z" fill="#7D72B3"/>
<path opacity="0.4" fill-rule="evenodd" clip-rule="evenodd" d="M3.30322 11.8367L9.14411 6.65305L12.7695 4.97958C12.7695 4.97958 16.3546 3.75508 18.0061 3.34692C19.6577 2.93876 23.3234 2.85712 23.3234 2.85712L25.2569 3.0612C25.2569 3.0612 21.9135 1.22446 16.9185 2.5714C11.9639 3.91835 8.66073 5.63264 7.21058 7.0204C5.80071 8.36734 3.5852 11.1428 3.30322 11.8367Z" fill="#7D72B3"/>
<path fill-rule="evenodd" clip-rule="evenodd" d="M3.14225 12.0408C3.14225 12.0408 0.000254571 15.8775 1.53097 18.2449C3.06168 20.6122 3.74648 24.0408 4.18958 24.8163C4.63268 25.5918 9.70821 26.8163 10.7555 26.5714C11.8029 26.3265 14.3406 25.6734 15.9922 26.2857C15.9922 26.2857 18.9328 26.0408 19.7384 26.0408C20.5843 26.0408 22.1151 25.3061 22.4776 25.1428C22.8401 24.9796 24.814 24.3265 25.821 23.9183C26.8281 23.5102 28.4796 22.2041 29.1241 21.7143C29.7686 21.1836 31.5008 19.102 31.8633 18.4489C32.1856 17.7959 33.1926 14.0408 33.4343 12.2449C33.676 10.4489 32.9509 7.02036 32.3467 5.83669C31.7424 4.65301 29.97 3.55097 29.97 3.55097L30.0909 3.02035L31.5008 2.16321C31.5008 2.16321 33.958 5.3877 34.1594 8.20403C34.2802 9.83669 34.683 13.3469 34.2399 14.8571C33.9177 16.0816 32.7495 19.5918 31.7022 20.8571C30.6951 22.1224 27.6337 25.3469 26.0224 26C24.4111 26.6122 19.5773 27.4694 16.7576 27.5102C14.6629 27.551 10.0707 27.1836 7.81496 27.102C5.55917 27.0204 3.9479 25.5918 3.06169 24.8571C2.17549 24.1224 2.45746 22.1632 1.57125 20.5714C0.644769 19.0204 0.161385 16.9387 0.362795 15.7959C0.564205 14.7347 3.14225 12.0408 3.14225 12.0408Z" fill="url(#paint9_radial_19_1783)"/>
<path fill-rule="evenodd" clip-rule="evenodd" d="M8.66084 26.6938C8.17746 26.5714 7.73436 26.3265 7.25097 26.2041C6.969 26.1224 6.72731 26.0816 6.44533 26C6.16336 25.9183 5.88138 25.8775 5.59941 25.8775C5.03546 25.8367 4.47151 25.7142 4.10897 25.2653C3.78672 24.8571 3.58532 24.4081 3.46447 23.8775C3.26306 23.1836 3.10192 22.4898 2.90051 21.8367C2.6991 21.1836 2.45741 20.653 2.09487 20.0816C1.97403 19.8775 1.85318 19.6326 1.69205 19.4285C1.57121 19.2244 1.36981 19.0612 1.24896 18.8163C0.966987 18.2449 0.886414 17.6326 0.886414 16.9795C0.886414 16.653 0.966987 16.3265 1.04755 16C1.12812 15.5918 1.24896 15.2244 1.45037 14.8571C1.65178 14.5306 1.81291 14.1632 2.01432 13.8367C2.45742 13.0612 2.90052 12.2857 3.42419 11.5918C4.10898 10.7346 4.87434 9.8775 5.67998 9.10199C6.12308 8.65301 6.64674 8.24484 7.1704 7.83668C7.61351 7.51015 8.01633 7.1428 8.41915 6.81627C9.14422 6.24484 9.99014 5.87748 10.8361 5.46932C11.8431 4.97952 12.8502 4.48973 13.8975 4.12238C15.1462 3.6734 16.395 3.30605 17.684 3.02034C19.1744 2.73462 20.7052 2.65299 22.1956 2.65299C23.0012 2.65299 23.8874 2.57136 24.6931 2.85707C25.1362 3.02034 25.6598 3.22442 26.0224 3.46932C26.1029 3.55095 26.1432 3.55095 26.2238 3.63258C26.2641 3.6734 26.2641 3.75504 26.3043 3.79586C26.3849 3.95912 26.4252 4.1632 26.4252 4.32646C26.4252 4.48973 26.3446 4.653 26.3446 4.81627C26.3446 5.06116 26.2641 5.30606 26.2641 5.55096C26.2641 5.83667 26.1835 6.04075 26.1432 6.32647C26.0627 6.81626 25.9821 7.30606 25.7807 7.79586C25.4987 8.48974 25.2973 9.22443 25.0153 9.8775C24.9348 10.0816 24.7736 10.2448 24.6528 10.4489C24.5722 10.653 24.4917 10.7754 24.3708 10.9795C24.1694 11.3061 24.0083 11.6734 23.7666 11.9591C23.2832 12.6122 22.8401 13.3061 22.1956 13.8367C21.4302 14.4489 20.6246 14.9795 19.7787 15.4285C19.2147 15.7142 18.6508 15.9591 18.0868 16.2449C17.6034 16.4898 17.0798 16.7755 16.5561 17.0204C15.2671 17.6326 13.8572 18.0816 12.4876 18.5306C12.0848 18.653 11.7223 18.7755 11.3195 18.8571C10.9569 18.8979 10.5138 19.0204 10.1513 19.0204C9.74845 19.0204 9.34563 18.8979 8.94281 18.7755C8.2983 18.5714 8.21774 17.8367 8.17745 17.2244C8.13717 16.7755 8.09689 16.3265 8.01633 15.9183C7.93576 15.551 7.93577 15.2244 7.8552 14.8571C7.77464 14.4897 7.73435 14.1224 7.73435 13.7551C7.73435 13.2653 7.89548 12.8571 8.01633 12.3673C8.09689 12.0816 8.09689 11.755 8.25802 11.4693C8.41915 11.0612 8.74141 10.6938 9.10395 10.4081C9.4262 10.1224 9.78874 9.79587 10.111 9.51015C10.3124 9.30607 10.5541 9.18361 10.7555 9.02035C11.118 8.73463 11.5209 8.48974 11.964 8.28566C12.2862 8.12239 12.5279 7.83668 12.8502 7.63259C13.1724 7.42851 13.535 7.22443 13.8572 7.02035C14.1392 6.85708 14.4614 6.77545 14.7837 6.653C15.0254 6.57137 15.2671 6.4081 15.5088 6.32647C15.7505 6.24483 15.9922 6.20402 16.2338 6.12238C16.4755 6.04075 16.677 5.95912 16.9186 5.87748C17.2006 5.79585 17.4826 5.71422 17.7243 5.71422C18.248 5.71422 18.4896 5.95912 18.6508 6.48973C18.8522 7.18361 18.6105 7.79586 18.3688 8.44892C18.1674 8.97954 17.9257 9.46933 17.7646 9.99994C17.5229 10.6938 16.8784 11.0612 16.3547 11.551C15.7908 12.0408 15.106 12.5306 14.4614 12.8163C14.26 12.8979 14.0183 12.9795 13.8169 13.0612C13.6558 13.1428 13.4544 13.2653 13.2933 13.3469C13.1724 13.4285 13.0919 13.5102 12.971 13.5918C12.8904 13.6734 12.7696 13.6734 12.6488 13.7551C12.4071 13.9183 12.1654 14.0816 11.8834 14.204C11.6417 14.3265 11.118 14.4081 10.9569 14.0816C10.8763 13.9183 10.8763 13.7142 10.8361 13.551C10.7958 13.3469 10.7958 13.1428 10.7958 12.9387C10.7958 12.7346 10.8361 12.5714 10.8764 12.3673C10.9166 12.1632 10.9972 11.9999 11.0778 11.7959C11.2792 11.2244 11.6417 10.8163 11.964 10.3673C12.1654 10.0816 12.3668 9.79587 12.6085 9.51015C12.971 9.10199 13.4947 8.93871 13.9781 8.77545C14.4212 8.653 15.106 8.53055 15.5491 8.77545C15.9116 9.02035 15.6699 9.51014 15.5491 9.79586C15.4685 9.95912 15.4282 10.1224 15.3477 10.2857C15.3074 10.4081 15.3074 10.5714 15.2268 10.6938C15.0657 10.9387 14.7837 11.102 14.542 11.3061C14.4614 11.3877 14.3003 11.5102 14.1795 11.551C14.0183 11.5918 13.8572 11.5918 13.6961 11.6326C13.6155 11.6326 13.5752 11.755 13.4947 11.7142C13.4141 11.6734 13.4141 11.5918 13.4141 11.5102C13.4141 11.4285 13.4544 11.3469 13.4947 11.2653C13.4947 11.2653 13.4947 11.2244 13.4947 11.1836C13.5752 10.9387 13.8572 10.653 13.9781 10.4489C14.1795 10.5306 14.0586 10.653 14.0183 10.7754C13.9781 10.8571 13.9781 10.9387 13.9781 11.0203C13.9781 11.102 13.8572 11.2244 13.9378 11.3061C13.9781 11.3469 14.1795 11.2653 14.2197 11.2653C14.7031 11.102 14.9851 10.5714 15.1462 10.1224C15.2268 9.79587 15.2268 9.30606 14.9045 9.14279C14.6629 9.06116 14.3406 9.10199 14.0989 9.10199C13.1724 9.10199 12.6085 10.1224 12.0848 10.7754C11.7626 11.2244 11.4806 11.7142 11.2792 12.2448C11.1583 12.6122 11.0778 12.9795 10.9972 13.3469C10.9166 13.6326 10.8361 14.0408 11.2389 14C11.4806 13.9591 11.7223 13.8367 11.964 13.7551C12.1654 13.6734 12.3265 13.6326 12.5279 13.5102C12.8099 13.3469 13.1724 13.3061 13.4544 13.1428C13.6961 13.0204 13.9378 12.8979 14.1795 12.7755C14.7837 12.4489 15.4282 11.8367 15.831 11.3061C16.113 10.9387 16.5561 10.653 16.8784 10.3265C17.2409 9.99995 17.402 9.55096 17.6437 9.14279C17.8854 8.69381 18.0063 8.28566 18.1271 7.83668C18.2077 7.42851 18.4896 6.93871 18.3285 6.48973C18.2077 6.04075 17.6034 6.04075 17.2409 6.08156C16.9186 6.12238 16.5964 6.20401 16.2741 6.28565C15.7102 6.48973 15.1865 6.73463 14.6629 6.97953C13.8169 7.34688 13.0919 7.91831 12.3265 8.4081C11.9237 8.653 11.4806 8.85708 11.118 9.14279C10.8361 9.34688 10.5944 9.6326 10.3124 9.83668C10.111 9.99994 9.99014 10.204 9.74845 10.3265C9.46647 10.5306 9.22479 10.7346 9.02338 10.9795C8.86225 11.1836 8.66084 11.4693 8.58027 11.7142C8.49971 11.9183 8.58027 12.1224 8.58027 12.3265C8.58027 12.6122 8.49972 12.8979 8.49972 13.1836C8.49972 13.4693 8.49972 13.7959 8.49972 14.0816C8.49972 14.6938 8.41915 15.2653 8.41915 15.8367C8.41915 16.204 8.49971 16.6122 8.58027 16.9387C8.62056 17.2244 8.7414 17.4693 8.78168 17.7551C8.78168 17.9591 8.82197 18.204 8.98309 18.3265C9.06366 18.3673 9.18451 18.4081 9.26507 18.4489C9.34564 18.4898 9.4262 18.5306 9.50677 18.5306C9.54705 18.5306 9.58733 18.5714 9.66789 18.5714C9.70817 18.5714 9.74845 18.653 9.74845 18.653C9.82901 18.6938 9.99015 18.653 10.0707 18.653C10.3124 18.6122 10.5541 18.5714 10.7555 18.4898C11.3597 18.4081 11.9237 18.4081 12.4876 18.204C13.1321 17.9591 13.7364 17.5918 14.3406 17.3469C15.2671 16.9387 16.3144 16.653 17.2006 16.1632C17.6034 15.9591 18.0465 15.7142 18.4494 15.551C19.4564 15.102 20.5037 14.7346 21.3497 14.0408C21.6719 13.7959 21.9539 13.4693 22.2359 13.1836C22.397 13.0204 22.5581 12.8571 22.7192 12.653C23.1624 12.0816 23.5652 11.4693 23.8874 10.8571C24.0486 10.6122 24.1291 10.2857 24.25 10.0408C24.4917 9.6326 24.7334 9.26525 24.975 8.85709C25.1765 8.44892 25.2973 8.04076 25.4181 7.59178C25.4987 7.30606 25.5793 7.10198 25.539 6.81627C25.539 6.24484 25.5793 5.75504 25.821 5.22443C25.9418 4.93872 26.1432 4.53055 26.0224 4.20402C25.9821 4.04076 25.7404 3.99994 25.6196 3.95912C25.2973 3.83667 24.975 3.75503 24.6528 3.63258C24.3708 3.51013 24.1694 3.34687 23.8471 3.30606C23.7263 3.26524 23.6054 3.26524 23.4846 3.26524C23.1623 3.26524 22.9207 3.51013 22.5984 3.46932C22.5178 3.46932 22.4373 3.4285 22.3164 3.4285C22.1553 3.38768 21.9942 3.4285 21.833 3.4285C21.4705 3.4285 21.1483 3.34687 20.7857 3.34687C20.3829 3.34687 19.9801 3.38768 19.5773 3.4285C19.1744 3.46932 18.8119 3.4285 18.4091 3.4285C18.1674 3.4285 18.0063 3.55095 17.8048 3.63258C17.6034 3.71421 17.402 3.75503 17.2006 3.83666C16.9992 3.9183 16.8381 3.95912 16.6367 3.99994C16.3547 3.99994 16.113 3.95911 15.831 4.04075C15.5088 4.12238 15.1865 4.24483 14.8643 4.36728C14.0183 4.73463 13.1724 5.22442 12.2862 5.51014C11.8431 5.63259 11.4 5.71422 10.9972 5.87748C10.8361 5.95912 10.7152 6.04075 10.5541 6.1632C10.2721 6.36728 9.99015 6.53054 9.70818 6.69381C9.06366 7.10197 8.45943 7.55096 7.81492 8.04076C7.08984 8.57137 6.40505 9.1428 5.80082 9.83668C4.75349 11.0612 3.66587 12.2857 2.73939 13.6326C2.29629 14.2448 1.8129 14.9387 1.53093 15.6326V15.6734C1.3698 16.0816 1.28924 16.4897 1.32952 16.9387C1.32952 16.9387 1.32952 16.9387 1.32952 16.9795C1.3698 17.3469 1.53093 17.7551 1.65178 18.0816C1.81291 18.4081 1.89346 18.7347 2.09487 19.0612C2.29628 19.3877 2.57826 19.6734 2.6991 20.0408C2.86023 20.4898 3.02136 20.9796 3.18249 21.4693C3.34362 22.0408 3.50475 22.653 3.58531 23.2653C3.66587 23.6326 3.70615 24.0408 3.90756 24.3673C4.14925 24.8571 4.67292 25.0204 5.11602 25.3061C5.35771 25.4694 5.47856 25.5102 5.76054 25.5102C6.12307 25.551 6.5259 25.6326 6.88844 25.7551C7.6538 26 8.45943 26.1632 9.26507 26.1632C9.74846 26.1632 10.2318 26.0408 10.6749 25.9592C11.118 25.9183 11.5611 25.8775 12.0042 25.7959C12.4071 25.7143 12.8099 25.6326 13.2127 25.6326C13.6155 25.6326 14.0586 25.7143 14.4212 25.7959C15.106 26 15.7505 26.1224 16.4353 26.1224C16.8784 26.1224 17.2812 26 17.7243 26C18.1271 25.9592 18.4896 26.0408 18.8925 26.0816C19.5773 26.1224 20.262 25.9591 20.9066 25.7142C21.3497 25.551 21.7122 25.3469 22.115 25.102C22.4373 24.8979 22.7595 24.8571 23.0818 24.7755C23.7666 24.5714 24.4514 24.3265 25.0959 23.9592C25.9015 23.4694 26.5863 22.7755 27.392 22.2857C27.8351 22 28.3587 21.7959 28.8018 21.5102C29.1644 21.2653 29.5269 20.9796 29.8089 20.653C30.1714 20.2857 30.4937 19.9183 30.8562 19.551C31.1382 19.2653 31.259 18.8979 31.3799 18.5714C31.6216 18.0408 31.7021 17.5102 31.7827 16.9387C31.8633 16.3673 32.1049 15.8775 32.3466 15.3877C32.6689 14.7346 32.9106 14.1224 32.9509 13.3877C32.9911 12.8163 33.0717 12.2857 33.0717 11.7142C33.0717 11.3469 33.0314 11.0204 32.9509 10.653C32.9106 10.3265 32.83 9.99994 32.7897 9.67341C32.7092 9.26525 32.7092 8.85709 32.6286 8.44892C32.5481 8.12239 32.4675 7.75504 32.3869 7.38769C32.3064 7.1428 32.2258 6.8979 32.1452 6.653C31.9841 6.24484 31.7424 5.83667 31.4604 5.46932C31.3396 5.30605 31.1785 5.26524 31.0576 5.18361C30.9368 5.10198 30.9368 5.02035 30.8159 4.97953C30.6548 4.8979 30.4937 4.81626 30.3325 4.73463C30.0506 4.57136 29.7686 4.53055 29.4866 4.36728C29.2449 4.24483 29.0032 4.04075 28.7615 3.87748C28.4796 3.71422 28.1976 3.59177 27.9559 3.34687C27.7142 3.10198 27.5531 2.81626 27.3517 2.61218C27.11 2.36728 26.7877 2.20401 26.546 1.99993C26.1029 1.63258 25.539 1.59177 25.0556 1.38769C24.8139 1.26524 24.5319 1.26524 24.2902 1.1836C23.968 1.10197 23.7666 0.938707 23.4443 0.897891C23.1623 0.857074 22.8804 0.857073 22.5581 0.77544C22.397 0.734624 22.2359 0.693809 22.0345 0.693809C21.7122 0.652992 21.3497 0.693805 21.0274 0.734621C20.7454 0.775438 20.4232 0.734621 20.1412 0.734621C19.8995 0.734621 19.6175 0.775438 19.3759 0.734621C18.6508 0.612172 17.8854 0.652992 17.1603 0.693809C16.4755 0.734625 15.7908 0.775436 15.1462 1.02033C14.5823 1.22442 14.0586 1.38769 13.4947 1.59177C13.1321 1.75503 12.8099 1.95911 12.4473 2.16319C11.6014 2.65299 10.8361 3.22442 10.0707 3.75504C9.18451 4.36728 8.33859 5.02034 7.49267 5.6734C6.92872 6.08156 6.36477 6.53055 5.8411 6.93871C5.59941 7.14279 5.35772 7.34687 5.15631 7.55096C5.67997 6.85708 6.28421 6.20402 6.88844 5.59177C10.3124 2.20402 15.0254 0.122375 20.1815 0.122375C20.3829 0.122375 20.5843 0.122375 20.7857 0.122375C20.9871 0.122375 21.2288 0.122378 21.4302 0.163194C22.0345 0.204011 22.5984 0.285644 23.2026 0.367276C23.2026 0.367276 23.2026 0.367276 23.2429 0.367276C23.8874 0.530542 24.5319 0.734621 25.2167 0.938703C25.7807 1.10197 26.3043 1.26523 26.828 1.4285C27.1906 1.55095 27.5128 1.71421 27.8753 1.83666C28.1976 1.95911 28.5199 2.08156 28.8018 2.24483C29.2852 2.53054 29.7283 2.85708 30.1311 3.18361C30.4131 3.38769 30.6951 3.6734 30.9368 3.9183C31.2993 4.28565 31.6216 4.69381 31.9035 5.10197C32.548 6.12238 33.0717 7.26525 33.3134 8.48974C33.5148 9.51015 33.5148 10.5714 33.4745 11.5918C33.4343 12.1224 33.3537 12.7346 33.2328 13.2653C33.112 13.8775 32.9106 14.4081 32.83 15.0204C32.7897 15.3061 32.83 15.6326 32.7897 15.9183C32.7495 16.1632 32.6689 16.4081 32.6286 16.653C32.5481 17.1428 32.3869 17.6734 32.1452 18.1224C31.823 18.7755 31.4202 19.3061 30.9368 19.8367C30.4131 20.4489 29.8894 21.0612 29.3255 21.6326C28.8018 22.2449 28.1573 22.7347 27.4725 23.1428C26.9489 23.4694 26.3849 23.8775 25.821 24.0816C25.257 24.2857 24.6528 24.6122 24.0485 24.6938C23.6054 24.7347 23.2429 24.8979 22.8804 25.1836C22.679 25.3469 22.4776 25.551 22.2761 25.7551C22.0747 25.9183 21.8733 25.9592 21.6316 26.0408C21.108 26.2041 20.5843 26.1632 20.0204 26.1632C19.2147 26.1632 18.4494 26.2449 17.684 26.3265C17.2812 26.3673 16.8784 26.4081 16.5158 26.3673C16.1533 26.3265 15.7907 26.2449 15.4685 26.2041C15.0657 26.1632 14.7031 26.1632 14.3003 26.0816C13.9781 26.0408 13.7364 26.0408 13.4544 26.0816C13.2127 26.1224 12.971 26.0816 12.689 26.0816C12.4473 26.1224 12.1654 26.1632 11.9237 26.2041C10.9569 26.4489 9.8693 26.9796 8.66084 26.6938Z" fill="#00C4FF"/>
<path fill-rule="evenodd" clip-rule="evenodd" d="M7.73419 35.551C7.73419 35.551 12.2055 36.3265 14.2196 36.2857C17.281 36.2041 20.8258 36.5714 23.565 36.6531C26.3042 36.7347 31.0977 34.449 31.9839 34.0408C32.8702 33.6326 34.9648 32.4082 36.8178 30.3265C38.6708 28.2449 39.3958 24.8571 39.3958 24.8571H38.6305C38.6305 24.8571 38.3485 26.3265 37.2206 27.9592C36.5358 28.9388 35.569 29.7959 34.2397 30.9796C32.3062 32.653 29.8087 33.9592 27.271 34.6122C23.8873 35.4694 20.9064 35.2245 18.8117 35.551C15.8309 36 9.14406 34.9388 9.14406 34.9388L7.73419 35.551Z" fill="url(#paint10_radial_19_1783)"/>
<path fill-rule="evenodd" clip-rule="evenodd" d="M6.56622 33.3062C6.56622 33.3062 7.2913 35.1837 7.7344 35.5511C7.7344 35.5511 8.70117 35.5919 9.18455 35.1021L7.81497 34L6.56622 33.3062Z" fill="url(#paint11_radial_19_1783)"/>
<path fill-rule="evenodd" clip-rule="evenodd" d="M39.4764 21.3469C39.4764 21.3469 39.9597 23.4694 40 24.6122C40 24.6122 39.2347 25.102 38.6707 24.8571C38.6707 24.8571 39.3555 22.2449 39.4764 21.3469Z" fill="url(#paint12_radial_19_1783)"/>
<path fill-rule="evenodd" clip-rule="evenodd" d="M26.5461 1.14276C26.5461 1.14276 30.534 1.55093 31.4605 2.20399C31.4605 2.20399 30.816 2.93868 30.0506 3.06113C30.0909 3.02031 26.8683 1.22439 26.5461 1.14276Z" fill="#EE8CFF"/>
<path fill-rule="evenodd" clip-rule="evenodd" d="M3.02118 8.65302L4.67274 8.40812L5.31724 7.55098C5.31724 7.51016 4.14907 8.04078 3.02118 8.65302Z" fill="#FF61C7"/>
<path opacity="0.5" fill-rule="evenodd" clip-rule="evenodd" d="M4.35077 32.1224C4.35077 32.1224 12.0849 34.4082 18.0869 34.5306C24.1292 34.6531 26.385 33.3061 29.0033 32.2449C31.6217 31.2245 35.8916 28.8979 37.1806 27.1428C38.4696 25.4286 39.4767 21.3469 39.4767 21.3469C39.4767 21.3469 38.2279 27.4694 37.1806 28.5306C36.093 29.5918 31.3397 32.898 30.4938 33.3061C29.6478 33.7143 27.3921 35.4694 23.243 34.9796C23.243 34.9796 20.4636 35.3878 19.4565 35.3061C18.4495 35.2245 16.8785 36.2449 14.0184 35.3061C14.0184 35.3061 10.0305 35.102 9.18461 34.898C8.2984 34.7347 4.35077 32.1224 4.35077 32.1224Z" fill="#54469B"/>
<path fill-rule="evenodd" clip-rule="evenodd" d="M6.24384 23.8776C6.24384 23.8776 12.6487 25.0205 17.2811 24.5307C21.9135 24.0409 24.411 22.8572 25.7403 22C27.0696 21.1429 29.6477 18.3266 30.6144 17.0204C31.5812 15.7551 32.0646 12.5306 32.0646 12.5306C32.0646 12.5306 32.2257 15.6327 31.4604 17.0204C30.6547 18.3674 27.9558 20.9388 26.8279 21.6735C25.7 22.4082 22.5177 24.2041 20.8662 24.4898C19.2146 24.7756 16.4755 25.6327 14.4614 25.2653C12.5278 24.9388 7.69399 25.0205 6.24384 23.8776Z" fill="#B04FE2"/>
<path fill-rule="evenodd" clip-rule="evenodd" d="M15.1058 34.2857C15.1058 34.2857 21.7523 33.8367 24.0484 33.3061C26.3444 32.7755 29.3656 31.551 31.4603 30.7347C33.5549 29.9591 35.1662 28.4081 36.3344 27.551C37.5025 26.6938 38.993 23.102 38.993 23.102C38.993 23.102 38.0262 26.653 36.5761 27.7959C35.1259 28.9387 31.3797 31.0612 27.1904 32.9796C22.4774 35.102 18.852 34.4898 15.1058 34.2857Z" fill="#8B40E0"/>
<path fill-rule="evenodd" clip-rule="evenodd" d="M38.3485 25.7959C38.4693 25.4694 38.5499 25.1428 38.6708 24.8571C38.3082 26.1632 37.7845 27.3877 37.1803 28.5306C37.0192 28.6939 36.7775 28.8571 36.6164 29.0204C36.4552 29.2245 36.2941 29.3877 36.133 29.5918C35.2468 30.449 34.28 31.2245 33.2327 31.8775C32.1854 32.5714 31.138 33.2245 29.9698 33.7551C29.0836 34.1633 28.1572 34.4898 27.2307 34.7347C26.4653 34.9388 25.6597 35.0204 24.8943 35.0612C24.4915 35.102 24.129 35.1429 23.7261 35.1837C23.2428 35.2245 22.7191 35.2245 22.276 35.3061C21.4301 35.4694 20.5841 35.5918 19.7382 35.6327C19.0132 35.6735 18.2881 35.7959 17.563 35.7959C16.6365 35.7959 15.71 35.6327 14.7835 35.6327C13.8973 35.6327 12.9709 35.5918 12.0847 35.5102C11.561 35.4694 11.0373 35.3469 10.5137 35.3061C10.0706 35.2653 9.62744 35.1428 9.18434 35.102C8.82181 34.8163 8.45927 34.5306 8.09674 34.2449C8.01617 34.1633 7.89532 34.0816 7.81476 34C8.33842 34.1633 8.8218 34.3265 9.34547 34.4898C10.0705 34.7347 10.8762 34.8571 11.6013 34.9388C12.2055 35.0204 12.9708 35.0612 13.5751 34.898C14.2196 34.7347 14.6627 34.9388 15.2266 35.1837C15.5086 35.3061 15.7503 35.3469 16.0323 35.4286C16.4351 35.551 16.7171 35.5102 17.1199 35.4694C17.4824 35.4286 17.845 35.3469 18.1672 35.3061C18.4492 35.2245 18.7715 35.102 19.0534 35.0612C19.5771 34.9796 20.141 34.898 20.6647 35.0204C21.2689 35.1429 21.8732 35.1837 22.4774 35.102C23.1219 34.9796 23.6859 34.9388 24.3304 34.9388C24.5318 34.9388 24.7332 34.9796 24.9346 34.9796C25.1763 35.0204 25.3777 34.9388 25.6194 34.9388C26.0222 34.898 26.425 34.8163 26.8279 34.6939C27.1904 34.5714 27.5529 34.4082 27.9155 34.2857C28.6405 34 29.2448 33.7551 29.8893 33.3061C30.4129 32.9388 31.0172 32.6939 31.5408 32.3265C32.0645 32 32.5076 31.551 33.0313 31.2653C33.5952 30.9388 34.0786 30.4898 34.6023 30.1224C34.9245 29.8775 35.2468 29.5918 35.569 29.3469C35.851 29.1428 36.1733 28.9796 36.4552 28.7347C36.8983 28.3265 37.3415 27.9183 37.6637 27.3469C37.9457 26.8571 38.1874 26.3265 38.3485 25.7959Z" fill="#00C4FF"/>
<path fill-rule="evenodd" clip-rule="evenodd" d="M17.8854 15.0612C17.8854 15.0612 22.4776 11.2245 24.4111 7.51019C24.4514 7.51019 19.0536 13.102 17.8854 15.0612Z" fill="#FF77F4"/>
<path fill-rule="evenodd" clip-rule="evenodd" d="M13.0515 19.5919C13.0515 19.5919 15.9518 19.5919 19.1743 18.2449C22.3969 16.898 24.0082 14.0817 24.0082 14.0817C24.0082 14.0817 21.8329 16.2041 19.4563 17.3878C17.0796 18.5715 15.3072 18.8572 13.0515 19.5919Z" fill="#F9C6FF"/>
<path fill-rule="evenodd" clip-rule="evenodd" d="M24.5319 13.4285C24.5319 13.4285 24.8542 12.5714 25.4584 11.102C26.0626 9.63261 26.546 8.81628 26.546 8.81628C26.546 8.81628 26.3849 11.102 24.5319 13.4285Z" fill="#EA9CF4"/>
<path fill-rule="evenodd" clip-rule="evenodd" d="M12.0444 27.3878C12.0444 27.3878 16.0726 28.3674 21.3496 27.3878C26.6265 26.4082 26.8279 26.0816 28.2781 24.898C29.7282 23.7551 30.7756 22.2857 31.3395 21.7143C31.9034 21.1429 32.6285 19.2245 32.6285 19.2245C32.6285 19.2245 31.1381 21.9184 29.0031 23.7551C26.8682 25.551 25.0958 26.449 21.5107 27.0204C17.9659 27.551 13.8571 27.4694 12.0444 27.3878Z" fill="#D374F4"/>
<path fill-rule="evenodd" clip-rule="evenodd" d="M15.5892 36.2857C15.5892 36.2857 19.2548 36.6122 20.7453 36.8979C22.2357 37.2244 25.0957 37.1836 26.7473 36.5714C28.3988 35.9591 31.6214 34.204 31.6214 34.204C31.6214 34.204 28.6003 35.9183 24.9749 36.3265C21.3898 36.6938 19.1743 36.0816 15.5892 36.2857Z" fill="#D374F4"/>
<path fill-rule="evenodd" clip-rule="evenodd" d="M32.7092 33.6734C32.7092 33.6734 35.0455 32.0816 36.1734 31.0612C36.1734 31.0204 34.965 32.7347 32.7092 33.6734Z" fill="#D374F4"/>
<path fill-rule="evenodd" clip-rule="evenodd" d="M15.0256 13.5102C15.0256 13.5102 17.6842 11.4694 18.5301 10.0408C19.376 8.57146 19.4566 7.75513 19.4566 7.75513C19.4566 7.75513 19.8191 9.1837 18.2481 10.9796C16.6369 12.7755 15.0256 13.5102 15.0256 13.5102Z" fill="#F2C4F8"/>
<path fill-rule="evenodd" clip-rule="evenodd" d="M2.53812 24.1633C2.49784 25.0612 2.98122 26.0816 4.55222 26.6939C6.12322 27.3061 7.33167 27.1429 7.33167 27.1429C7.33167 27.1429 5.51898 26.7755 4.51193 26.0816C3.50489 25.3061 2.53812 24.1633 2.53812 24.1633Z" fill="#F5CEFA"/>
<defs>
<radialGradient id="paint0_radial_19_1783" cx="0" cy="0" r="1" gradientUnits="userSpaceOnUse" gradientTransform="translate(7.64314 12.1981) scale(31.1857 31.5994)">
<stop offset="0.00558659" stop-color="#FF9AFF"/>
<stop offset="0.0930098" stop-color="#FB94FF"/>
<stop offset="0.2093" stop-color="#F183FF"/>
<stop offset="0.3418" stop-color="#E068FF"/>
<stop offset="0.4864" stop-color="#C841FF"/>
<stop offset="0.639" stop-color="#A910FF"/>
<stop offset="0.6844" stop-color="#9F00FF"/>
<stop offset="0.7432" stop-color="#9900F8"/>
<stop offset="0.8282" stop-color="#8700E5"/>
<stop offset="0.9287" stop-color="#6A00C6"/>
<stop offset="1" stop-color="#5200AB"/>
</radialGradient>
<radialGradient id="paint1_radial_19_1783" cx="0" cy="0" r="1" gradientUnits="userSpaceOnUse" gradientTransform="translate(7.64314 12.1981) scale(31.1857 31.5994)">
<stop offset="0.00558659" stop-color="#FF9AFF"/>
<stop offset="0.0930098" stop-color="#FB94FF"/>
<stop offset="0.2093" stop-color="#F183FF"/>
<stop offset="0.3418" stop-color="#E068FF"/>
<stop offset="0.4864" stop-color="#C841FF"/>
<stop offset="0.639" stop-color="#A910FF"/>
<stop offset="0.6844" stop-color="#9F00FF"/>
<stop offset="0.7432" stop-color="#9900F8"/>
<stop offset="0.8282" stop-color="#8700E5"/>
<stop offset="0.9287" stop-color="#6A00C6"/>
<stop offset="1" stop-color="#5200AB"/>
</radialGradient>
<radialGradient id="paint2_radial_19_1783" cx="0" cy="0" r="1" gradientUnits="userSpaceOnUse" gradientTransform="translate(8.5276 10.3697) scale(30.6552 31.0619)">
<stop offset="0.00558659" stop-color="#FF9AFF"/>
<stop offset="0.0930098" stop-color="#FB94FF"/>
<stop offset="0.2093" stop-color="#F183FF"/>
<stop offset="0.3418" stop-color="#E068FF"/>
<stop offset="0.4864" stop-color="#C841FF"/>
<stop offset="0.639" stop-color="#A910FF"/>
<stop offset="0.6844" stop-color="#9F00FF"/>
<stop offset="0.7432" stop-color="#9900F8"/>
<stop offset="0.8282" stop-color="#8700E5"/>
<stop offset="0.9287" stop-color="#6A00C6"/>
<stop offset="1" stop-color="#5200AB"/>
</radialGradient>
<radialGradient id="paint3_radial_19_1783" cx="0" cy="0" r="1" gradientUnits="userSpaceOnUse" gradientTransform="translate(12.5587 7.08456) scale(6.85463 6.94557)">
<stop offset="0.630208" stop-color="white"/>
<stop offset="1" stop-color="#EF9AFF"/>
</radialGradient>
<radialGradient id="paint4_radial_19_1783" cx="0" cy="0" r="1" gradientUnits="userSpaceOnUse" gradientTransform="translate(13.6494 9.59534) scale(2.38461 2.41625)">
<stop stop-color="white"/>
<stop offset="1" stop-color="#F7ABFF"/>
</radialGradient>
<radialGradient id="paint5_radial_19_1783" cx="0" cy="0" r="1" gradientUnits="userSpaceOnUse" gradientTransform="translate(12.183 9.37165) scale(2.51279 2.54613)">
<stop stop-color="white"/>
<stop offset="1" stop-color="#F9D0FD"/>
</radialGradient>
<radialGradient id="paint6_radial_19_1783" cx="0" cy="0" r="1" gradientUnits="userSpaceOnUse" gradientTransform="translate(10.4056 6.91947) scale(5.80444 5.88144)">
<stop stop-color="white"/>
<stop offset="1" stop-color="#F7C2FC"/>
</radialGradient>
<radialGradient id="paint7_radial_19_1783" cx="0" cy="0" r="1" gradientUnits="userSpaceOnUse" gradientTransform="translate(7.92471 4.63348) scale(9.84117 9.97174)">
<stop stop-color="white"/>
<stop offset="1" stop-color="#F5AEFE"/>
</radialGradient>
<radialGradient id="paint8_radial_19_1783" cx="0" cy="0" r="1" gradientUnits="userSpaceOnUse" gradientTransform="translate(11.5721 6.21294) scale(13.7124 13.8944)">
<stop offset="0.744792" stop-color="white"/>
<stop offset="0.9998" stop-color="#E886FF"/>
<stop offset="0.9999" stop-color="#ED8CFF"/>
</radialGradient>
<radialGradient id="paint9_radial_19_1783" cx="0" cy="0" r="1" gradientUnits="userSpaceOnUse" gradientTransform="translate(7.29645 6.31513) scale(23.1665 23.4739)">
<stop offset="0.84375" stop-color="#EEADFE"/>
<stop offset="1" stop-color="#B439EE"/>
</radialGradient>
<radialGradient id="paint10_radial_19_1783" cx="0" cy="0" r="1" gradientUnits="userSpaceOnUse" gradientTransform="translate(14.2405 26.7589) scale(18.2586 18.5009)">
<stop offset="0.572917" stop-color="#EEB9FF"/>
<stop offset="1" stop-color="#7801BD"/>
</radialGradient>
<radialGradient id="paint11_radial_19_1783" cx="0" cy="0" r="1" gradientUnits="userSpaceOnUse" gradientTransform="translate(7.05073 33.8969) scale(1.97059 1.99674)">
<stop stop-color="#6D00C2"/>
<stop offset="0.3995" stop-color="#6600BC"/>
<stop offset="0.976" stop-color="#5300AC"/>
<stop offset="1" stop-color="#5200AB"/>
</radialGradient>
<radialGradient id="paint12_radial_19_1783" cx="0" cy="0" r="1" gradientUnits="userSpaceOnUse" gradientTransform="translate(38.9212 22.2869) scale(2.05828 2.08559)">
<stop stop-color="#1F0081"/>
<stop offset="0.73" stop-color="#260087"/>
<stop offset="1" stop-color="#2A008B"/>
</radialGradient>
</defs>
</svg>
