<svg width="90" height="40" viewBox="0 0 90 40" fill="none" xmlns="http://www.w3.org/2000/svg">
<g filter="url(#filter0_d_19_1721)">
<path d="M84 19.7143C84 18.9639 82.9912 18.2208 81.0313 17.5275C79.0714 16.8342 76.1986 16.2043 72.5772 15.6737C68.9557 15.1431 64.6564 14.7221 59.9247 14.435C55.193 14.1478 50.1216 14 45 14C39.8784 14 34.807 14.1478 30.0753 14.435C25.3436 14.7221 21.0443 15.1431 17.4228 15.6737C13.8013 16.2043 10.9286 16.8342 8.9687 17.5275C7.00876 18.2208 6 18.9639 6 19.7143" stroke="url(#paint0_linear_19_1721)" stroke-width="3.58374" stroke-linecap="round" stroke-linejoin="round"/>
</g>
<path fill-rule="evenodd" clip-rule="evenodd" d="M64.3834 19.7475C64.3834 21.672 64.1394 23.5129 63.6513 25.2283C62.6752 28.7427 60.8042 31.8387 58.2418 34.2653C56.4521 35.9806 54.2965 37.3613 51.9374 38.2817C49.8224 39.1185 47.504 39.5787 45.1043 39.5787C44.7789 39.5787 44.4129 39.5787 44.0875 39.5368C43.5994 39.495 43.0707 39.4532 42.5826 39.4113C38.8813 38.9093 35.4648 37.3194 32.7397 34.9347C31.7228 34.0561 30.7874 33.052 29.9332 31.9642C29.3231 31.1693 28.7537 30.2907 28.2656 29.3702C28.1436 29.161 28.0216 28.91 27.8996 28.7008C27.7775 28.4498 27.6555 28.2406 27.5742 27.9896C27.2488 27.2365 26.9641 26.4416 26.72 25.6466C26.5574 25.0609 26.3947 24.4752 26.2726 23.8895C26.1913 23.4711 26.1099 23.0527 26.0693 22.5925C25.9473 21.672 25.8659 20.7516 25.8659 19.7893C25.8659 19.2454 25.8659 18.7016 25.9473 18.1577C25.9879 17.823 25.9879 17.4883 26.0693 17.1535C26.3133 15.1872 26.8421 13.3463 27.6148 11.6309C27.9809 10.7942 28.4283 9.95743 28.9164 9.20434C29.7299 7.90737 30.6653 6.69407 31.7635 5.60628C35.2207 2.13373 39.9795 0 45.1857 0C45.389 0 45.5924 0 45.7958 0C45.9991 0 46.2432 9.56971e-07 46.4465 0.0418389C47.5447 0.125515 48.6429 0.292867 49.6597 0.543894C50.2698 0.711246 50.8799 0.878597 51.4494 1.08779C51.8561 1.2133 52.2221 1.38065 52.6289 1.548C52.9136 1.67352 53.1983 1.79903 53.483 1.92455C53.5237 1.96638 53.5643 1.96638 53.6457 2.00822C55.5167 2.92866 57.2249 4.18379 58.6892 5.68996C58.8925 5.89915 59.0959 6.10834 59.2993 6.31753C59.4213 6.48488 59.584 6.61039 59.706 6.77775C59.9501 7.02877 60.1534 7.32164 60.3568 7.57266C61.1296 8.57677 61.7803 9.66456 62.3498 10.7942C63.0005 12.133 63.5293 13.5555 63.8953 15.0198C64.1801 16.526 64.3834 18.1158 64.3834 19.7475Z" fill="url(#paint1_radial_19_1721)"/>
<path opacity="0.5" fill-rule="evenodd" clip-rule="evenodd" d="M53.5643 1.92458C53.483 1.92458 53.4423 1.92458 53.361 1.96642C53.1576 2.00825 52.9542 1.96642 52.7509 1.92458C52.5882 1.88274 52.5068 1.79907 52.3035 1.79907C52.0594 1.75723 51.8561 1.67355 51.612 1.63171C51.368 1.58988 51.1646 1.5062 50.9206 1.42252C50.7172 1.33885 50.6359 1.38069 50.4732 1.42252C50.3105 1.46436 50.1885 1.38069 50.0258 1.33885C49.8631 1.25517 49.6597 1.25517 49.497 1.21333C49.0089 1.12966 48.5209 0.962306 48.0328 0.836793C47.7481 0.753117 47.4634 0.753118 47.138 0.753118C46.8939 0.753118 46.6906 0.836793 46.4465 0.836793C46.2839 0.836793 46.1618 0.794955 45.9991 0.794955C45.8364 0.753118 45.6737 0.794955 45.5111 0.794955C45.267 0.753118 45.145 0.71128 44.901 0.794955C44.6976 0.836793 44.5756 0.836794 44.3722 0.878632C44.1688 0.878632 43.9248 0.962307 43.7214 1.00415C43.3554 1.08782 42.9487 1.1715 42.5826 1.1715C42.3386 1.1715 42.0132 1.08782 41.8098 1.1715C41.6878 1.21334 41.6064 1.38069 41.4844 1.46436C41.281 1.67355 41.0777 1.8409 40.915 2.05009C40.7523 2.25928 40.5896 2.51031 40.5896 2.80318C40.5896 3.0542 40.7116 3.34707 40.8336 3.55626C40.9557 3.80729 40.9963 4.01647 40.7523 4.18383C40.4676 4.39302 40.1015 4.56037 39.7761 4.68588C39.5321 4.76956 39.3287 4.8114 39.166 4.64404C39.0847 4.60221 39.044 4.47669 38.9627 4.39302C38.8813 4.35118 38.7593 4.39302 38.678 4.43485C38.4339 4.51853 38.1899 4.60221 37.9459 4.64404C37.7832 4.68588 37.6611 4.76956 37.4984 4.76956C37.3357 4.8114 37.2137 4.68588 37.0104 4.72772C36.7663 4.76956 36.4816 4.89507 36.2376 4.89507C36.0342 4.89507 35.7902 4.8114 35.6275 4.72772C35.5461 4.68588 35.5055 4.60221 35.3834 4.64404C35.3021 4.64404 35.1801 4.76956 35.1394 4.85323C35.058 4.93691 35.058 5.06242 34.9767 5.1461C34.8954 5.27161 34.8547 5.35529 34.7733 5.4808C34.6513 5.68999 34.5293 5.89918 34.4073 6.10837C34.3259 6.23388 34.2446 6.44308 34.1226 6.56859C34.0819 6.65227 33.9599 6.6941 33.8785 6.73594C33.6752 6.86145 33.4718 7.0288 33.2684 7.15432C32.9024 7.44718 32.5363 7.78189 32.1703 8.07475C31.8855 8.28394 31.4788 8.40946 31.1534 8.57681C30.9501 8.66048 30.7467 8.74416 30.5433 8.82784C30.462 8.86967 30.34 8.86967 30.2993 8.95335C30.2179 9.03703 30.1773 9.1207 30.1366 9.24621C29.9739 9.4554 29.7705 9.70643 29.6485 9.95746C29.5672 10.1248 29.5265 10.2503 29.4451 10.4177C29.3638 10.6269 29.2418 10.8361 29.2011 11.0871C29.0384 11.5473 29.0384 12.0494 28.835 12.5096C28.7537 12.7606 28.591 13.0116 28.469 13.2627C28.2656 13.681 28.225 14.1831 28.1843 14.6433C28.1436 14.8943 28.1843 15.229 28.2249 15.4801C28.2656 15.7729 28.2656 16.0658 28.2656 16.3587C28.2656 16.6515 28.0623 16.9862 27.8996 17.1954C27.7369 17.4046 27.4522 17.4883 27.2488 17.6975C27.0861 17.8648 26.8827 18.0322 26.8014 18.2832C26.7607 18.3669 26.8014 18.4924 26.8014 18.6179C26.7607 18.8689 26.6794 19.0781 26.6794 19.3292C26.6387 19.622 26.6387 19.9149 26.6387 20.2496C26.6387 20.4169 26.6387 20.5425 26.6387 20.7098C26.6387 20.8772 26.6794 21.0027 26.72 21.1282C26.72 21.2119 26.72 21.3374 26.72 21.4211C26.72 21.5466 26.8014 21.6721 26.8014 21.7558C26.8827 22.0486 26.9234 22.2996 26.9641 22.5925C27.0048 22.8435 27.1268 23.0946 27.1675 23.3456C27.2895 23.6803 27.3301 24.015 27.4115 24.3915C27.4522 24.6426 27.4522 24.9354 27.4928 25.1865C27.5335 25.3957 27.5742 25.6048 27.5742 25.814C27.5742 26.1487 27.4928 26.4416 27.4928 26.7763C27.4928 27.3202 27.6962 27.8641 27.8182 28.408C27.8589 28.5753 27.8996 28.7008 27.9402 28.8682C26.598 26.1906 25.8659 23.1364 25.8659 19.9149C25.8659 15.9821 26.9641 12.3422 28.8757 9.28805C29.6892 7.99108 30.6247 6.77778 31.7228 5.73183C35.1801 2.25928 39.9388 0.125549 45.145 0.125549C45.5517 0.125549 45.9991 0.125549 46.4059 0.167387C48.9276 0.125549 51.368 0.836794 53.5643 1.92458Z" fill="url(#paint2_linear_19_1721)"/>
<path fill-rule="evenodd" clip-rule="evenodd" d="M34.0819 19.2873C40.3049 20.2914 39.9388 22.0067 47.1787 19.9567C54.4185 17.9066 59.6247 6.73588 59.6247 6.73588C59.6247 6.73588 59.9907 5.89912 59.6653 5.39706C59.5433 5.18787 58.6078 5.60625 58.6078 5.60625C58.7705 9.20432 53.8898 16.6515 48.3582 18.7852C47.7481 18.9944 47.1787 19.0781 46.6093 19.2036C46.3652 19.0781 45.7144 18.4505 48.7243 16.3586C52.3035 13.8902 53.8897 12.9697 53.5644 10.3758C53.239 7.78183 56.4115 3.72355 56.4115 3.72355C56.4115 3.72355 56.6555 2.63576 56.0454 1.96635C55.2726 1.08776 53.5644 1.96635 53.5644 1.96635C53.5644 1.96635 53.117 7.02874 46.894 9.74821C40.671 12.4677 37.1731 11.1289 34.814 10.3758C32.4143 9.62269 31.7229 5.56442 31.7229 5.56442C31.7229 5.56442 29.6892 5.14604 28.9571 6.44301C28.4283 7.40528 29.2011 8.61858 29.2011 8.61858C29.2011 8.61858 32.9837 10.0411 36.3596 11.3799C39.7355 12.7187 46.2432 11.5054 48.5209 10.3758C50.8393 9.24615 50.8393 7.40529 52.6696 5.73177C53.4424 5.06236 54.2151 4.56031 54.8659 4.26744C54.8659 4.26744 52.8323 7.48896 53.0763 9.74821C53.3203 12.0075 51.9374 11.9238 48.5209 15.8984C46.1212 18.6597 44.0468 19.5801 43.03 19.8312C40.4269 20.0822 38.0272 19.7893 34.814 18.8689C29.5672 17.4045 26.4353 15.0616 26.4353 15.0616C26.4353 15.0616 25.9879 14.8524 25.8252 15.3545C25.7439 15.5637 26.232 16.1913 26.232 16.1913C26.232 16.1913 27.8589 18.2413 34.0819 19.2873Z" fill="url(#paint3_linear_19_1721)"/>
<path fill-rule="evenodd" clip-rule="evenodd" d="M38.4747 38.2817C38.4747 38.2817 36.9291 37.2776 35.7903 34.2234C34.6514 31.1693 34.7735 31.3785 32.6178 29.4539C30.4621 27.5294 26.7202 25.6467 26.7202 25.6467C26.7202 25.6467 26.4761 25.7303 26.4761 25.814C26.4761 26.1906 26.9235 26.2742 26.9235 26.2742C26.9235 26.2742 30.4214 27.8222 32.6178 30.2907C34.8141 32.7591 37.1732 37.1939 35.5056 36.9429C35.5056 36.9429 35.8716 38.0307 36.7664 38.2817C37.6206 38.5327 38.4747 38.2817 38.4747 38.2817Z" fill="url(#paint4_radial_19_1721)"/>
<path d="M53.8084 23.5129C54.5406 22.718 55.3947 21.672 58.8926 21.6302C62.3905 21.5884 64.1801 22.3833 64.1801 22.3833C64.1801 22.3833 64.9122 22.1741 64.9936 21.2118C65.0749 20.2496 64.3428 19.7893 64.3428 19.7893C64.3021 20.0822 63.9361 22.0904 60.9669 20.919C60.9669 20.8771 62.0244 19.9149 62.2278 17.9066C62.4718 15.8984 63.1633 13.0116 63.1633 13.0116C63.1633 13.0116 63.57 12.3003 63.326 11.7146C63.2446 11.5054 62.5532 11.4218 62.5532 11.4218C63.1633 15.48 61.6584 20.3332 60.0314 20.919C58.0791 20.9608 55.6794 21.2955 54.5812 22.0486C53.239 22.969 51.8968 27.0691 51.0427 29.956C50.8393 30.6672 50.3919 31.4621 49.8225 32.2152C47.6668 32.7591 48.3582 30.0815 47.4227 29.2865C46.4873 28.4916 44.7383 28.91 43.5588 28.4916C42.4199 28.0314 42.0946 27.111 40.8744 26.9436C39.6542 26.7763 37.7019 29.161 35.4648 28.1988C33.2278 27.2365 25.8253 18.1995 25.8253 18.1995C25.8253 18.1995 25.1745 18.0321 25.0118 18.4924C24.8898 18.8689 25.7439 19.8312 25.7439 19.8312C25.7439 19.8312 30.9094 27.8222 35.8309 28.8682C40.7523 29.9141 45.2264 28.9518 46.772 30.2907C48.3175 31.6713 48.4396 33.8469 48.4396 33.8887C46.8533 35.6459 44.9417 37.1521 44.0469 37.6123C42.5013 38.4072 39.9796 38.9511 39.9796 38.9511C40.3456 39.3695 41.0371 39.7042 41.7692 39.9134C42.8673 40.2062 43.5588 39.6623 43.5588 39.6623C43.5588 39.6623 42.9487 39.1185 43.7622 38.4072C45.8365 36.6082 47.3414 35.8551 49.4971 35.3112C50.7986 34.9765 51.2054 35.6041 51.368 35.3949C53.4017 36.0643 54.988 34.5163 56.6962 33.052C58.4045 31.6295 60.6415 31.4203 60.6415 31.4203C60.6415 31.4203 61.7804 31.2111 62.1058 30.709C62.3905 30.2488 61.7397 29.7049 61.7397 29.7049C61.7397 29.7049 60.7636 30.1233 58.8926 31.0856C57.0623 32.0478 55.0693 34.851 52.7916 34.7673C51.5307 34.7255 51.8154 33.4285 51.6934 33.2193C51.6934 33.1356 51.6934 33.052 51.6934 32.9264C51.6528 32.006 51.4494 31.1274 51.4494 30.458C51.4494 30.2907 51.4494 30.1233 51.4901 29.956C51.8154 28.91 53.0763 24.266 53.8084 23.5129ZM49.8631 32.1734C49.4564 32.7173 49.009 33.2611 48.5209 33.805L49.8631 32.1734ZM51.6121 33.5958C51.6528 33.805 51.6934 34.0142 51.6528 34.2653C51.6528 34.3908 51.6121 34.4745 51.5307 34.5163C51.4494 34.5581 51.4087 34.5581 51.3274 34.5581C51.246 34.6 51.124 34.6 51.0427 34.6418C50.88 34.6836 50.7173 34.6418 50.5952 34.6418C50.4326 34.6418 50.2699 34.6418 50.1072 34.6418C50.0258 34.6418 49.9445 34.6 49.8631 34.6C49.7818 34.6 49.6598 34.6 49.6191 34.5581C49.4564 34.4744 49.3344 34.2653 49.2124 34.2234C49.2124 34.0561 49.2124 33.9306 49.2937 33.805C49.2937 33.7632 49.3344 33.7214 49.3344 33.6377C49.3751 33.554 49.3751 33.4703 49.4157 33.3867C49.4971 33.1775 49.5784 32.9683 49.7411 32.8009C49.7818 32.7173 49.8631 32.5917 49.9038 32.5081C49.9851 32.3826 50.0665 32.2989 50.1479 32.2152C50.2699 32.0897 50.3919 31.9642 50.5546 31.8805C50.6766 31.7968 50.88 31.7131 51.0427 31.755C51.2054 31.7968 51.246 32.006 51.2867 32.1315C51.3274 32.2152 51.3274 32.3407 51.368 32.4244C51.4087 32.5499 51.4494 32.6754 51.4901 32.8009C51.5307 32.9683 51.5307 33.0938 51.5714 33.2612C51.5714 33.3448 51.5714 33.4703 51.6121 33.5958Z" fill="url(#paint5_linear_19_1721)"/>
<path fill-rule="evenodd" clip-rule="evenodd" d="M29.6486 5.98285C29.6486 5.98285 30.5028 7.82372 32.7398 9.49724C32.7398 9.49724 32.0077 6.81961 31.4789 5.73182C31.4789 5.73182 30.7468 5.02058 29.6486 5.98285Z" fill="#FFFF0E"/>
<path fill-rule="evenodd" clip-rule="evenodd" d="M41.4032 11.6309C41.4032 11.6309 42.9081 11.0034 43.3962 11.2544C43.3962 11.2126 41.9319 11.6309 41.4032 11.6309Z" fill="#FFFF0E"/>
<path fill-rule="evenodd" clip-rule="evenodd" d="M46.4874 10.1666C46.7721 10.0829 47.0568 9.99927 47.3009 9.87376C47.5449 9.79008 47.7483 9.66457 47.9923 9.53906C48.277 9.3717 48.5617 9.20435 48.8058 8.99516C48.8871 8.95332 48.9278 8.91149 49.0092 8.86965C49.0905 8.82781 49.1718 8.74414 49.2532 8.7023C49.3345 8.66046 49.3752 8.57678 49.4565 8.53495C49.5379 8.49311 49.5786 8.40943 49.6599 8.36759C49.7819 8.28392 49.9039 8.15841 49.9853 8.07473C50.026 8.03289 50.0667 7.99105 50.148 7.90738C50.1887 7.86554 50.2293 7.86554 50.27 7.86554C50.27 7.90738 50.2293 7.99105 50.2293 8.03289C50.1887 8.11657 50.148 8.15841 50.1073 8.24208C50.026 8.40943 49.8633 8.49311 49.7413 8.66046C49.6599 8.74414 49.5786 8.82781 49.4565 8.91149C49.3345 8.99516 49.1718 9.07884 49.0092 9.16251C48.8465 9.24619 48.6838 9.28803 48.5617 9.3717C48.4397 9.45538 48.277 9.53906 48.155 9.58089C48.0737 9.62273 47.9516 9.70641 47.8703 9.74825C47.7889 9.79008 47.7076 9.83192 47.6263 9.87376C47.5042 9.95743 47.3822 9.99927 47.2602 10.0829C47.1789 10.1248 47.1382 10.1248 47.0568 10.1666C46.9348 10.2503 46.7314 10.2921 46.5687 10.2921C46.5281 10.2921 46.4467 10.2921 46.4061 10.2921C46.3654 10.2921 46.3247 10.2503 46.3247 10.2503C46.4061 10.2085 46.4467 10.1666 46.4874 10.1666Z" fill="#FFFF0E"/>
<path fill-rule="evenodd" clip-rule="evenodd" d="M50.5547 7.44717C50.4734 7.48901 50.4327 7.53084 50.3514 7.61452C50.3514 7.65636 50.3107 7.69819 50.392 7.69819C50.4734 7.69819 50.514 7.65636 50.5954 7.57268C50.6361 7.53084 50.6768 7.44717 50.6361 7.40533C50.5954 7.36349 50.514 7.40533 50.4734 7.44717H50.5547Z" fill="#FFFF0E"/>
<path fill-rule="evenodd" clip-rule="evenodd" d="M53.8492 2.05006C53.8085 2.13374 53.7272 2.21742 53.6865 2.30109C53.6458 2.38477 53.6458 2.42661 53.6051 2.51028C53.5645 2.63579 53.5238 2.80315 53.4831 2.92866C53.4018 3.17969 53.3611 3.47255 53.2391 3.72358C53.1984 3.8491 53.1577 3.93277 53.0764 4.05828C53.0357 4.10012 52.995 4.1838 52.995 4.22564C52.9544 4.26747 52.9544 4.30931 52.9137 4.39299C52.873 4.43483 52.873 4.47666 52.8323 4.5185C52.7917 4.56034 52.7917 4.64402 52.751 4.68585C52.7103 4.72769 52.629 4.8532 52.6697 4.89504C52.7103 4.89504 52.7103 4.85321 52.751 4.85321C52.7917 4.81137 52.873 4.76953 52.9137 4.68585C53.0357 4.60218 53.1171 4.47666 53.1984 4.35115C53.2391 4.30931 53.2797 4.26747 53.3204 4.1838C53.3611 4.10012 53.4424 4.05828 53.4831 3.97461C53.5645 3.84909 53.6865 3.72358 53.7678 3.63991C53.8085 3.59807 53.8492 3.51439 53.8899 3.47255C53.9305 3.43072 53.9712 3.38888 54.0119 3.3052C54.1746 3.13785 54.2966 2.9705 54.4593 2.80315C54.5813 2.67763 54.6626 2.51028 54.7846 2.38477C54.866 2.25925 54.9473 2.13374 54.988 2.00823C55.0287 1.96639 55.0694 1.84088 55.0694 1.79904C55.0287 1.71536 54.9473 1.67352 54.866 1.67352C54.744 1.67352 54.622 1.67352 54.5 1.67352C54.3779 1.71536 54.2966 1.7572 54.1745 1.79904C54.0932 1.84088 54.0119 1.92455 53.8899 1.96639C53.8492 2.05006 53.7678 2.0919 53.8492 2.05006Z" fill="#FFFF0E"/>
<path fill-rule="evenodd" clip-rule="evenodd" d="M54.8252 4.43491C54.7845 4.51859 54.7438 4.60226 54.7032 4.68594C54.6625 4.72778 54.6218 4.81145 54.5811 4.85329C54.4998 4.9788 54.4591 5.10432 54.3778 5.18799C54.2557 5.39718 54.0931 5.60637 54.0117 5.81556C53.971 5.89924 53.9304 5.98291 53.8897 6.06659C53.849 6.15026 53.8084 6.27578 53.8084 6.35946C53.7677 6.44313 53.7677 6.52681 53.727 6.65232C53.727 6.736 53.6863 6.81967 53.6863 6.90335C53.7677 6.81967 53.8084 6.69416 53.8897 6.61048C53.9304 6.52681 53.971 6.44313 54.0524 6.40129C54.1337 6.35946 54.1744 6.27578 54.2151 6.1921C54.2558 6.10843 54.3371 6.06659 54.3778 5.98291C54.4184 5.89924 54.4591 5.8574 54.4998 5.77372C54.5405 5.73189 54.5811 5.64821 54.6218 5.56453C54.6625 5.48086 54.7032 5.39718 54.7438 5.31351C54.7845 5.14615 54.8659 4.9788 54.9065 4.81145C54.9065 4.72778 54.9472 4.6441 54.9065 4.56042C54.9065 4.51859 54.8252 4.35123 54.8252 4.43491Z" fill="#FFFF0E"/>
<path fill-rule="evenodd" clip-rule="evenodd" d="M53.4831 7.15434C53.4424 7.27986 53.4017 7.36353 53.4017 7.48905C53.4017 7.53089 53.4017 7.57272 53.4017 7.57272C53.4424 7.57272 53.4831 7.57272 53.4831 7.53089C53.5238 7.53089 53.5237 7.48905 53.5237 7.44721C53.5644 7.40537 53.6051 7.3217 53.5644 7.23802C53.5644 7.15435 53.4831 7.11251 53.4424 7.19618L53.4831 7.15434Z" fill="#FFFF0E"/>
<path fill-rule="evenodd" clip-rule="evenodd" d="M51.4901 12.8862C51.2867 13.0953 51.002 13.3045 50.8393 13.5556C50.8393 13.5974 50.7173 13.6811 50.758 13.7229C50.7987 13.7647 50.88 13.7229 50.9207 13.7229C51.0427 13.6811 51.1647 13.5974 51.2867 13.5556C51.3681 13.5137 51.4494 13.43 51.5308 13.3882C51.7341 13.2627 51.8968 13.0953 52.0595 12.8862C52.1409 12.8025 52.1815 12.7188 52.2222 12.6351C52.2222 12.5933 52.2629 12.5096 52.2629 12.5096C52.2222 12.3841 51.9782 12.5096 51.9375 12.5514C51.8968 12.5933 51.8155 12.6351 51.7748 12.677C51.7342 12.7188 51.6935 12.7606 51.6528 12.7606C51.6121 12.8025 51.5715 12.8443 51.4901 12.8862C51.4901 12.928 51.4494 12.9698 51.4901 12.8862Z" fill="#FFFF0E"/>
<path fill-rule="evenodd" clip-rule="evenodd" d="M50.5139 13.9321C50.4326 13.9739 50.3512 14.0157 50.3105 14.0576C50.3105 14.0994 50.2292 14.1413 50.2699 14.1831C50.3105 14.2249 50.3919 14.1831 50.3919 14.1831C50.4326 14.1831 50.4732 14.1413 50.5139 14.0994C50.5139 14.0157 50.5139 14.0157 50.5139 13.9321Z" fill="#FFFF0E"/>
<path fill-rule="evenodd" clip-rule="evenodd" d="M45.5112 18.8271C45.3485 18.9526 45.1451 19.0781 44.9418 19.2036C44.6977 19.3291 44.4537 19.4128 44.2503 19.5383C43.8843 19.7475 43.5182 19.9149 43.1521 20.0822C43.1115 20.1241 42.542 20.3333 42.7454 20.4588C42.8268 20.5006 42.9488 20.5006 43.0301 20.5006C43.1115 20.5006 43.1928 20.5424 43.2742 20.5424C43.3555 20.5424 43.4368 20.5424 43.5182 20.5424C43.9656 20.5424 44.4537 20.4169 44.8604 20.2496C44.9418 20.2077 45.0638 20.1659 45.1451 20.1241C45.1858 20.0822 45.2265 20.0404 45.3078 19.9986C45.3892 19.9149 45.4705 19.8312 45.5112 19.7057C45.5925 19.5383 45.6332 19.4128 45.6332 19.2036C45.6332 19.12 45.5925 19.0781 45.5519 18.9944C45.5519 18.9526 45.5112 18.9108 45.5112 18.8271Z" fill="#FFFF0E"/>
<path fill-rule="evenodd" clip-rule="evenodd" d="M42.3387 20.2496C42.2573 20.2078 42.1353 20.1241 42.0133 20.1241C41.9726 20.1241 41.9319 20.1241 41.8913 20.1241C41.8099 20.1241 41.6879 20.1659 41.6066 20.2078C41.5252 20.2914 41.7286 20.3751 41.8099 20.417C41.8913 20.4588 42.054 20.4588 42.1353 20.417C42.2166 20.417 42.3387 20.3333 42.3387 20.2496C42.3793 20.2496 42.3793 20.2496 42.3793 20.2496H42.3387Z" fill="#FFFF0E"/>
<path fill-rule="evenodd" clip-rule="evenodd" d="M48.2362 18.9526C48.6429 18.8271 49.0497 18.6597 49.4157 18.4505C49.5784 18.3669 49.7004 18.2832 49.8631 18.1995C49.9445 18.1577 50.0665 18.074 50.1479 18.0322C50.1885 18.0322 50.4326 17.8648 50.4732 17.9485C50.5139 18.0322 50.2699 18.1995 50.2292 18.2413C50.1479 18.325 50.0258 18.4087 49.9038 18.4924C49.8225 18.576 49.7005 18.576 49.6191 18.6597C49.4971 18.7434 49.3751 18.7852 49.2124 18.8689C49.131 18.9107 49.009 18.9526 48.9277 18.9944C48.8463 19.0363 48.7649 19.0363 48.6836 19.0781C48.6429 19.0781 48.5616 19.0781 48.5209 19.0781C48.4396 19.0363 48.2769 19.0781 48.2362 18.9526Z" fill="#FFFF0E"/>
<path fill-rule="evenodd" clip-rule="evenodd" d="M57.3062 21.2537C57.5096 21.2537 57.7537 21.2955 57.957 21.2537C58.1197 21.2118 58.2417 21.2118 58.4044 21.17C58.6891 21.1282 59.0145 21.0445 59.2992 21.0445C59.4212 21.0445 59.5433 21.0445 59.6653 21.0445C59.7466 21.0445 59.828 21.0445 59.8686 21.0445C59.9093 21.0445 59.9907 21.0863 59.9907 21.1282C60.072 21.2118 59.9907 21.2118 59.95 21.2118C59.828 21.2537 59.7466 21.3374 59.6246 21.3374C59.4212 21.3792 59.2585 21.421 59.0552 21.4629C58.9332 21.4629 58.8111 21.4629 58.6484 21.4629C58.4858 21.5047 58.3231 21.5047 58.1197 21.5047C57.957 21.5047 57.835 21.5047 57.6723 21.5047C57.5503 21.5047 57.4689 21.4629 57.3469 21.4629C57.2656 21.4629 57.1842 21.4629 57.1436 21.421C57.1842 21.4629 57.1029 21.3792 57.3062 21.2537Z" fill="#FFFF0E"/>
<path fill-rule="evenodd" clip-rule="evenodd" d="M62.1872 21.4628C62.4312 21.5047 62.5939 21.5047 62.838 21.4628C63.0007 21.421 63.1634 21.421 63.2854 21.3791C63.4887 21.3373 63.7328 21.2536 63.9361 21.1281C64.0582 21.0444 64.2615 20.9189 64.3836 20.9608C64.5056 21.0026 64.6276 21.1281 64.6276 21.2536C64.6276 21.421 64.4649 21.5047 64.3836 21.5883C64.2209 21.7138 63.9361 21.7975 63.7328 21.7975C63.4887 21.7975 63.204 21.7557 62.96 21.7138C62.8786 21.7138 62.7973 21.672 62.7159 21.672C62.6346 21.6302 62.4719 21.6302 62.1872 21.4628Z" fill="#FFFF0E"/>
<path fill-rule="evenodd" clip-rule="evenodd" d="M62.7566 11.6729C62.7566 11.8402 62.6346 12.3004 62.8379 12.4259C62.9599 12.5096 63.0006 12.3004 63.0006 12.2167C63.0413 12.0912 62.9599 11.7565 62.7566 11.6729Z" fill="#FFFF0E"/>
<path fill-rule="evenodd" clip-rule="evenodd" d="M26.4354 15.7729C26.6387 16.0239 26.7608 16.2749 27.0048 16.4005C27.1675 16.4841 27.2895 16.6096 27.4522 16.6515C27.6149 16.6933 27.8183 16.7352 27.981 16.7352C28.0623 16.7352 28.103 16.7352 28.103 16.6096C28.103 16.5678 28.0623 16.4841 28.0216 16.4423C27.9809 16.3586 27.8996 16.3168 27.8183 16.2331C27.7369 16.1494 27.6962 16.0657 27.6149 15.9821C27.3302 15.731 27.0455 15.5637 26.6794 15.4382C26.5574 15.3963 26.5574 15.3963 26.4354 15.4382C26.354 15.48 26.354 15.48 26.3134 15.5637C26.3134 15.6892 26.3947 15.8147 26.476 15.9402L26.4354 15.7729Z" fill="#FFFF0E"/>
<path fill-rule="evenodd" clip-rule="evenodd" d="M26.5981 19.6639C26.8828 20.166 27.2489 20.5843 27.6149 21.0446C27.8589 21.3374 28.0216 21.7558 28.3064 22.0487C28.347 22.0905 28.8758 22.5507 28.8758 22.2997C28.8758 22.2578 28.7131 22.0068 28.7131 21.965C28.6317 21.8395 28.5504 21.6721 28.4284 21.5466C28.347 21.4211 28.225 21.3374 28.1843 21.2119C28.103 21.0864 28.0216 21.0027 27.9403 20.8772C27.8183 20.7517 27.7369 20.5425 27.6556 20.417C27.5742 20.2915 27.4522 20.1241 27.3709 19.9986C27.2489 19.7894 27.0862 19.5802 26.8828 19.4965C26.8421 19.4547 26.7608 19.4129 26.6794 19.4547C26.4761 19.5802 26.5574 19.8312 26.5981 19.6639Z" fill="#FFFF0E"/>
<path fill-rule="evenodd" clip-rule="evenodd" d="M45.145 28.9937C45.5924 28.91 45.9178 28.8264 46.3652 28.9519C46.5686 28.9937 46.7719 29.0774 46.9753 29.1192C47.0973 29.1611 47.3007 29.2029 47.382 29.2866C47.4634 29.4121 47.4634 29.5795 47.3414 29.6631C47.2194 29.7886 46.9346 29.7468 46.7719 29.7468C46.4466 29.705 46.1619 29.6631 45.8365 29.5795C45.6738 29.5376 45.4297 29.4539 45.267 29.3284C45.2264 29.2866 45.0637 29.1192 45.145 28.9937Z" fill="#FFFF0E"/>
<path fill-rule="evenodd" clip-rule="evenodd" d="M51.0426 31.3366C50.8393 31.2948 50.7986 30.8764 50.8799 30.7091C50.9206 30.6254 50.9613 30.458 51.0833 30.4162C51.1646 30.3744 51.2053 30.458 51.2866 30.458C51.2053 30.6672 51.0833 30.8346 50.9613 31.0019L51.0426 31.3366Z" fill="#FFFF0E"/>
<path fill-rule="evenodd" clip-rule="evenodd" d="M59.1367 31.2111C59.4214 31.0019 59.6248 30.8764 59.9502 30.7927C60.1129 30.7509 60.2756 30.7091 60.4383 30.6672C60.6416 30.6254 60.8043 30.4999 61.0077 30.4999C61.089 30.4999 61.1297 30.4999 61.2111 30.458C61.2924 30.458 61.2517 30.4162 61.3331 30.458C61.4958 30.5417 61.4144 30.6672 61.3331 30.7509C61.1297 30.9183 60.967 31.0019 60.723 31.0438C60.5603 31.0856 60.4789 31.1693 60.3163 31.2111C60.2349 31.253 60.1535 31.253 60.0722 31.2948C59.7061 31.3785 59.3401 31.2948 59.1367 31.2111Z" fill="#FFFF0E"/>
<path fill-rule="evenodd" clip-rule="evenodd" d="M33.2684 30.4998C33.431 30.8764 33.5937 31.2529 33.8378 31.5876C33.9598 31.755 34.0411 31.8805 34.2038 31.9642C34.3259 32.006 34.4479 32.0478 34.4479 31.8386C34.4479 31.755 34.3665 31.5876 34.3258 31.5039C34.1632 31.2111 33.9598 31.0019 33.7971 30.7509C33.7158 30.6672 33.6344 30.4998 33.5531 30.458C33.431 30.4162 33.2277 30.3325 33.2684 30.4998Z" fill="#FFFF0E"/>
<path fill-rule="evenodd" clip-rule="evenodd" d="M40.7931 38.9511C41.2405 38.8674 41.6066 38.7 42.0133 38.5745C42.176 38.4909 42.3387 38.4909 42.542 38.4909L42.5827 38.449C42.6234 38.449 42.7047 38.449 42.7454 38.449C42.7861 38.449 42.9894 38.4072 43.0301 38.449C43.1928 38.5745 42.8674 38.9092 42.7861 38.9511C42.5014 39.2439 42.054 39.4113 41.6066 39.3694C41.4032 39.3276 41.1998 39.2439 40.9965 39.2021C40.8744 39.2021 40.5897 39.1184 40.5897 38.9511C40.6304 38.9929 40.6304 38.9511 40.7931 38.9511Z" fill="#FFFF0E"/>
<path fill-rule="evenodd" clip-rule="evenodd" d="M48.277 34.4745C47.9109 34.7256 47.4635 34.9766 47.1788 35.395C46.9754 35.6878 47.3415 35.6042 47.5042 35.5623C47.6262 35.5205 47.7482 35.4787 47.8296 35.395C47.9109 35.3113 47.9923 35.2695 48.0736 35.144C48.1549 35.0603 48.1956 35.0184 48.277 34.9766C48.3176 34.8929 48.3583 34.7674 48.4397 34.7256C48.4397 34.6837 48.399 34.6837 48.399 34.6419L48.277 34.4745Z" fill="#FFFF0E"/>
<path fill-rule="evenodd" clip-rule="evenodd" d="M37.7832 28.408C38.0679 28.2824 38.3526 28.1988 38.5967 28.0314C38.8407 27.9059 39.0848 27.7386 39.3288 27.613C39.6542 27.4457 39.9796 27.2365 40.3456 27.1947C40.4677 27.1947 40.5897 27.111 40.7117 27.1947C40.8337 27.2365 40.8744 27.2783 40.9557 27.362C41.1591 27.6549 40.7524 27.9059 40.549 28.0314C40.3863 28.1569 40.2643 28.2824 40.0609 28.3661C39.8576 28.4498 39.6542 28.4916 39.4508 28.5753C39.1254 28.7008 38.7594 28.8682 38.3933 28.91C38.1899 28.9519 38.0273 28.8682 37.8646 28.7427C37.7832 28.7008 37.7019 28.6172 37.6612 28.5335C37.6205 28.4916 37.5799 28.408 37.7832 28.408Z" fill="#FFFF0E"/>
<g filter="url(#filter1_d_19_1721)">
<path d="M6.00006 19.4286C6.00006 20.2915 7.00883 21.1461 8.96877 21.9433C10.9287 22.7406 13.8014 23.4651 17.4229 24.0753C21.0444 24.6855 25.3437 25.1695 30.0754 25.4998C34.8071 25.83 39.8785 26 45.0001 26C50.1216 26 55.193 25.83 59.9247 25.4998C64.6564 25.1695 68.9557 24.6855 72.5772 24.0753C76.1987 23.4651 79.0714 22.7406 81.0314 21.9434C82.9913 21.1461 84.0001 20.2915 84.0001 19.4286" stroke="url(#paint6_linear_19_1721)" stroke-width="3.58374" stroke-linecap="round" stroke-linejoin="round"/>
</g>
<defs>
<filter id="filter0_d_19_1721" x="0.863302" y="10.5357" width="88.2734" height="15.9877" filterUnits="userSpaceOnUse" color-interpolation-filters="sRGB">
<feFlood flood-opacity="0" result="BackgroundImageFix"/>
<feColorMatrix in="SourceAlpha" type="matrix" values="0 0 0 0 0 0 0 0 0 0 0 0 0 0 0 0 0 0 127 0" result="hardAlpha"/>
<feOffset dy="1.67241"/>
<feGaussianBlur stdDeviation="1.67241"/>
<feComposite in2="hardAlpha" operator="out"/>
<feColorMatrix type="matrix" values="0 0 0 0 0 0 0 0 0 0 0 0 0 0 0 0 0 0 0.5 0"/>
<feBlend mode="normal" in2="BackgroundImageFix" result="effect1_dropShadow_19_1721"/>
<feBlend mode="normal" in="SourceGraphic" in2="effect1_dropShadow_19_1721" result="shape"/>
</filter>
<filter id="filter1_d_19_1721" x="0.863363" y="15.9643" width="88.2734" height="16.8448" filterUnits="userSpaceOnUse" color-interpolation-filters="sRGB">
<feFlood flood-opacity="0" result="BackgroundImageFix"/>
<feColorMatrix in="SourceAlpha" type="matrix" values="0 0 0 0 0 0 0 0 0 0 0 0 0 0 0 0 0 0 127 0" result="hardAlpha"/>
<feOffset dy="1.67241"/>
<feGaussianBlur stdDeviation="1.67241"/>
<feComposite in2="hardAlpha" operator="out"/>
<feColorMatrix type="matrix" values="0 0 0 0 0 0 0 0 0 0 0 0 0 0 0 0 0 0 0.5 0"/>
<feBlend mode="normal" in2="BackgroundImageFix" result="effect1_dropShadow_19_1721"/>
<feBlend mode="normal" in="SourceGraphic" in2="effect1_dropShadow_19_1721" result="shape"/>
</filter>
<linearGradient id="paint0_linear_19_1721" x1="45" y1="14" x2="45" y2="19.7143" gradientUnits="userSpaceOnUse">
<stop stop-color="#A09277"/>
<stop offset="1"/>
</linearGradient>
<radialGradient id="paint1_radial_19_1721" cx="0" cy="0" r="1" gradientUnits="userSpaceOnUse" gradientTransform="translate(33.1742 10.4804) scale(30.9529 31.8393)">
<stop offset="0.00558659" stop-color="#9D9D94"/>
<stop offset="0.2018" stop-color="#DFD2C1"/>
<stop offset="0.3542" stop-color="#C2B5A2"/>
<stop offset="0.4919" stop-color="#D5C8B5"/>
<stop offset="0.6209" stop-color="#A09277"/>
<stop offset="0.7437" stop-color="#847B60"/>
<stop offset="0.8606" stop-color="#736950"/>
<stop offset="0.942708" stop-color="#A09277"/>
</radialGradient>
<linearGradient id="paint2_linear_19_1721" x1="25.8385" y1="14.3136" x2="53.5572" y2="14.3136" gradientUnits="userSpaceOnUse">
<stop offset="0.0111732" stop-color="#D7CAB7"/>
<stop offset="0.2983" stop-color="#E1DAC0"/>
<stop offset="0.695" stop-color="#EDE0CE"/>
<stop offset="0.8659" stop-color="#C3B6A2"/>
<stop offset="1" stop-color="#9A968B"/>
</linearGradient>
<linearGradient id="paint3_linear_19_1721" x1="25.7504" y1="11.2177" x2="59.7931" y2="11.2177" gradientUnits="userSpaceOnUse">
<stop offset="0.00558659" stop-color="#FFB80B"/>
<stop offset="0.388" stop-color="#FFB60C"/>
<stop offset="0.5789" stop-color="#FEAE10"/>
<stop offset="0.7274" stop-color="#FCA117"/>
<stop offset="0.8539" stop-color="#FA8E21"/>
<stop offset="0.9655" stop-color="#F7762E"/>
<stop offset="1" stop-color="#F66D33"/>
</linearGradient>
<radialGradient id="paint4_radial_19_1721" cx="0" cy="0" r="1" gradientUnits="userSpaceOnUse" gradientTransform="translate(28.7391 29.0259) scale(9.78703 10.0673)">
<stop offset="0.00558659" stop-color="#FFB80B"/>
<stop offset="0.388" stop-color="#FFB60C"/>
<stop offset="0.5789" stop-color="#FEAE10"/>
<stop offset="0.7274" stop-color="#FCA117"/>
<stop offset="0.8539" stop-color="#FA8E21"/>
<stop offset="0.9655" stop-color="#F7762E"/>
<stop offset="1" stop-color="#F66D33"/>
</radialGradient>
<linearGradient id="paint5_linear_19_1721" x1="25.0943" y1="25.668" x2="65.0093" y2="25.668" gradientUnits="userSpaceOnUse">
<stop offset="0.00558659" stop-color="#FFB80B"/>
<stop offset="0.388" stop-color="#FFB60C"/>
<stop offset="0.5789" stop-color="#FEAE10"/>
<stop offset="0.7274" stop-color="#FCA117"/>
<stop offset="0.8539" stop-color="#FA8E21"/>
<stop offset="0.9655" stop-color="#F7762E"/>
<stop offset="1" stop-color="#F66D33"/>
</linearGradient>
<linearGradient id="paint6_linear_19_1721" x1="45.0001" y1="26" x2="45.0001" y2="19.4286" gradientUnits="userSpaceOnUse">
<stop stop-color="#A09277"/>
<stop offset="1"/>
</linearGradient>
</defs>
</svg>
