<svg width="558" height="475" viewBox="0 0 558 475" fill="none" xmlns="http://www.w3.org/2000/svg">
<path d="M172.1 32.8L161.7 64H87C51.7 64 23 92.7 23 128V384C23 419.3 51.7 448 87 448H471C506.3 448 535 419.3 535 384V128C535 92.7 506.3 64 471 64H396.3L385.9 32.8C379.4 13.2 361.1 0 340.4 0H217.6C196.9 0 178.6 13.2 172.1 32.8ZM279 160C304.461 160 328.879 170.114 346.882 188.118C364.886 206.121 375 230.539 375 256C375 281.461 364.886 305.879 346.882 323.882C328.879 341.886 304.461 352 279 352C253.539 352 229.121 341.886 211.118 323.882C193.114 305.879 183 281.461 183 256C183 230.539 193.114 206.121 211.118 188.118C229.121 170.114 253.539 160 279 160Z" fill="white"/>
<rect y="83.7134" width="32" height="650" rx="16" transform="rotate(-53 0 83.7134)" fill="#191A23"/>
<rect x="19.0793" y="57.5564" width="32" height="650" rx="16" transform="rotate(-53 19.0793 57.5564)" fill="white"/>
</svg>
