<svg width="120" height="120" viewBox="0 0 120 120" fill="none" xmlns="http://www.w3.org/2000/svg">
<path fill-rule="evenodd" clip-rule="evenodd" d="M120 59.9996C120 77.3414 112.658 92.911 100.886 103.924C95.3165 109.114 88.6076 113.291 81.2658 116.076C74.6835 118.607 67.4684 120 60 120C57.3418 120 54.6835 119.873 52.1519 119.493C40.6329 117.974 30 113.164 21.519 105.949C15.3165 100.759 10.1266 94.3034 6.45569 87.0882C4.17721 82.5312 2.40506 77.5945 1.26582 72.4046C0.379747 68.354 0 64.3034 0 59.9996C0 48.1008 3.41772 37.0882 9.36709 27.8477C11.8987 23.9236 14.8101 20.2527 18.2279 17.0882C28.9873 6.58185 43.7975 0.12616 60 0.12616C61.2658 0.12616 62.6582 0.126163 63.9241 0.252745C70.7595 0.632492 77.2152 2.27806 83.2911 4.80971C84.3038 5.18945 85.3165 5.69578 86.3291 6.20211C92.1519 8.98692 97.4684 12.7844 102.025 17.3414C113.165 28.1008 120 43.2907 120 59.9996Z" fill="url(#paint0_radial_19_1618)"/>
<path fill-rule="evenodd" clip-rule="evenodd" d="M28.3545 99.7469C23.2912 99.7469 14.0507 92.4051 9.62036 83.038C4.17732 71.2659 4.05074 58.8608 6.70897 56.5823C7.46846 55.9494 8.48112 55.5696 9.74694 55.5696C10.5064 55.5696 11.5191 55.6962 12.4052 55.9494C18.7343 57.8481 27.595 66.5823 31.3925 75.4431C35.0634 84.0507 34.0507 90.8861 32.9115 95.0633C32.152 98.9874 30.0001 99.7469 28.3545 99.7469Z" fill="url(#paint1_linear_19_1618)"/>
<path fill-rule="evenodd" clip-rule="evenodd" d="M32.1519 94.8102C31.5189 97.2152 30.3797 98.7342 28.3544 98.7342C24.0506 98.7342 14.9367 91.8988 10.6329 82.5317C5.06324 70.7595 5.44299 59.1139 7.4683 57.3418C8.48096 56.4557 10.2531 56.3291 12.2784 56.962C18.7341 58.8608 28.481 67.0886 30.5063 75.6962C32.405 82.9114 33.2911 90.5064 32.1519 94.8102Z" fill="url(#paint2_linear_19_1618)"/>
<path fill-rule="evenodd" clip-rule="evenodd" d="M11.3924 51.6456C10.7595 51.6456 10.1266 51.3924 9.74681 50.8861C8.10124 48.9874 10.5063 42.2785 11.519 39.8734C13.1645 36.076 14.9367 34.0507 16.4557 34.0507C17.0886 34.0507 17.5949 34.3038 18.1012 34.6836L18.3544 34.9367C20.1266 36.7089 21.0126 40.8861 19.3671 44.1772C18.1012 46.5823 14.4304 50.7595 11.8987 51.3924C11.8987 51.6456 11.6455 51.6456 11.3924 51.6456Z" fill="url(#paint3_linear_19_1618)"/>
<path fill-rule="evenodd" clip-rule="evenodd" d="M18.9873 43.9241C17.8481 46.2025 14.0506 50.3797 11.7721 51.0127C11.1392 51.1392 10.6329 51.1392 10.3797 50.7595C8.73413 48.7342 13.5443 34.9367 16.8354 34.8101C17.3417 34.8101 17.8481 35.0633 18.2278 35.443C19.6202 36.8354 20.5063 40.7595 18.9873 43.9241Z" fill="url(#paint4_linear_19_1618)"/>
<path fill-rule="evenodd" clip-rule="evenodd" d="M96.2026 98.2279C94.1773 98.2279 92.6583 97.4684 92.0254 95.9494C90.7595 93.1646 91.3925 82.9114 95.4431 73.9241C101.392 60.5063 109.747 56.962 113.165 56.962C113.418 56.962 113.671 56.962 113.798 56.962C113.924 56.962 114.051 56.962 114.177 57.0886C115.063 57.3418 115.949 58.1013 116.456 59.2405C118.861 64.1772 117.468 76.3291 113.544 84.8101C110.127 92.7848 101.646 98.2279 96.2026 98.2279Z" fill="url(#paint5_linear_19_1618)"/>
<path fill-rule="evenodd" clip-rule="evenodd" d="M112.785 84.5569C107.975 94.9366 95.1899 100.127 93.038 95.5695C91.8987 93.2911 92.4051 83.5442 96.4557 74.4303C102.532 60.886 110.886 57.7214 113.797 58.1012H113.924C118.101 59.2404 117.468 74.3037 112.785 84.5569Z" fill="url(#paint6_linear_19_1618)"/>
<path fill-rule="evenodd" clip-rule="evenodd" d="M111.899 56.2025C111.392 56.2025 111.013 56.076 110.633 55.8228C108.101 54.3038 106.456 44.557 108.228 41.519C108.734 40.6329 109.367 40.3798 109.747 40.3798C109.873 40.3798 110.127 40.3798 110.38 40.3798C113.165 40.3798 115.949 43.6709 116.962 47.9747C117.595 51.0127 116.329 53.5443 114.81 54.8101C113.924 55.6962 112.911 56.2025 111.899 56.2025Z" fill="url(#paint7_linear_19_1618)"/>
<path fill-rule="evenodd" clip-rule="evenodd" d="M114.177 54.0506C113.165 55.0633 112.025 55.443 111.266 54.9367C109.24 53.7975 107.722 44.6835 109.24 42.0253C109.494 41.6456 109.747 41.3924 110 41.3924C112.025 41.0126 114.937 43.6709 115.949 48.2278C116.456 50.6329 115.443 52.7848 114.177 54.0506Z" fill="url(#paint8_linear_19_1618)"/>
<path fill-rule="evenodd" clip-rule="evenodd" d="M63.7975 119.241C63.4178 119.241 63.038 119.241 62.6583 119.241C56.4557 119.114 51.7722 116.456 51.0127 114.177C50.7595 113.291 50.8861 112.405 51.519 111.899C53.4178 110.253 61.3924 110.127 63.038 110.127C68.2279 110.127 74.557 110.633 75.0633 113.038C75.1899 113.671 75.1899 114.557 74.1773 115.696C72.7848 117.089 70.8861 119.241 63.7975 119.241Z" fill="url(#paint9_linear_19_1618)"/>
<path fill-rule="evenodd" clip-rule="evenodd" d="M73.4177 114.81C71.8988 116.456 70.1266 118.354 62.6583 118.228C55.4431 117.975 50.3798 114.177 52.1519 112.658C54.557 110.633 73.2912 110.506 73.9241 113.291C74.1772 113.671 74.0507 114.304 73.4177 114.81Z" fill="url(#paint10_linear_19_1618)"/>
<path fill-rule="evenodd" clip-rule="evenodd" d="M92.9113 60.8861C88.8607 60.8861 85.8227 58.9873 84.1772 55.5696C80.3797 47.2152 80.3797 31.0126 83.1645 24.5569C83.924 22.9114 84.6835 21.8987 85.6961 21.519C86.7088 21.1392 87.7215 20.886 88.8607 20.886C92.405 20.886 96.0759 23.2911 99.4936 27.7215C105.063 35.0633 108.987 46.962 107.468 52.2785C106.962 53.924 105.57 55.8228 103.291 57.3418C100.127 59.4936 96.3291 60.8861 92.9113 60.8861Z" fill="url(#paint11_linear_19_1618)"/>
<path fill-rule="evenodd" clip-rule="evenodd" d="M106.456 51.8987C106.076 53.4177 104.684 55.0633 102.658 56.4557C97.4684 60.2532 88.3545 62.2785 85.0633 55.1899C81.3924 47.0886 81.3925 31.2658 84.0507 24.9367C84.557 23.6709 85.3165 22.7848 86.076 22.4051C97.3418 17.7215 108.608 44.0506 106.456 51.8987Z" fill="url(#paint12_linear_19_1618)"/>
<path fill-rule="evenodd" clip-rule="evenodd" d="M32.1519 94.8102C26.3291 96.9621 17.2152 89.6203 12.5317 77.595C8.35445 67.0886 11.519 58.7342 12.4051 56.962C18.8608 58.8608 28.6076 67.0886 30.6329 75.6962C32.4051 82.9114 33.2912 90.5064 32.1519 94.8102Z" fill="#FFFF45"/>
<path fill-rule="evenodd" clip-rule="evenodd" d="M73.4178 114.81C61.0127 118.608 52.152 112.532 52.152 112.532C54.557 110.506 73.2912 110.38 73.9241 113.165C74.1773 113.671 74.0507 114.304 73.4178 114.81Z" fill="#FFFF45"/>
<path fill-rule="evenodd" clip-rule="evenodd" d="M110.759 83.5442C102.278 97.3417 92.9114 95.5695 92.9114 95.5695C91.7722 93.2911 92.2785 83.5442 96.3291 74.4303C102.405 60.886 110.759 57.7214 113.671 58.1012H113.797C115.57 63.2911 116.835 73.6708 110.759 83.5442Z" fill="#FFFF45"/>
<path fill-rule="evenodd" clip-rule="evenodd" d="M102.658 56.4557C97.4684 60.2532 88.3545 62.2785 85.0633 55.1899C81.3924 47.0886 81.3925 31.2659 84.0507 24.9367C86.3292 24.6836 90.7595 25.4431 95.6962 32.7848C102.785 42.9114 105.063 50.6329 102.658 56.4557Z" fill="#FFFF45"/>
<path fill-rule="evenodd" clip-rule="evenodd" d="M114.177 54.0507C113.165 55.0634 112.025 55.4431 111.266 54.9368C109.24 53.7975 107.722 44.6836 109.24 42.0254C110.759 42.9115 113.165 44.8102 113.797 48.2279C114.051 50.3798 114.177 52.4051 114.177 54.0507Z" fill="#FFFF45"/>
<path fill-rule="evenodd" clip-rule="evenodd" d="M18.9873 43.9241C17.8481 46.2026 14.0506 50.3798 11.7722 51.0127C11.8987 50.1266 13.6709 39.3671 18.1013 35.4431C19.6203 36.8355 20.5063 40.7595 18.9873 43.9241Z" fill="#FFFF45"/>
<path opacity="0.3" fill-rule="evenodd" clip-rule="evenodd" d="M91.1393 74.1772C90.5064 75.5696 89.8734 76.8354 88.9874 78.1013C88.2279 78.9873 87.3418 79.7468 86.8355 80.7595C84.9367 84.3038 85.3165 88.3544 84.3038 92.0253C83.6709 94.0506 82.1519 95.6962 81.519 97.7215C81.2658 98.6076 81.3924 99.4937 81.3924 100.506C81.3924 101.646 80.7595 102.405 80.1266 103.291C79.3671 104.304 78.3545 104.937 77.2152 105.443C76.3291 105.823 75.3165 105.696 74.3038 105.696C72.1519 105.696 70.1266 105.443 67.9747 104.81C66.076 104.304 64.3038 103.418 62.4051 102.785C61.1393 102.405 60.1266 102.532 58.8608 102.785C57.7215 103.038 56.4557 102.911 55.3165 102.911C53.2912 102.911 51.3924 104.051 49.6203 104.937C48.3545 105.57 47.4684 106.329 46.962 107.722C46.3291 109.367 46.3291 110.886 44.4304 111.519C43.2912 111.899 41.8988 111.519 40.7595 111.266C39.7469 111.013 38.6076 111.139 37.595 111.139C35.5696 111.139 33.6709 110.506 31.7722 109.62C29.6203 108.481 27.7215 106.835 26.076 105.19C25.1899 104.304 23.9241 103.797 23.038 102.911C21.7722 101.772 20.3798 100.633 19.2405 99.4937C17.3418 97.5949 15.3165 95.6962 13.2912 93.924C11.7722 92.7848 10.5064 91.2658 9.24053 89.8734C8.22787 88.7342 7.59496 87.0886 6.83546 85.6962C5.31647 83.038 4.05065 80 3.29116 76.962C2.40508 73.5443 1.39242 69.8734 1.519 66.3291C1.519 63.2911 1.13926 60.5063 1.13926 57.4683C0.886095 63.1646 1.13926 67.8481 1.77217 72.2785C0.886095 68.2279 0.506348 64.1772 0.506348 59.8734C0.506348 47.9747 3.92407 36.962 9.87344 27.7215C12.4051 23.7975 15.3165 20.1266 18.7342 16.962C29.4937 6.45569 44.3038 0 60.5064 0C61.7722 0 63.1646 -1.93338e-06 64.4304 0.12658C71.2659 0.506327 77.7215 2.1519 83.7975 4.68355C85.3165 6.32911 86.8355 8.22785 87.9747 10.1266C88.481 10.8861 88.7342 11.7721 89.2405 12.5316C89.6203 13.2911 90.1266 13.5443 90 14.4304C89.8734 14.9367 89.6203 15.5696 89.3671 16.076C88.7342 17.7215 86.8355 18.8608 85.4431 19.7468C83.4178 21.0127 81.1393 21.519 78.9874 22.6582C77.595 23.4177 77.2152 24.0506 76.2026 25.1899C75.6962 25.8228 75.0633 26.2025 74.6836 26.8354C73.5443 28.6076 72.9114 31.1392 73.038 33.1646C73.1646 37.2152 76.3291 40.1266 77.0886 43.924C77.7215 47.2152 77.2152 50.7595 78.3545 53.9241C79.4937 57.5949 82.6583 60.5063 85.6962 62.6582C86.9621 63.5443 88.1013 64.3038 89.2405 65.3165C90.2532 66.3291 91.6456 66.8354 92.4051 68.1013C93.038 70.1266 91.8988 72.2785 91.1393 74.1772Z" fill="url(#paint13_linear_19_1618)"/>
<path fill-rule="evenodd" clip-rule="evenodd" d="M86.3291 6.07591C86.076 6.07591 85.9494 6.07591 85.6962 6.20249C85.0633 6.32907 84.4304 6.20249 83.7975 6.07591C83.2911 5.94933 83.038 5.69617 82.4051 5.69617C81.6456 5.56958 81.0127 5.31642 80.2532 5.18983C79.4937 5.06325 78.8608 4.81009 78.1013 4.55692C77.4684 4.30376 77.2152 4.43034 76.7089 4.55692C76.2025 4.68351 75.8228 4.43034 75.3165 4.30376C74.8101 4.05059 74.1772 4.05059 73.6709 3.92401C72.1519 3.67085 70.6329 3.16452 69.1139 2.78477C68.2279 2.53161 67.3418 2.53161 66.3291 2.53161C65.5696 2.53161 64.9367 2.78477 64.1772 2.78477C63.6709 2.78477 63.2911 2.65819 62.7848 2.65819C62.2785 2.53161 61.7722 2.65819 61.2658 2.65819C60.5063 2.53161 60.1266 2.40502 59.3671 2.65819C58.7342 2.78477 58.3544 2.78477 57.7215 2.91135C57.0886 2.91135 56.3291 3.16452 55.6962 3.2911C54.557 3.54426 53.2911 3.79743 52.1519 3.79743C51.3924 3.79743 50.3797 3.54427 49.7468 3.79743C49.3671 3.92401 49.1139 4.43034 48.7342 4.68351C48.1013 5.31642 47.4684 5.82275 46.962 6.45566C46.4557 7.08857 45.9494 7.84806 45.9494 8.73414C45.9494 9.49363 46.3291 10.3797 46.7089 11.0126C47.0886 11.7721 47.2152 12.405 46.4557 12.9114C45.5696 13.5443 44.4304 14.0506 43.4177 14.4303C42.6582 14.6835 42.0253 14.8101 41.519 14.3038C41.2658 14.1772 41.1392 13.7974 40.8861 13.5443C40.6329 13.4177 40.2532 13.5443 40 13.6708C39.2405 13.924 38.481 14.1772 37.7215 14.3038C37.2152 14.4303 36.8354 14.6835 36.3291 14.6835C35.8228 14.8101 35.443 14.4303 34.8101 14.5569C34.0506 14.6835 33.1646 15.0633 32.4051 15.0633C31.7722 15.0633 31.0127 14.8101 30.5063 14.5569C30.2532 14.4303 30.1266 14.1772 29.7468 14.3038C29.4937 14.3038 29.1139 14.6835 28.9874 14.9367C28.7342 15.1898 28.7342 15.5696 28.481 15.8227C28.2279 16.2025 28.1013 16.4557 27.8481 16.8354C27.4684 17.4683 27.0886 18.1012 26.7089 18.7341C26.4557 19.1139 26.2025 19.7468 25.8228 20.1265C25.6962 20.3797 25.3165 20.5063 25.0633 20.6329C24.4304 21.0126 23.7975 21.5189 23.1646 21.8987C22.0253 22.7848 20.8861 23.7974 19.7468 24.6835C18.8608 25.3164 17.5949 25.6962 16.5823 26.2025C15.9494 26.4557 15.3165 26.7088 14.6835 26.962C14.4304 27.0886 14.0506 27.0886 13.9241 27.3417C13.6709 27.5949 13.5443 27.8481 13.4177 28.2278C12.9114 28.8607 12.2785 29.6202 11.8987 30.3797C11.6456 30.886 11.519 31.2658 11.2658 31.7721C11.0127 32.405 10.6329 33.0379 10.5063 33.7974C10 35.1898 10 36.7088 9.36709 38.1012C9.11393 38.8607 8.6076 39.6202 8.22785 40.3797C7.59494 41.6455 7.46836 43.1645 7.34178 44.5569C7.2152 45.3164 7.34178 46.3291 7.46836 47.0886C7.59494 47.9747 7.59494 48.8607 7.59494 49.7468C7.59494 50.6329 6.96203 51.6455 6.4557 52.2784C5.94937 52.9114 5.0633 53.1645 4.43039 53.7974C3.92406 54.3038 3.29114 54.8101 3.03798 55.5696C2.9114 55.8228 3.03798 56.2025 3.03798 56.5822C2.9114 57.3417 2.65823 57.9746 2.65823 58.7341C2.53165 59.6202 2.53165 60.5063 2.53165 61.519C2.53165 62.0253 2.53165 62.405 2.53165 62.9114C2.53165 63.4177 2.65823 63.7974 2.78481 64.1772C2.78481 64.4303 2.78481 64.8101 2.78481 65.0633C2.78481 65.443 3.03798 65.8228 3.03798 66.0759C3.29114 66.962 3.41773 67.7215 3.54431 68.6076C3.67089 69.3671 4.05064 70.1265 4.17722 70.886C4.55697 71.8987 4.68355 72.9114 4.93671 74.0506C5.06329 74.8101 5.0633 75.6962 5.18988 76.4557C5.31646 77.0886 5.44304 77.7215 5.44304 78.3544C5.44304 79.3671 5.18988 80.2531 5.18988 81.2658C5.18988 82.9114 5.82279 84.5569 6.20254 86.2025C6.32912 86.7088 6.4557 87.0886 6.58228 87.5949C2.40507 79.4936 0.126587 70.2531 0.126587 60.5063C0.126587 48.6076 3.54431 37.5949 9.49368 28.3544C12.0253 24.4303 14.9367 20.7595 18.3544 17.5949C29.1139 7.08857 43.9241 0.632874 60.1266 0.632874C61.3924 0.632874 62.7848 0.632872 64.0506 0.759454C71.8987 0.759454 79.4937 2.78477 86.3291 6.07591Z" fill="url(#paint14_linear_19_1618)"/>
<path opacity="0.3" fill-rule="evenodd" clip-rule="evenodd" d="M81.1393 105.696C82.2785 104.937 83.4178 104.304 84.6836 103.544C85.9494 102.785 87.2152 102.405 88.6076 101.772C89.6203 101.392 89.7469 101.392 90.5064 102.025C91.2659 102.658 92.1519 102.785 93.038 102.785C94.3038 102.785 95.6962 102.911 95.8228 104.557C95.9494 106.835 92.6583 108.734 91.0127 109.62C89.7469 110.38 88.3545 110.886 86.9621 111.519C85.8228 112.025 84.557 112.658 83.2912 112.785C82.1519 112.911 81.519 112.405 80.7595 111.646C79.8734 110.633 80 109.747 80 108.608C80 107.089 80 106.076 81.1393 105.696Z" fill="url(#paint15_linear_19_1618)"/>
<path opacity="0.3" fill-rule="evenodd" clip-rule="evenodd" d="M98.9873 21.7722C99.8734 23.5443 100.506 25.9494 101.899 27.4684C102.658 28.2279 103.165 28.3544 104.177 28.3544C104.683 28.3544 105.57 28.481 106.076 28.3544C106.709 28.1013 106.709 27.3418 106.709 26.7089C106.582 24.3038 105.063 22.1519 103.544 20.5064C102.532 19.3671 101.013 18.1013 99.367 18.3544C98.8607 19.4937 98.7341 20.6329 98.9873 21.7722Z" fill="url(#paint16_linear_19_1618)"/>
<path fill-rule="evenodd" clip-rule="evenodd" d="M65.9494 116.203C65.8228 116.456 65.5697 116.582 65.6962 116.835C65.8228 116.962 66.076 117.089 66.2026 117.089C66.4557 117.215 66.9621 117.089 67.2152 116.962C67.4684 116.835 67.3418 116.582 67.2152 116.329C66.9621 115.949 66.5823 115.823 66.2026 116.076L65.9494 116.203Z" fill="#FFFF45"/>
<path fill-rule="evenodd" clip-rule="evenodd" d="M26.7089 15.5696C26.076 15.8227 25.8228 15.8227 25.1899 16.3291C24.6836 16.7088 24.1772 17.0886 23.6709 17.5949C23.038 18.2278 22.7848 18.8607 22.6583 19.4936C22.4051 20.1265 22.2785 20.886 22.5317 21.2658C22.6583 21.3924 23.038 21.3924 23.4178 21.3924C23.9241 21.2658 24.4304 20.886 24.9367 20.6329C25.5696 20.2531 26.076 19.6202 26.5823 18.9873C26.9621 18.481 27.0886 17.9746 27.3418 17.4683C27.4684 17.0886 27.595 16.8354 27.7216 16.5822C27.8481 16.3291 27.8481 16.0759 27.7216 15.9493C27.595 15.5696 27.4684 15.5696 26.7089 15.5696Z" fill="#FFFF45"/>
<path fill-rule="evenodd" clip-rule="evenodd" d="M33.7974 14.4303C33.5442 14.6835 33.0379 15.0632 33.4176 15.3164C33.5442 15.443 33.6708 15.3164 33.7974 15.443C33.9239 15.443 33.9239 15.5695 34.0505 15.443C34.4303 15.443 34.3037 14.3037 33.7974 14.4303Z" fill="#FFFF45"/>
<path fill-rule="evenodd" clip-rule="evenodd" d="M35.6961 18.2278C35.8227 18.1013 36.0759 18.1013 36.2024 18.1013C36.2024 18.3544 36.4556 18.7342 36.0759 18.9873C35.8227 19.1139 35.9493 18.6076 35.8227 18.6076L35.6961 18.2278Z" fill="#FFFF45"/>
<path fill-rule="evenodd" clip-rule="evenodd" d="M39.367 18.2278C39.7468 18.3544 39.9999 18.481 40.3797 18.6076C40.5062 18.481 40.6328 18.481 40.7594 18.481C40.886 18.3544 41.0126 18.1012 41.1392 17.9747C41.2657 17.7215 41.1392 17.4683 41.0126 17.2152C40.886 17.0886 40.886 16.8354 40.7594 16.7088C40.6328 16.5822 40.2531 16.5822 40.1265 16.7088C39.8733 16.8354 39.7467 16.962 39.6202 17.2152C39.4936 17.3417 39.367 17.7215 39.367 17.8481C39.367 18.1012 39.4936 18.3544 39.7468 18.481L39.367 18.2278Z" fill="#FFFF45"/>
<path fill-rule="evenodd" clip-rule="evenodd" d="M42.4049 87.5949C42.7847 87.7215 43.0378 87.8481 43.4176 87.9747C43.5441 87.8481 43.6707 87.8481 43.7973 87.8481C43.9239 87.7215 44.0505 87.4684 44.1771 87.3418C44.3036 87.0886 44.1771 86.8355 44.0505 86.5823C43.9239 86.4557 43.9239 86.2025 43.7973 86.076C43.6707 85.9494 43.291 85.9494 43.1644 86.076C42.9112 86.2025 42.7847 86.3291 42.6581 86.5823C42.5315 86.7089 42.4049 87.0886 42.4049 87.2152C42.4049 87.4684 42.5315 87.7215 42.7846 87.8481L42.4049 87.5949Z" fill="#FFFF45"/>
<path fill-rule="evenodd" clip-rule="evenodd" d="M29.6201 21.519C29.4935 21.6456 29.3669 21.7721 29.2404 21.8987C29.3669 22.0253 29.4935 22.2785 29.7467 22.2785C29.8733 22.2785 29.9998 22.2785 29.9998 22.2785C30.1264 22.1519 29.9998 22.0253 30.1264 22.0253C30.253 21.7721 30.253 21.7721 30.1264 21.519C29.9998 21.3924 29.9999 21.3924 29.8733 21.3924C29.7467 21.3924 29.6201 21.3924 29.4935 21.519H29.6201Z" fill="#FFFF45"/>
<path fill-rule="evenodd" clip-rule="evenodd" d="M30.3797 26.962C30.3797 26.962 30.1265 27.7215 30.3797 27.4684C30.6328 27.3418 30.6328 27.0886 30.3797 26.962C30.5063 26.962 30.5063 26.962 30.3797 26.962Z" fill="#FFFF45"/>
<path fill-rule="evenodd" clip-rule="evenodd" d="M25.4429 36.0759C25.1897 36.3291 25.1897 36.4557 25.0631 36.8354C25.1897 36.962 25.3163 36.962 25.4429 36.962C25.696 36.962 25.696 36.8354 25.696 36.7088C25.696 36.5822 25.8226 36.4557 25.696 36.3291C25.696 36.0759 25.5694 35.9493 25.4429 36.0759Z" fill="#FFFF45"/>
<path fill-rule="evenodd" clip-rule="evenodd" d="M33.0379 22.1518C33.1645 22.2784 33.2911 22.405 33.2911 22.5316C33.1645 22.5316 33.0379 22.405 33.0379 22.2784C33.0379 22.0253 33.0379 22.1518 33.1645 21.8987L33.0379 22.1518Z" fill="#FFFF45"/>
<path fill-rule="evenodd" clip-rule="evenodd" d="M31.2657 15.0633C31.1391 15.1899 31.0126 15.3164 30.886 15.443C31.0126 15.5696 30.886 15.6962 31.1391 15.6962C31.2657 15.6962 31.3923 15.5696 31.5189 15.443C31.6455 15.3164 31.6455 15.1899 31.6455 15.0633C31.6455 14.9367 31.6455 14.6835 31.5189 14.9367L31.2657 15.0633Z" fill="#FFFF45"/>
<path fill-rule="evenodd" clip-rule="evenodd" d="M54.3038 11.3924C54.3038 11.2658 54.4304 11.0126 54.4304 10.886L54.5569 10.7595C54.6835 10.6329 54.6835 10.6329 54.8101 10.6329C54.9367 10.6329 55.0633 10.6329 55.3164 10.7595C55.8228 11.1392 54.5569 11.519 54.4304 11.1392L54.3038 11.3924Z" fill="#FFFF45"/>
<path fill-rule="evenodd" clip-rule="evenodd" d="M58.6075 13.038C58.4809 13.2912 58.3543 13.6709 58.6075 13.9241C58.8606 14.0506 59.367 13.7975 59.4935 13.6709C59.8733 13.4177 60.253 12.7848 59.8733 12.4051C59.7467 12.1519 59.1138 12.0253 58.8606 12.0253C58.2277 12.0253 58.1011 12.7848 57.9745 13.4177L58.6075 13.038Z" fill="#FFFF45"/>
<path fill-rule="evenodd" clip-rule="evenodd" d="M60.5062 7.08856C60.3796 6.58223 60.3796 6.0759 60.7594 5.82274C61.0126 5.69616 61.3923 5.56957 61.6455 5.82274C61.772 5.94932 61.8986 6.20249 62.0252 6.32907C62.1518 6.58224 62.1518 6.58223 62.0252 6.8354C61.8986 7.34173 61.772 7.72147 61.1391 7.72147C60.3796 7.72147 60.3796 7.21514 60.3796 6.45565V7.08856H60.5062Z" fill="#FFFF45"/>
<path fill-rule="evenodd" clip-rule="evenodd" d="M66.962 15.9493C67.3417 15.8228 67.7215 15.6962 67.9746 15.3164C67.7215 15.1899 67.0886 14.8101 66.962 15.3164V15.9493Z" fill="#FFFF45"/>
<path fill-rule="evenodd" clip-rule="evenodd" d="M44.6834 95.6962C45.0632 95.5696 45.4429 95.443 45.6961 95.0633C45.4429 94.9367 44.81 94.5569 44.6834 95.0633V95.6962Z" fill="#FFC445"/>
<path fill-rule="evenodd" clip-rule="evenodd" d="M85.8226 104.304C86.2023 104.177 86.5821 104.051 86.8352 103.671C86.5821 103.544 85.9492 103.165 85.8226 103.671V104.304Z" fill="#FFC445"/>
<path fill-rule="evenodd" clip-rule="evenodd" d="M71.8986 23.6708C72.2784 23.1645 72.7847 22.405 73.5442 22.7848C73.924 23.0379 74.0505 23.7974 73.6708 24.0506C73.2911 24.3037 73.0379 24.4303 72.5316 24.5569C72.2784 24.6835 71.7721 24.4303 71.8986 23.924V23.6708Z" fill="#FFFF45"/>
<path fill-rule="evenodd" clip-rule="evenodd" d="M45.1897 34.6835C45.5695 34.1772 46.0758 33.4177 46.8353 33.7975C47.215 34.0506 47.3416 34.8101 46.9619 35.0633C46.5821 35.3164 46.329 35.443 45.8226 35.5696C45.5695 35.6962 45.0631 35.443 45.1897 34.9367V34.6835Z" fill="#FFC445"/>
<path fill-rule="evenodd" clip-rule="evenodd" d="M89.4936 15.0632C89.8733 14.5569 90.3796 13.7974 91.1391 14.1772C91.5189 14.4303 91.6455 15.1898 91.2657 15.443C90.886 15.6961 90.6328 15.8227 90.1265 15.9493C89.8733 16.0759 89.367 15.8227 89.4936 15.3164V15.0632Z" fill="#FFC445"/>
<path fill-rule="evenodd" clip-rule="evenodd" d="M64.6835 55.9493C65.0632 55.443 65.5696 54.6835 66.3291 55.0633C66.7088 55.3164 66.8354 56.0759 66.4556 56.3291C66.0759 56.5823 65.8227 56.7088 65.3164 56.8354C65.0632 56.962 64.5569 56.7088 64.6835 56.2025V55.9493Z" fill="#FFC445"/>
<path fill-rule="evenodd" clip-rule="evenodd" d="M43.0378 18.1012C42.5315 18.3544 41.772 18.7342 41.6454 19.4937C41.6454 19.8734 41.772 20.1266 42.1518 20.2531C42.4049 20.3797 42.9113 20.3797 43.291 20.2531C43.7973 20 44.3037 19.6202 44.4303 19.2405C44.5568 18.8607 44.5568 18.6076 44.4303 18.3544C44.3037 18.2278 44.1771 17.9747 43.9239 17.8481C43.291 17.5949 42.9113 18.2278 42.4049 18.481L43.0378 18.1012Z" fill="#FFFF45"/>
<path fill-rule="evenodd" clip-rule="evenodd" d="M44.5569 16.329C44.81 16.4556 45.0632 16.5822 45.1898 16.8354C44.9366 16.962 44.6835 17.0885 44.4303 17.0885C44.0505 16.962 44.0505 16.5822 44.0505 16.329C44.0505 16.2025 44.4303 15.8227 44.5569 15.9493C44.6835 15.9493 44.6834 16.0759 44.6834 16.2025C44.81 16.329 44.81 16.3291 44.6834 16.5822H44.5569V16.329Z" fill="#FFFF45"/>
<path fill-rule="evenodd" clip-rule="evenodd" d="M17.848 27.4684C17.3416 27.9747 16.8353 28.481 16.5821 29.1139C16.4555 29.4937 16.7087 29.4937 16.9619 29.3671C17.5948 29.2405 18.1011 29.1139 18.734 28.9873C19.1138 28.8608 19.6201 28.7342 19.7467 28.481C19.8733 28.2279 19.9998 27.8481 19.9998 27.5949C19.9998 27.2152 19.6201 27.0886 19.3669 26.962C18.6074 26.7089 17.4682 27.2152 17.215 27.9747L17.848 27.4684Z" fill="#FFFF45"/>
<path fill-rule="evenodd" clip-rule="evenodd" d="M18.2278 30.1266C18.6076 30.1266 18.9873 30.2532 19.367 30.3797C19.2405 30.5063 19.2405 30.6329 19.2405 30.7595C19.1139 31.0127 18.9873 31.1392 18.7341 31.2658C18.3544 31.519 17.8481 31.519 17.4683 31.3924C16.3291 31.0127 18.1012 29.7468 18.3544 30.1266H18.2278Z" fill="#FFFF45"/>
<path fill-rule="evenodd" clip-rule="evenodd" d="M52.5315 6.0759C52.9112 5.82274 53.291 5.69616 53.6707 5.56957C54.177 5.44299 54.6834 5.44299 55.1897 5.44299C55.4428 5.44299 56.0758 5.44299 55.8226 5.82274C55.696 6.32907 54.6834 6.70881 54.3036 6.8354C53.6707 7.08856 53.0378 7.46831 52.2783 7.59489C51.8985 7.59489 51.2656 7.72147 51.0125 7.34173C50.8859 6.96198 50.8859 6.70882 51.1391 6.45565C51.2656 6.20249 51.5188 6.07591 51.8985 5.94932C52.0251 5.94932 52.9112 5.69616 52.9112 5.94932L52.5315 6.0759Z" fill="#FFFF45"/>
<path fill-rule="evenodd" clip-rule="evenodd" d="M45.8226 6.20245C45.6961 6.32904 44.3037 7.08853 44.9366 7.46828C45.3163 7.59486 45.9492 7.59486 46.329 7.46828C46.5821 7.34169 46.9619 7.08853 46.7087 6.70878C46.329 5.94929 45.3163 6.45562 44.81 6.70878L45.8226 6.20245Z" fill="#FFFF45"/>
<path fill-rule="evenodd" clip-rule="evenodd" d="M26.962 55.8228C27.0886 56.3291 27.2151 56.962 27.7215 57.3418C28.2278 57.7215 28.8607 57.5949 29.2405 57.2152C29.6202 56.962 30 56.7088 30.2531 56.5823C30.5063 56.4557 30.6329 56.4557 30.6329 56.0759C30.6329 55.6962 30.3797 55.3164 30.1265 55.0633C29.8734 54.8101 29.4936 54.4304 29.1139 54.3038C28.3544 54.0506 26.962 54.3038 26.962 55.3164V55.8228Z" fill="#FFD32F"/>
<path fill-rule="evenodd" clip-rule="evenodd" d="M69.9998 56.4558C70.1264 56.9621 70.253 57.595 70.7593 57.9747C71.2656 58.3545 71.8986 58.2279 72.2783 57.8482C72.658 57.595 73.0378 57.3418 73.291 57.2153C73.5441 57.0887 73.6707 57.0887 73.6707 56.7089C73.6707 56.3292 73.4175 55.9494 73.1644 55.6963C72.9112 55.4431 72.5315 55.0634 72.1517 54.9368C71.3922 54.6836 69.9998 54.9368 69.9998 55.9494V56.4558Z" fill="#FFBA00"/>
<path fill-rule="evenodd" clip-rule="evenodd" d="M8.73421 78.1013C8.73421 78.1013 8.22788 80.2532 9.74687 83.038C11.2659 85.8228 12.4051 85.5696 12.4051 85.5696C12.4051 85.5696 11.0127 80.5063 8.73421 78.1013Z" fill="#FFFF59"/>
<path fill-rule="evenodd" clip-rule="evenodd" d="M106.582 48.6076C106.582 48.6076 104.81 53.6709 104.557 54.4304C104.557 54.3038 107.342 53.5443 106.582 48.6076Z" fill="#FFFF59"/>
<path fill-rule="evenodd" clip-rule="evenodd" d="M116.076 50.1266C116.076 50.1266 114.81 51.0127 114.177 53.4177C114.177 53.4177 115.696 54.1772 116.076 50.1266Z" fill="#FFFF59"/>
<path fill-rule="evenodd" clip-rule="evenodd" d="M96.7089 97.2152C96.7089 97.2152 102.405 93.5443 105.696 93.2911C105.696 93.2911 101.899 97.8481 96.7089 97.2152Z" fill="#FFFF59"/>
<defs>
<radialGradient id="paint0_radial_19_1618" cx="0" cy="0" r="1" gradientUnits="userSpaceOnUse" gradientTransform="translate(22.9266 31.9935) scale(96.3318)">
<stop offset="0.00558659" stop-color="#FFB80B"/>
<stop offset="0.258" stop-color="#FFB60C"/>
<stop offset="0.384" stop-color="#FEAE10"/>
<stop offset="0.4821" stop-color="#FCA117"/>
<stop offset="0.5656" stop-color="#FA8E21"/>
<stop offset="0.6392" stop-color="#F7762E"/>
<stop offset="0.662" stop-color="#F66D33"/>
<stop offset="0.7209" stop-color="#EF6836"/>
<stop offset="0.8061" stop-color="#DC593D"/>
<stop offset="0.9068" stop-color="#BD4049"/>
<stop offset="0.9832" stop-color="#A02A54"/>
</radialGradient>
<linearGradient id="paint1_linear_19_1618" x1="5.12086" y1="77.6839" x2="34.1573" y2="77.6839" gradientUnits="userSpaceOnUse">
<stop offset="0.0111732" stop-color="#FFA90B"/>
<stop offset="0.3713" stop-color="#FFA60E"/>
<stop offset="0.6354" stop-color="#FF9D16"/>
<stop offset="0.868" stop-color="#FF8D25"/>
<stop offset="1" stop-color="#FF8031"/>
</linearGradient>
<linearGradient id="paint2_linear_19_1618" x1="6.14489" y1="77.6839" x2="32.6232" y2="77.6839" gradientUnits="userSpaceOnUse">
<stop offset="0.0111732" stop-color="#FFE00B"/>
<stop offset="0.3061" stop-color="#FFDD0D"/>
<stop offset="0.5224" stop-color="#FFD412"/>
<stop offset="0.7136" stop-color="#FFC41B"/>
<stop offset="0.8891" stop-color="#FFAD27"/>
<stop offset="1" stop-color="#FF9B31"/>
</linearGradient>
<linearGradient id="paint3_linear_19_1618" x1="9.0549" y1="43.0321" x2="20.6161" y2="42.6654" gradientUnits="userSpaceOnUse">
<stop offset="0.0111732" stop-color="#FFA90B"/>
<stop offset="0.3713" stop-color="#FFA60E"/>
<stop offset="0.6354" stop-color="#FF9D16"/>
<stop offset="0.868" stop-color="#FF8D25"/>
<stop offset="1" stop-color="#FF8031"/>
</linearGradient>
<linearGradient id="paint4_linear_19_1618" x1="9.76705" y1="43.0095" x2="19.8788" y2="42.6888" gradientUnits="userSpaceOnUse">
<stop offset="0.0111732" stop-color="#FFE00B"/>
<stop offset="0.3061" stop-color="#FFDD0D"/>
<stop offset="0.5224" stop-color="#FFD412"/>
<stop offset="0.7136" stop-color="#FFC41B"/>
<stop offset="0.8891" stop-color="#FFAD27"/>
<stop offset="1" stop-color="#FF9B31"/>
</linearGradient>
<linearGradient id="paint5_linear_19_1618" x1="104.592" y1="98.2507" x2="104.592" y2="57.112" gradientUnits="userSpaceOnUse">
<stop offset="0.0111732" stop-color="#FF8E0B"/>
<stop offset="0.3475" stop-color="#FD8B0D"/>
<stop offset="0.5941" stop-color="#F98215"/>
<stop offset="0.8113" stop-color="#F17221"/>
<stop offset="1" stop-color="#E65D31"/>
</linearGradient>
<linearGradient id="paint6_linear_19_1618" x1="92.4729" y1="77.6811" x2="116.686" y2="77.6811" gradientUnits="userSpaceOnUse">
<stop offset="0.0111732" stop-color="#FFE00B"/>
<stop offset="0.3061" stop-color="#FFDD0D"/>
<stop offset="0.5224" stop-color="#FFD412"/>
<stop offset="0.7136" stop-color="#FFC41B"/>
<stop offset="0.8891" stop-color="#FFAD27"/>
<stop offset="1" stop-color="#FF9B31"/>
</linearGradient>
<linearGradient id="paint7_linear_19_1618" x1="112.334" y1="56.1536" x2="112.334" y2="40.2765" gradientUnits="userSpaceOnUse">
<stop offset="0.0111732" stop-color="#FFA90B"/>
<stop offset="0.3713" stop-color="#FFA60E"/>
<stop offset="0.6354" stop-color="#FF9D16"/>
<stop offset="0.868" stop-color="#FF8D25"/>
<stop offset="1" stop-color="#FF8031"/>
</linearGradient>
<linearGradient id="paint8_linear_19_1618" x1="112.326" y1="55.113" x2="112.326" y2="41.3171" gradientUnits="userSpaceOnUse">
<stop offset="0.0111732" stop-color="#FFE00B"/>
<stop offset="0.3061" stop-color="#FFDD0D"/>
<stop offset="0.5224" stop-color="#FFD412"/>
<stop offset="0.7136" stop-color="#FFC41B"/>
<stop offset="0.8891" stop-color="#FFAD27"/>
<stop offset="1" stop-color="#FF9B31"/>
</linearGradient>
<linearGradient id="paint9_linear_19_1618" x1="63.0057" y1="119.245" x2="63.0057" y2="109.996" gradientUnits="userSpaceOnUse">
<stop offset="0.0111732" stop-color="#FFA90B"/>
<stop offset="0.3713" stop-color="#FFA60E"/>
<stop offset="0.6354" stop-color="#FF9D16"/>
<stop offset="0.868" stop-color="#FF8D25"/>
<stop offset="1" stop-color="#FF8031"/>
</linearGradient>
<linearGradient id="paint10_linear_19_1618" x1="63.0046" y1="118.205" x2="63.0046" y2="111.036" gradientUnits="userSpaceOnUse">
<stop offset="0.0111732" stop-color="#FFE00B"/>
<stop offset="0.3061" stop-color="#FFDD0D"/>
<stop offset="0.5224" stop-color="#FFD412"/>
<stop offset="0.7136" stop-color="#FFC41B"/>
<stop offset="0.8891" stop-color="#FFAD27"/>
<stop offset="1" stop-color="#FF9B31"/>
</linearGradient>
<linearGradient id="paint11_linear_19_1618" x1="92.002" y1="60.8987" x2="97.1903" y2="21.8192" gradientUnits="userSpaceOnUse">
<stop offset="0.0111732" stop-color="#FFA90B"/>
<stop offset="0.3713" stop-color="#FFA60E"/>
<stop offset="0.6354" stop-color="#FF9D16"/>
<stop offset="0.868" stop-color="#FF8D25"/>
<stop offset="1" stop-color="#FF8031"/>
</linearGradient>
<linearGradient id="paint12_linear_19_1618" x1="92.1362" y1="59.8686" x2="97.0509" y2="22.8497" gradientUnits="userSpaceOnUse">
<stop offset="0.0111732" stop-color="#FFE00B"/>
<stop offset="0.3061" stop-color="#FFDD0D"/>
<stop offset="0.5224" stop-color="#FFD412"/>
<stop offset="0.7136" stop-color="#FFC41B"/>
<stop offset="0.8891" stop-color="#FFAD27"/>
<stop offset="1" stop-color="#FF9B31"/>
</linearGradient>
<linearGradient id="paint13_linear_19_1618" x1="0.099259" y1="55.8673" x2="92.3327" y2="55.8673" gradientUnits="userSpaceOnUse">
<stop offset="0.0111732" stop-color="#FFE00B"/>
<stop offset="0.3061" stop-color="#FFDD0D"/>
<stop offset="0.5224" stop-color="#FFD412"/>
<stop offset="0.7136" stop-color="#F67C27"/>
<stop offset="0.8891" stop-color="#ED6930"/>
<stop offset="1" stop-color="#E76332"/>
</linearGradient>
<linearGradient id="paint14_linear_19_1618" x1="0.0992451" y1="43.5883" x2="86.3648" y2="43.5883" gradientUnits="userSpaceOnUse">
<stop offset="0.0111732" stop-color="#FFE00B"/>
<stop offset="0.3061" stop-color="#FFDD0D"/>
<stop offset="0.5224" stop-color="#FFD412"/>
<stop offset="0.7136" stop-color="#FFC41B"/>
<stop offset="0.8891" stop-color="#FFAD27"/>
<stop offset="1" stop-color="#FF9B31"/>
</linearGradient>
<linearGradient id="paint15_linear_19_1618" x1="80.0422" y1="107.146" x2="95.8608" y2="107.146" gradientUnits="userSpaceOnUse">
<stop offset="0.0111732" stop-color="#FFE00B"/>
<stop offset="0.3061" stop-color="#FFDD0D"/>
<stop offset="0.5224" stop-color="#FFD412"/>
<stop offset="0.7136" stop-color="#FFC41B"/>
<stop offset="0.8891" stop-color="#FFAD27"/>
<stop offset="1" stop-color="#FF9B31"/>
</linearGradient>
<linearGradient id="paint16_linear_19_1618" x1="98.8244" y1="23.4201" x2="106.61" y2="23.4201" gradientUnits="userSpaceOnUse">
<stop offset="0.0111732" stop-color="#FFE00B"/>
<stop offset="0.3061" stop-color="#FFDD0D"/>
<stop offset="0.5224" stop-color="#FFD412"/>
<stop offset="0.7136" stop-color="#FFC41B"/>
<stop offset="0.8891" stop-color="#FFAD27"/>
<stop offset="1" stop-color="#FF9B31"/>
</linearGradient>
</defs>
</svg>
