<?xml version="1.0" encoding="UTF-8" standalone="no"?>
<!-- Created with Inkscape (http://www.inkscape.org/) -->

<svg
   version="1.1"
   id="svg2"
   width="5326.1465"
   height="4802.8667"
   viewBox="0 0 5326.1465 4802.8667"
   sodipodi:docname="vecteezy_movie-ticket-illustration-vector_23018075.eps"
   xmlns:inkscape="http://www.inkscape.org/namespaces/inkscape"
   xmlns:sodipodi="http://sodipodi.sourceforge.net/DTD/sodipodi-0.dtd"
   xmlns="http://www.w3.org/2000/svg"
   xmlns:svg="http://www.w3.org/2000/svg">
  <defs
     id="defs6" />
  <sodipodi:namedview
     id="namedview4"
     pagecolor="#ffffff"
     bordercolor="#000000"
     borderopacity="0.25"
     inkscape:showpageshadow="2"
     inkscape:pageopacity="0.0"
     inkscape:pagecheckerboard="0"
     inkscape:deskcolor="#d1d1d1" />
  <g
     id="g8"
     inkscape:groupmode="layer"
     inkscape:label="ink_ext_XXXXXX"
     transform="matrix(1.3333333,0,0,-1.3333333,0,4802.8667)">
    <g
       id="g10"
       transform="scale(0.1)">
      <path
         d="m 10429.8,19862.1 c 654.8,-448.6 821.9,-1342.9 373.2,-1997.5 -448.8,-654.6 -1343.34,-821.5 -1998.07,-372.9 -654.73,448.7 -821.64,1343 -372.77,1997.6 448.71,654.3 1343.04,821.2 1997.64,372.8 z m 2939.1,4287.2 c 654.4,-449.1 820.8,-1343.5 371.6,-1997.7 -449.1,-654.2 -1343.7,-820.6 -1998.1,-371.5 -654.5,449 -820.8,1343.4 -371.7,1997.6 215.6,314.5 547.3,530.3 922.1,600 374.8,69.7 761.9,-12.5 1076.1,-228.4 z m 2940.4,4287.7 c 654.7,-448.7 821.6,-1342.9 372.9,-1997.4 -448.7,-654.5 -1343.1,-821.5 -1997.8,-373 -654.7,448.5 -821.9,1342.7 -373.3,1997.3 448.9,653.9 1342.7,820.8 1997.4,373.1 z M 2967.39,25047.6 353.172,21234.1 C -276.75,20309.4 -41.5547,19049.7 879.617,18414.5 L 5520.4,15234.4 c 456.01,628.6 1329.96,779.6 1970.62,340.6 640.71,-439 814.97,-1308.4 393.01,-1960.4 L 27237,353.398 C 28162.2,-276.398 29422.4,-41.1016 30057.9,880 l 2606.5,3801.1 c -1588.3,1118.1 -1982.4,3305 -884.2,4906.9 1098.2,1601.9 3280.6,2023.5 4896.6,945.8 l 2916.1,4253.7 c 630,924.9 394.8,2184.7 -526.4,2820.2 L 19702.1,30875.8 c -23.6,-51.5 -50.8,-101.3 -81.3,-149.1 -449,-654.4 -1343.6,-821.1 -1998.2,-372.3 -654.6,448.9 -821.3,1343.3 -372.4,1997.7 33.6,45.5 70.2,88.6 109.7,129.1 l -4651.4,3187.3 c -925.1,629.8 -2185.3,394.4 -2820.6,-526.9 L 6963.25,30875.3 C 8367.39,29702.5 8649.66,27654.7 7615.2,26145.9 6580.75,24637.1 4568.52,24161.7 2967.9,25047.9 l -0.51,-0.3"
         style="fill:#f28413;fill-opacity:1;fill-rule:nonzero;stroke:none"
         id="path12" />
      <path
         d="m 11732,6592.6 c 793.8,0 1437.2,-643.2 1437.2,-1436.8 0,-793.5 -643.4,-1436.8 -1437.2,-1436.8 -793.7,0 -1437.1,643.3 -1437.1,1436.8 -0.2,793.6 643.4,1437 1437.1,1436.8 z m 0,5197.5 c 793.8,0 1437.2,-643.4 1437.2,-1437 -0.1,-793.5 -643.6,-1436.8 -1437.4,-1436.7 -793.7,0.1 -1437.1,643.5 -1436.9,1437.1 0,793.5 643.4,1436.7 1437.1,1436.6 z m 0,5197.6 c 793.8,0 1437.2,-643.3 1437.2,-1436.9 -0.1,-793.5 -643.6,-1436.8 -1437.4,-1436.7 -793.7,0.1 -1437.1,643.5 -1436.9,1437.1 0,793.5 643.4,1436.7 1437.1,1436.5 z M 2642.98,6652 V 2028.4 C 2646.26,909.398 3552.86,3.09766 4672.16,0 h 5625.74 c 29.3,769.602 661.9,1378.5 1432.3,1378.5 770.4,0 1403.1,-608.898 1432.3,-1378.5 h 23462.9 c 1119.2,3.19922 2025.6,909.5 2028.7,2028.4 v 4608.9 c -1943,23.4 -3505.8,1604.8 -3505.8,3547.5 0,1942.6 1562.8,3524 3505.8,3547.5 v 5156.9 c -3.1,1118.9 -909.5,2025.2 -2028.7,2028.6 h -23474 c 9.2,-56 14.9,-112.5 17,-169.2 7,-517.9 -265.4,-999.4 -712.9,-1260.3 -447.5,-261 -1000.8,-261 -1448.3,0 -447.4,260.9 -719.8,742.4 -712.9,1260.3 2.3,56.7 8,113.2 17.1,169.2 H 4672.16 c -1119.34,-3.2 -2025.9,-909.6 -2029.18,-2028.6 v -5173.4 c 1821.05,-174.2 3211.44,-1703.6 3211.44,-3532.5 0,-1828.9 -1390.39,-3358.2 -3211.44,-3532.3 v 1"
         style="fill:#f8e547;fill-opacity:1;fill-rule:nonzero;stroke:none"
         id="path14" />
      <path
         d="M 2642.98,6652 V 2028.4 C 2646.26,909.398 3552.86,3.09766 4672.16,0 h 5625.74 c 22.3,775.297 657,1392.5 1432.8,1393.2 V 3717 c -793.8,0 -1437.3,643.3 -1437.3,1436.9 0,793.6 643.5,1436.9 1437.3,1436.9 V 8917 c -793.7,0 -1437.1,643.2 -1437.1,1436.8 0,793.5 643.4,1436.8 1437.1,1436.8 v 2324 c -793.7,0 -1437.1,643.3 -1437.1,1436.8 0,793.5 643.4,1436.8 1437.1,1436.8 v 2323.6 c -793.6,0.2 -1436.9,643.4 -1437.1,1436.8 2.2,56.7 7.9,113.2 17,169.2 H 4672.16 c -1119.34,-3.2 -2025.9,-909.6 -2029.18,-2028.6 v -5173.4 c 1821.05,-174.2 3211.44,-1703.6 3211.44,-3532.5 0,-1828.9 -1390.39,-3358.2 -3211.44,-3532.3 v 1"
         style="fill:#f5bc28;fill-opacity:1;fill-rule:nonzero;stroke:none"
         id="path16" />
      <path
         d="m 15915.2,3718.8 c -0.1,373.5 302.8,676.4 676.4,676.4 h 17893.5 c 373.5,-0.2 676.2,-303 676.4,-676.4 -0.4,-373.2 -303.1,-675.6 -676.4,-675.5 H 16591.6 c -373.3,-0.2 -676.2,302.2 -676.4,675.5"
         style="fill:#f28413;fill-opacity:1;fill-rule:nonzero;stroke:none"
         id="path18" />
      <path
         d="m 15915.2,16987.7 c 0,373.5 302.9,676.2 676.4,676.2 h 17893.5 c 373.5,-0.1 676.2,-302.8 676.4,-676.2 -0.4,-373.2 -303.1,-675.7 -676.4,-675.7 H 16591.6 c -373.4,-0.3 -676.4,302.3 -676.4,675.7"
         style="fill:#f28413;fill-opacity:1;fill-rule:nonzero;stroke:none"
         id="path20" />
      <path
         d="m 23380.8,8699 c 34.3,368.7 -81.8,735.7 -321.8,1017.8 l -1330.1,1391.8 c -225.3,235.6 -146,473.8 176,527.2 l 1899.1,316 c 361.6,81.2 675,305.2 868.7,621 l 913.3,1694.3 c 154.8,287.7 405.1,286.1 555.9,-4.1 l 887.4,-1708 c 189.1,-318.7 499,-547.3 859.4,-633.9 l 1893.4,-344.7 c 322.1,-58.5 397.7,-297.2 168.5,-530.2 l -1351,-1371.5 c -244.4,-278.2 -366,-643.2 -337.5,-1012.4 l 258.1,-1907.6 c 43.8,-324.3 -160,-469.6 -452.5,-323.6 l -1722.3,860.4 c -340.3,146.5 -725.4,149.3 -1067.8,7.8 l -1735,-833.3 c -294.7,-142 -496,6.7 -447.7,330.2 l 285.9,1902.8"
         style="fill:#f28413;fill-opacity:1;fill-rule:nonzero;stroke:none"
         id="path22" />
    </g>
  </g>
</svg>
