<svg width="40" height="40" viewBox="0 0 40 40" fill="none" xmlns="http://www.w3.org/2000/svg">
<path fill-rule="evenodd" clip-rule="evenodd" d="M39.9578 19.9789C39.9578 25.7656 37.5131 30.961 33.5932 34.6357C31.6965 36.3675 29.5047 37.7614 27.06 38.6907C25.5005 39.282 23.8145 39.7044 22.0864 39.8733C21.6649 39.9156 21.2012 39.9578 20.7797 39.9578C20.5269 39.9578 20.274 39.9578 19.9789 39.9578C19.0938 39.9578 18.2086 39.9156 17.3656 39.7889C14.3309 39.4087 11.5068 38.3105 9.06216 36.7054C8.80926 36.5365 8.59852 36.4098 8.38777 36.2408C7.96628 35.9451 7.58693 35.6495 7.16543 35.3116C5.1001 33.5798 3.37197 31.4256 2.14963 29.018C1.39094 27.4974 0.800842 25.8501 0.421496 24.1183C0.252898 23.2313 0.126451 22.3443 0.0421522 21.4573C2.57198e-06 20.9926 0 20.4858 0 19.9789C0 16.0507 1.13804 12.3337 3.11907 9.25028C3.96207 7.94088 4.93151 6.71596 6.06954 5.65999C9.65226 2.15417 14.5838 0 19.9789 0C20.4004 0 20.864 -6.45141e-07 21.2855 0.0422381C23.0137 0.168954 24.6997 0.506865 26.2592 1.01373C26.765 1.18268 27.2286 1.35164 27.6923 1.56283C28.0295 1.68955 28.3667 1.8585 28.7039 2.02746C30.6428 2.95671 32.413 4.22387 33.9304 5.74446C34.6891 6.50476 35.4057 7.3073 36.0379 8.15207C38.0189 10.8553 39.3677 14.0233 39.7892 17.5291C39.8735 18.2894 39.9578 19.1341 39.9578 19.9789Z" fill="url(#paint0_radial_19_1771)"/>
<path fill-rule="evenodd" clip-rule="evenodd" d="M28.746 1.98515C28.6617 1.98515 28.6196 1.98515 28.5353 2.02739C28.3245 2.06963 28.1138 2.02739 27.9031 1.98515C27.7345 1.94291 27.6502 1.85843 27.4394 1.85843C27.1865 1.81619 26.9758 1.73172 26.7229 1.68948C26.47 1.64724 26.2592 1.56276 26.0063 1.47828C25.7956 1.39381 25.7113 1.43605 25.5427 1.47828C25.3741 1.52052 25.2476 1.43604 25.079 1.39381C24.9104 1.30933 24.6997 1.30933 24.5311 1.26709C24.0253 1.18261 23.5195 1.01366 23.0137 0.886941C22.7187 0.802464 22.4236 0.802465 22.0864 0.802465C21.8335 0.802465 21.6228 0.886941 21.3699 0.886941C21.2013 0.886941 21.0748 0.844703 20.9062 0.844703C20.7376 0.802464 20.569 0.844703 20.4004 0.844703C20.1475 0.802464 20.0211 0.760226 19.7682 0.844703C19.5574 0.886942 19.431 0.886942 19.2202 0.929181C19.0095 0.929181 18.7566 1.01366 18.5458 1.0559C18.1665 1.14037 17.745 1.22485 17.3657 1.22485C17.1128 1.22485 16.7756 1.14037 16.5648 1.22485C16.4384 1.26709 16.3541 1.43604 16.2276 1.52052C16.0169 1.73172 15.8061 1.90067 15.6375 2.11186C15.4689 2.32306 15.3003 2.57649 15.3003 2.87216C15.3003 3.12559 15.4268 3.42126 15.5532 3.63246C15.6797 3.88589 15.7218 4.09708 15.4689 4.26604C15.1739 4.47723 14.7945 4.64619 14.4573 4.7729C14.2044 4.85738 13.9937 4.89962 13.8251 4.73067C13.7408 4.68843 13.6986 4.56171 13.6143 4.47723C13.53 4.43499 13.4036 4.47723 13.3193 4.51947C13.0664 4.60395 12.8135 4.68843 12.5606 4.73067C12.392 4.7729 12.2656 4.85738 12.097 4.85738C11.9284 4.89962 11.8019 4.7729 11.5912 4.81514C11.3383 4.85738 11.0432 4.9841 10.7903 4.9841C10.5796 4.9841 10.3267 4.89962 10.1581 4.81514C10.0738 4.7729 10.0316 4.68843 9.90518 4.73067C9.82088 4.73067 9.69443 4.85738 9.65228 4.94186C9.56798 5.02633 9.56798 5.15305 9.48368 5.23753C9.39938 5.36425 9.35723 5.44872 9.27293 5.57544C9.14649 5.78663 9.02004 5.99783 8.89359 6.20902C8.80929 6.33573 8.72499 6.54693 8.59854 6.67365C8.55639 6.75812 8.42994 6.80036 8.34564 6.8426C8.1349 6.96932 7.92415 7.13827 7.7134 7.26499C7.33405 7.56066 6.95471 7.89857 6.57536 8.19424C6.28032 8.40543 5.85882 8.53215 5.52162 8.7011C5.31087 8.78558 5.10013 8.87006 4.88938 8.95454C4.80508 8.99677 4.67863 8.99677 4.63648 9.08125C4.55218 9.16573 4.51003 9.25021 4.46788 9.37692C4.29928 9.58812 4.08854 9.84155 3.96209 10.095C3.87779 10.2639 3.83564 10.3907 3.75134 10.5596C3.66704 10.7708 3.54059 10.982 3.49844 11.2354C3.32984 11.7001 3.32984 12.2069 3.1191 12.6715C3.0348 12.925 2.8662 13.1784 2.73975 13.4318C2.529 13.8542 2.48685 14.3611 2.4447 14.8257C2.40255 15.0791 2.4447 15.4171 2.48685 15.6705C2.529 15.9662 2.529 16.2618 2.529 16.5575C2.529 16.8532 2.31825 17.1911 2.14966 17.4023C1.98106 17.6135 1.68601 17.698 1.47526 17.9091C1.30666 18.0781 1.09592 18.2471 1.01162 18.5005C0.969468 18.585 1.01162 18.7117 1.01162 18.8384C0.969468 19.0918 0.885167 19.303 0.885167 19.5565C0.843018 19.8521 0.843015 20.1478 0.843015 20.4857C0.843015 20.6547 0.843015 20.7814 0.843015 20.9503C0.843015 21.1193 0.885163 21.246 0.927313 21.3727C0.927313 21.4572 0.927313 21.5839 0.927313 21.6684C0.927313 21.7951 1.01162 21.9218 1.01162 22.0063C1.09592 22.302 1.13806 22.5554 1.18021 22.8511C1.22236 23.1045 1.34881 23.3579 1.39096 23.6114C1.51741 23.9493 1.55956 24.2872 1.64386 24.6673C1.68601 24.9208 1.68601 25.2164 1.72816 25.4699C1.77031 25.6811 1.81246 25.8923 1.81246 26.1035C1.81246 26.4414 1.72816 26.737 1.72816 27.0749C1.72816 27.624 1.93891 28.1732 2.06536 28.7223C2.10751 28.8912 2.14965 29.0179 2.1918 29.1869C0.800864 26.4836 0.0421753 23.4002 0.0421753 20.1478C0.0421753 16.1774 1.18021 12.5026 3.16124 9.41916C4.00423 8.10976 4.97368 6.88484 6.11171 5.82887C9.69443 2.32306 14.6259 0.168884 20.0211 0.168884C20.4426 0.168884 20.9062 0.168884 21.3277 0.211122C23.941 0.168884 26.47 0.886942 28.746 1.98515Z" fill="url(#paint1_linear_19_1771)"/>
<g opacity="0.5">
<g opacity="0.4">
<path opacity="0.4" fill-rule="evenodd" clip-rule="evenodd" d="M17.6607 25.5544V25.5121C17.7872 25.6389 17.9136 25.7656 17.9136 25.9345C17.8293 25.8923 17.7029 25.6389 17.6607 25.5544Z" fill="url(#paint2_linear_19_1771)"/>
<path fill-rule="evenodd" clip-rule="evenodd" d="M39.7893 17.4868C39.705 17.3178 39.6207 17.1911 39.4943 17.0644C39.2835 16.7687 38.9885 16.642 38.6513 16.5575C38.3984 16.473 38.1455 16.3463 37.9347 16.5575C37.724 16.7687 37.5554 17.0644 37.4289 17.2756C37.3446 17.4445 37.2182 17.7824 37.0075 17.8247C36.7967 17.8669 36.5438 17.5712 36.3752 17.4023C36.1645 17.1911 36.038 16.8532 35.8273 16.6842C35.6587 16.5575 35.4058 16.4308 35.2372 16.3886C34.8578 16.2196 34.4363 16.1774 34.0148 16.1351C33.7198 16.1351 33.509 15.9662 33.2561 15.8395C33.0032 15.7127 32.666 15.6705 32.4131 15.6283C32.1602 15.586 31.9073 15.5438 31.6544 15.4593C31.4016 15.4171 31.1908 15.3748 30.9801 15.1636C30.7693 14.9102 30.6007 14.5723 30.3478 14.3611C29.8842 13.9387 29.3784 14.2344 28.7883 14.2344C28.3246 14.2344 27.9453 13.9387 27.4816 13.812C26.9337 13.6853 26.4701 13.6008 26.1329 13.1362C25.8378 12.7138 25.9221 12.2069 25.7535 11.7423C25.4163 10.8131 24.1518 10.5596 23.2667 10.4751C22.5501 10.4329 21.9179 10.6863 21.2435 10.6863C20.6534 10.6863 20.1476 10.5596 19.7683 11.0665C19.3468 11.6156 18.9253 12.2069 18.5881 12.7983C18.3352 13.2629 17.9137 13.7275 17.7451 14.2766C17.6608 14.5723 17.6608 14.868 17.6186 15.1636C17.5343 15.5016 17.2814 15.9662 17.0707 16.2618C16.8599 16.5575 16.4384 16.7687 16.1012 16.9377C15.8062 17.1066 15.5955 17.3178 15.3426 17.5712C15.0475 17.8669 14.7525 18.1626 14.5417 18.5005C14.4574 18.6695 14.3731 18.8384 14.2045 18.9651C14.0781 19.0918 13.9095 19.1341 13.783 19.2608C13.6566 19.3453 13.5723 19.472 13.488 19.5987C13.3194 19.7677 13.0243 19.8944 12.7714 19.9366C12.3499 19.9366 11.9284 19.5987 11.5912 20.0633C11.3805 20.3168 11.1276 20.7814 11.1697 21.1193C11.2119 21.415 11.4648 21.6684 11.6334 21.9218C11.9284 22.302 12.5607 22.9778 12.4342 23.5269C12.3921 23.7381 12.1813 23.8648 12.2656 24.1182C12.3078 24.3294 12.3499 24.5406 12.3499 24.7941C12.3499 24.963 12.2656 25.2587 12.3499 25.3854C12.4764 25.5544 12.8557 25.7233 13.0665 25.7656C13.488 25.9345 13.8673 26.2302 14.2888 26.4414C14.5839 26.6103 14.7525 26.8215 15.0475 26.906C15.3426 26.9905 15.5955 26.9482 15.8905 26.9905C16.0591 27.0327 16.2698 27.0327 16.4384 27.075C16.5649 27.1172 16.6913 27.2017 16.8178 27.2439C17.3236 27.3706 17.9137 27.2439 18.4616 27.2439C18.7988 27.2439 19.136 27.3284 19.4311 27.1594C19.7683 26.9482 19.8526 26.6948 19.8526 26.3147C19.8526 25.9768 19.684 25.6811 19.5575 25.3432C19.5154 25.1742 19.4732 24.963 19.3468 24.7941C19.2625 24.6674 19.136 24.6674 19.0096 24.5829C18.841 24.4562 18.7988 24.3294 18.5459 24.2872C18.3773 24.245 18.2087 24.3294 18.0401 24.4139C17.8294 24.5829 17.45 24.9208 17.4922 25.2165C17.5343 25.3432 17.6186 25.4699 17.7451 25.5544C17.7451 25.4277 17.7872 25.3009 17.8294 25.132C18.2509 25.2165 18.8831 25.3432 19.1782 25.6811C19.0939 25.9768 18.7145 26.1879 18.4616 26.1879C17.9558 26.1879 17.45 26.2724 17.0707 25.8923C16.7335 25.5966 16.7335 25.1742 16.5227 24.7941C16.4384 24.5829 16.3542 24.4139 16.1856 24.245C16.0591 24.1183 15.9748 23.9915 15.8905 23.8226C15.7219 23.5691 15.5533 23.189 15.8062 22.9356C16.0591 22.6821 16.5227 22.5132 16.8178 22.3442C17.2814 22.0908 17.7872 21.8374 18.2509 21.5417C18.9253 21.1615 19.4732 20.6547 20.2741 20.6124C20.9063 20.5702 21.665 20.6969 22.1708 21.1193C22.508 21.415 22.5923 21.7529 22.7609 22.133C22.9295 22.4709 23.1824 22.7244 23.4353 22.9356C23.8146 23.189 24.194 23.4424 24.5312 23.6959C24.9948 24.0338 25.3742 24.1605 25.7114 24.6674C26.2172 25.5121 26.4701 26.4414 26.723 27.4129C26.8916 27.8775 26.9758 28.3421 27.0601 28.849C27.1444 29.2291 27.313 29.5248 27.4816 29.905C27.6081 30.2429 27.7345 30.4963 27.9031 30.792C27.9874 30.9187 28.0717 31.0454 28.1139 31.2144C28.2403 31.8057 27.6502 32.2281 27.3552 32.6927C27.018 33.1996 26.6386 33.622 26.4701 34.2133C26.3436 34.6779 26.5122 34.8891 26.5965 35.3115C26.7651 36.0296 26.4279 36.452 25.9643 36.9588C25.7114 37.2123 25.4585 37.4234 25.1213 37.5924C24.2361 37.9725 23.4353 38.6484 22.7609 39.3664C22.6766 39.5776 22.2972 39.8733 22.1286 40C23.8568 39.8311 25.5428 39.4087 27.1023 38.8173C29.547 37.8881 31.7388 36.4942 33.6355 34.7624C37.5554 31.1299 40.0001 25.8923 40.0001 20.1056C39.9579 19.1341 39.8736 18.2893 39.7893 17.4868ZM17.4922 17.7402C17.4079 17.9936 16.7756 18.1204 16.5227 18.2048C16.4384 18.2471 16.312 18.2893 16.2277 18.2048C16.017 18.0359 16.7335 17.4445 16.7335 17.4868L16.5227 17.4023C16.7335 17.4023 16.7756 17.1489 16.9442 17.1911C16.9864 17.1911 17.155 17.2756 17.1971 17.3178C17.3657 17.3601 17.5765 17.529 17.4922 17.7402ZM24.2361 13.0939C24.0675 13.981 23.0559 14.6568 22.2551 14.9102C21.8336 15.0369 21.4543 15.1214 21.0328 15.1214C20.6534 15.1214 20.2319 15.2059 19.8526 15.1214C19.1782 14.9525 19.0096 14.4878 19.2203 14.1922C19.0939 13.8542 18.9253 13.5586 19.0517 13.2207C19.1782 12.9672 19.3046 12.7138 19.4732 12.5026C19.7683 12.0802 20.1898 12.0802 20.6534 11.9113C21.5807 11.6156 22.5923 11.2777 23.5196 11.7845C23.9411 12.0802 24.3204 12.5448 24.2361 13.0939ZM33.1718 31.8479C32.7925 32.9884 31.8231 33.5375 30.7693 33.9176C30.2214 34.1288 29.7156 34.4245 29.1676 34.6357C28.7883 34.8046 28.5354 34.8891 28.1982 34.7624C27.7345 34.5512 27.6081 34.1288 27.8188 33.6642C28.1139 33.1573 28.6618 32.7349 28.5354 32.1014C28.4511 31.679 28.4089 31.3411 28.4932 30.9187C28.5775 30.2851 28.5775 29.6515 28.5775 29.0179C28.156 29.8205 28.1139 29.1447 28.156 28.68C28.156 28.2999 28.2825 28.1309 28.6197 27.9197C29.6734 27.2017 31.1065 27.8775 32.0338 28.4688C32.6239 28.849 33.0454 29.4826 33.2983 30.1161C33.4669 30.7075 33.3826 31.2988 33.1718 31.8479ZM32.8346 19.9366C32.5396 19.9789 32.0759 19.5565 31.8652 19.3875C31.6544 19.2186 31.4859 18.9651 31.3173 18.7539C31.1487 18.585 30.9379 18.3738 30.8115 18.1626C30.685 17.9092 30.6007 17.6135 30.4743 17.3178C30.3057 16.8954 30.1792 16.5575 29.9263 16.1351C29.842 16.3886 29.842 16.1351 30.0106 16.0507C30.1792 15.9662 30.4321 16.0507 30.6007 16.0507C31.0644 16.1351 31.3173 16.3463 31.6544 16.642C31.9916 17.0221 32.371 17.3178 32.666 17.698C32.9189 17.9936 33.4669 18.585 33.4669 18.9651C33.509 19.3453 33.1718 19.9366 32.8346 19.9366Z" fill="url(#paint3_linear_19_1771)"/>
<path opacity="0.4" fill-rule="evenodd" clip-rule="evenodd" d="M36.038 8.10977C35.8694 8.27873 35.6165 8.36321 35.4058 8.53216C35.2372 8.65888 35.0686 8.87007 34.9 8.95455C34.6471 9.03903 34.3099 8.95455 34.0992 8.87007C33.5512 8.65888 33.214 8.44768 32.6239 8.65888C32.4553 8.74336 32.2867 8.70112 32.1181 8.74335C31.9495 8.78559 31.9495 8.87007 31.7388 8.87007C31.4016 8.87007 31.0644 8.53216 30.8536 8.32097C30.6007 8.0253 30.4743 8.0253 30.0949 8.0253C29.7156 8.0253 29.2941 8.10978 29.2098 8.5744C29.1255 9.08127 29.7577 9.50365 30.0949 9.75708C30.6007 10.1372 30.0528 10.2217 29.842 10.6019C29.6734 10.9398 30.0106 11.151 29.7577 11.4466C29.2098 12.038 27.9032 12.4604 27.1866 12.0802C26.6808 11.7845 26.4279 11.2354 26.0486 10.8131C25.8378 10.5596 25.5428 10.3907 25.332 10.1372C24.9948 9.79932 24.7419 9.3347 24.5733 8.87007C24.7419 9.3347 24.4469 8.65888 24.3626 8.10977C24.3204 7.85634 24.4469 7.68739 24.489 7.47619C24.5312 7.22276 24.4047 7.13828 24.2783 6.96933C24.0675 6.58918 23.7725 6.29351 24.0675 5.91336C24.2361 5.65993 24.4469 5.44874 24.6576 5.23754C24.8684 5.02635 25.1213 4.73068 25.4163 4.60396C25.4585 4.43501 24.9105 3.8859 24.7841 3.75919C24.489 3.42128 24.2361 2.99889 23.8989 2.70322C23.7725 2.5765 23.5196 2.44979 23.4353 2.32307C23.2667 1.98516 23.8146 1.52054 24.0254 1.35158C24.4469 1.05591 24.8262 1.01367 25.2899 1.01367C25.5849 1.01367 25.9221 1.01367 26.2593 1.05591C26.7651 1.22486 27.2288 1.39382 27.6924 1.60501C28.0296 1.73173 28.3668 1.90068 28.704 2.06964C30.6429 2.99889 32.4132 4.26605 33.9306 5.78664C34.7314 6.42023 35.4058 7.22276 36.038 8.10977Z" fill="url(#paint4_linear_19_1771)"/>
<path opacity="0.4" fill-rule="evenodd" clip-rule="evenodd" d="M30.3058 12.3759C30.7273 12.4604 31.1488 12.5871 31.5281 12.7561C31.486 12.8405 31.5281 12.925 31.5703 13.0095C31.4438 13.1362 31.1909 13.3052 30.9802 13.3474C30.7273 13.3896 30.6008 13.3474 30.3901 13.2207C30.1793 13.094 29.9264 13.094 29.9686 12.8405C29.9686 12.5449 30.2636 12.4604 30.5165 12.4182H30.3058V12.3759Z" fill="url(#paint5_linear_19_1771)"/>
<path opacity="0.4" fill-rule="evenodd" clip-rule="evenodd" d="M7.58693 36.1141C7.71338 36.1985 7.88198 36.283 8.00843 36.3252C7.75553 36.4097 7.46048 36.452 7.16543 36.452C7.12328 36.1985 6.95469 35.9029 6.11169 35.396C6.65964 35.6494 7.08113 35.8606 7.58693 36.1141Z" fill="url(#paint6_linear_19_1771)"/>
<path opacity="0.4" fill-rule="evenodd" clip-rule="evenodd" d="M25.5849 33.1151C25.4163 33.4108 25.3741 33.7064 25.3741 34.0021C25.3741 34.2978 25.3741 34.5934 25.3741 34.8891C25.3741 35.3115 25.0791 35.5649 24.8262 35.8606C24.5312 36.2407 24.1518 36.4942 23.8146 36.7899C23.646 36.9588 23.5617 37.17 23.3931 37.339C23.2245 37.5079 23.0559 37.6346 22.9295 37.8036C22.7609 38.0148 22.7187 38.1415 22.508 38.2682C22.2551 38.4372 22.0865 38.6484 21.8757 38.8596C21.4964 39.1975 21.1592 39.5776 20.7798 39.8733C20.5269 39.8733 20.2741 39.8733 19.979 39.8733C19.0939 39.8733 18.2087 39.831 17.3657 39.7043C14.331 39.3242 11.5069 38.226 9.06226 36.6209C9.31515 36.6631 9.5259 36.7476 9.7788 36.7899C10.0317 36.8321 10.2846 36.9588 10.5375 37.0011C11.0011 37.1278 11.5912 37.0433 12.0549 37.0433C12.7714 37.0433 13.4458 37.17 14.1624 37.2545C14.6682 37.339 15.0475 37.4234 15.5533 37.2545C15.9748 37.1278 16.3963 36.9588 16.7335 36.7476C17.5343 36.283 18.4616 36.283 19.2625 35.8606C19.5997 35.6916 19.8947 35.396 20.2319 35.1848C20.4005 35.1003 20.6534 34.8891 20.8641 34.8469C21.0327 34.8046 21.1592 34.8046 21.3278 34.7202C21.7493 34.5512 22.1708 34.4667 22.5923 34.34C22.9295 34.2133 23.4774 33.9599 23.7725 33.7064C24.1518 33.3685 24.6576 32.8194 24.8262 32.3548C24.9527 32.0169 24.9527 31.7212 24.9527 31.3833C24.9527 31.2566 24.9527 31.0876 24.9527 30.9609C24.9527 30.792 24.9105 30.7075 24.8684 30.5808C24.7841 30.2429 24.9527 30.0739 25.037 29.7782C25.1213 29.5248 25.2056 29.2714 25.2899 28.9757C25.3741 28.5955 25.3742 28.3844 25.2477 28.0042C25.2056 27.8775 25.1213 27.6663 25.0791 27.5396C25.037 27.4129 25.037 27.2439 25.037 27.1172C25.037 27.2861 25.2477 27.7085 25.2899 27.8352C25.4163 28.1309 25.6692 28.3843 25.6692 28.7645C25.6692 29.1024 25.5849 29.3558 25.5006 29.6938C25.4163 30.0317 25.5427 30.2429 25.5427 30.5808C25.5427 30.7075 25.5427 30.8764 25.5849 31.0032C25.627 31.1721 25.6271 31.3411 25.6692 31.4678C25.7113 31.7634 25.9221 32.0169 26.0064 32.2703C26.0064 32.6505 25.7535 32.8617 25.5849 33.1151Z" fill="url(#paint7_linear_19_1771)"/>
</g>
<path opacity="0.4" fill-rule="evenodd" clip-rule="evenodd" d="M10.2002 33.453C10.2424 34.4667 9.65226 35.3538 8.85142 35.9451C8.68282 36.0718 8.51422 36.1563 8.34562 36.2408C7.92413 35.9451 7.54478 35.6494 7.12329 35.3115C5.05796 33.5797 3.32982 31.4256 2.10748 29.018C1.34879 27.4974 0.758697 25.8501 0.37935 24.1183C0.210752 23.2313 0.0842992 22.3442 0 21.4572C0.0842992 21.3727 0.126449 21.3305 0.210748 21.246C0.210748 21.9219 0.463646 22.4287 0.632244 23.0623C0.758693 23.5269 0.927291 23.9915 1.05374 24.4562C1.13804 24.8363 1.22234 25.1742 1.47524 25.5121C1.64383 25.7233 1.77028 25.8078 2.02318 25.8923C2.19178 25.9768 2.36038 26.1035 2.52898 26.188C2.90832 26.3147 3.41412 26.4414 3.83562 26.3992C4.04636 26.3992 4.17281 26.3992 4.38356 26.4836C4.51001 26.5681 4.63646 26.6526 4.76291 26.7371C5.05795 26.9483 5.31085 27.1595 5.56375 27.4129C5.94309 27.8353 5.90094 28.3844 6.19599 28.849C6.44889 29.2291 6.78608 29.3559 7.24973 29.3559C8.13487 29.3559 8.89356 30.4118 9.35721 31.0454C9.77871 31.7635 10.1581 32.6927 10.2002 33.453Z" fill="url(#paint8_linear_19_1771)"/>
</g>
<defs>
<radialGradient id="paint0_radial_19_1771" cx="0" cy="0" r="1" gradientUnits="userSpaceOnUse" gradientTransform="translate(10.2453 7.69163) scale(33.4752 33.5459)">
<stop offset="0.00558659" stop-color="#B1FFFF"/>
<stop offset="0.2928" stop-color="#B1FDFF"/>
<stop offset="0.4362" stop-color="#AFF5FF"/>
<stop offset="0.5473" stop-color="#ACE8FF"/>
<stop offset="0.6173" stop-color="#A9DBFF"/>
<stop offset="0.6508" stop-color="#A2D7FE"/>
<stop offset="0.6994" stop-color="#8FCAFC"/>
<stop offset="0.757" stop-color="#6FB5F9"/>
<stop offset="0.8216" stop-color="#4399F4"/>
<stop offset="0.8913" stop-color="#0C75EE"/>
<stop offset="0.905" stop-color="#006DED"/>
</radialGradient>
<linearGradient id="paint1_linear_19_1771" x1="0.00377702" y1="14.4832" x2="28.7286" y2="14.4832" gradientUnits="userSpaceOnUse">
<stop offset="0.0111732" stop-color="#B0E1FF"/>
<stop offset="0.2926" stop-color="#ADDEFF"/>
<stop offset="0.499" stop-color="#A5D5FF"/>
<stop offset="0.6813" stop-color="#98C5FF"/>
<stop offset="0.8488" stop-color="#85AEFF"/>
<stop offset="1" stop-color="#6D93FF"/>
</linearGradient>
<linearGradient id="paint2_linear_19_1771" x1="17.6605" y1="25.696" x2="17.926" y2="25.696" gradientUnits="userSpaceOnUse">
<stop stop-color="#E8DDFF"/>
<stop offset="1" stop-color="#AA8AD8"/>
</linearGradient>
<linearGradient id="paint3_linear_19_1771" x1="11.1209" y1="25.1512" x2="39.9408" y2="25.1512" gradientUnits="userSpaceOnUse">
<stop stop-color="#E8DDFF"/>
<stop offset="1" stop-color="#AA8AD8"/>
</linearGradient>
<linearGradient id="paint4_linear_19_1771" x1="23.3597" y1="6.56409" x2="36.0462" y2="6.56409" gradientUnits="userSpaceOnUse">
<stop stop-color="#E8DDFF"/>
<stop offset="1" stop-color="#AA8AD8"/>
</linearGradient>
<linearGradient id="paint5_linear_19_1771" x1="29.9662" y1="12.8503" x2="31.5548" y2="12.8503" gradientUnits="userSpaceOnUse">
<stop stop-color="#E8DDFF"/>
<stop offset="1" stop-color="#AA8AD8"/>
</linearGradient>
<linearGradient id="paint6_linear_19_1771" x1="6.11987" y1="35.9494" x2="8.02082" y2="35.9494" gradientUnits="userSpaceOnUse">
<stop stop-color="#E8DDFF"/>
<stop offset="1" stop-color="#AA8AD8"/>
</linearGradient>
<linearGradient id="paint7_linear_19_1771" x1="9.04936" y1="33.5713" x2="25.945" y2="33.5713" gradientUnits="userSpaceOnUse">
<stop stop-color="#E8DDFF"/>
<stop offset="1" stop-color="#AA8AD8"/>
</linearGradient>
<linearGradient id="paint8_linear_19_1771" x1="0.0587565" y1="28.7308" x2="10.2249" y2="28.7308" gradientUnits="userSpaceOnUse">
<stop stop-color="#E8DDFF"/>
<stop offset="1" stop-color="#AA8AD8"/>
</linearGradient>
</defs>
</svg>
